<svg version="1.1" viewBox="0.0 0.0 960.0 720.0" fill="none" stroke="none" stroke-linecap="square" stroke-miterlimit="10" xmlns:xlink="http://www.w3.org/1999/xlink" xmlns="http://www.w3.org/2000/svg"><clipPath id="p.0"><path d="m0 0l960.0 0l0 720.0l-960.0 0l0 -720.0z" clip-rule="nonzero"/></clipPath><g clip-path="url(#p.0)"><path fill="#000000" fill-opacity="0.0" d="m0 0l960.0 0l0 720.0l-960.0 0z" fill-rule="evenodd"/><path fill="#cc0000" d="m181.48306 0l69.67786 0l0 0c9.127991 -8.6509415E-15 16.52768 7.665449 16.52768 17.12126c0 9.455811 -7.3996887 17.12126 -16.52768 17.12126l-69.67786 0l0 0c-9.127991 0 -16.52768 -7.665449 -16.52768 -17.12126c0 -9.455811 7.3996887 -17.12126 16.52768 -17.12126z" fill-rule="evenodd"/><path fill="#ffffff" d="m203.44696 23.137508q-2.0 0 -3.21875 -0.515625l0 -1.53125q1.5 0.578125 3.0625 0.578125q1.296875 0 1.875 -0.296875q0.59375 -0.3125 0.59375 -1.140625q0 -0.53125 -0.25 -0.84375q-0.25 -0.3125 -0.8125 -0.53125q-0.5625 -0.234375 -1.671875 -0.515625q-1.671875 -0.4375 -2.34375 -1.09375q-0.671875 -0.671875 -0.671875 -1.828124q0 -1.375 1.0 -2.140625q1.015625 -0.765625 2.953125 -0.765625q0.84375 0 1.640625 0.125q0.796875 0.125 1.28125 0.296875l0 1.53125q-1.203125 -0.453125 -2.6875 -0.453125q-1.21875 0 -1.828125 0.3125q-0.59375 0.3125 -0.59375 1.09375q0 0.453125 0.21875 0.73437405q0.21875 0.28125 0.734375 0.5q0.53125 0.21875 1.5625 0.46875q1.8125 0.46875 2.515625 1.203125q0.703125 0.734375 0.703125 1.90625q0 1.375 -1.03125 2.140625q-1.03125 0.765625 -3.03125 0.765625zm8.101273 0q-1.203125 0 -1.8125 -0.625q-0.609375 -0.640625 -0.609375 -1.78125l0 -3.96875l-1.109375 0l0 -1.359374l1.109375 0l0 -1.75l1.734375 -0.53125l0 2.28125l2.015625 0l-0.109375 1.359374l-1.90625 0l0 3.859375q0 0.65625 0.296875 0.921875q0.296875 0.265625 1.0 0.265625q0.421875 0 0.90625 -0.15625l0 1.234375q-0.625 0.25 -1.515625 0.25zm4.7167664 0q-1.15625 0 -1.921875 -0.59375q-0.765625 -0.609375 -0.765625 -1.71875q0 -1.125 0.75 -1.765625q0.765625 -0.65625 2.296875 -0.65625l2.421875 0l0 -0.328125q0 -0.5625 -0.171875 -0.875q-0.15625 -0.3125 -0.609375 -0.453125q-0.453125 -0.15625 -1.28125 -0.15625q-1.34375 0 -2.515625 0.40625l0 -1.296874q0.546875 -0.203125 1.28125 -0.328125q0.734375 -0.140625 1.5625 -0.140625q1.6875 0 2.546875 0.6875q0.859375 0.68749905 0.859375 2.187499l0 4.875l-1.484375 0l-0.125 -0.765625q-0.46875 0.46875 -1.15625 0.703125q-0.6875 0.21875 -1.6875 0.21875zm0.46875 -1.25q0.75 0 1.34375 -0.25q0.59375 -0.25 0.96875 -0.71875l0 -1.328125l-2.390625 0q-0.78125 0 -1.125 0.296875q-0.34375 0.28125 -0.34375 0.90625q0 0.578125 0.390625 0.84375q0.390625 0.25 1.15625 0.25zm5.923889 -6.484374l1.59375 0l0.09375 0.87499905q0.546875 -0.35937405 1.296875 -0.64062405q0.75 -0.28125 1.484375 -0.40625l0 1.328124q-0.6875 0.140625 -1.484375 0.40625q-0.796875 0.25 -1.25 0.546875l0 5.46875l-1.734375 0l0 -7.578124zm8.762634 7.734374q-1.203125 0 -1.8125 -0.625q-0.609375 -0.640625 -0.609375 -1.78125l0 -3.96875l-1.109375 0l0 -1.359374l1.109375 0l0 -1.75l1.734375 -0.53125l0 2.28125l2.015625 0l-0.109375 1.359374l-1.90625 0l0 3.859375q0 0.65625 0.296875 0.921875q0.296875 0.265625 1.0 0.265625q0.421875 0 0.90625 -0.15625l0 1.234375q-0.625 0.25 -1.515625 0.25z" fill-rule="nonzero"/><path fill="#4a86e8" d="m144.92651 240.15424l142.78082 0l0 58.98224l-142.78082 0z" fill-rule="evenodd"/><path fill="#000000" fill-opacity="0.0" d="m162.77411 240.15424l0 58.98224m107.08563 -58.98224l0 58.98224" fill-rule="evenodd"/><path fill="#000000" fill-opacity="0.0" d="m144.92651 240.15424l142.78082 0l0 58.98224l-142.78082 0z" fill-rule="evenodd"/><path stroke="#ffffff" stroke-width="3.0" stroke-linejoin="round" stroke-linecap="butt" d="m162.77411 240.15424l0 58.98224m107.08563 -58.98224l0 58.98224" fill-rule="evenodd"/><path stroke="#ffffff" stroke-width="3.0" stroke-linejoin="round" stroke-linecap="butt" d="m144.92651 240.15424l142.78082 0l0 58.98224l-142.78082 0z" fill-rule="evenodd"/><path fill="#ffffff" d="m195.4155 275.66162q-0.953125 0 -1.421875 -0.453125q-0.453125 -0.46875 -0.453125 -1.515625l0 -8.96875l1.734375 0l0 8.8125q0 0.4375 0.15625 0.609375q0.15625 0.15625 0.484375 0.15625q0.390625 0 0.734375 -0.09375l0 1.265625q-0.53125 0.1875 -1.234375 0.1875zm5.51001 0q-3.953125 0 -3.953125 -3.953125q0 -3.953125 3.953125 -3.953125q3.96875 0 3.96875 3.953125q0 3.953125 -3.96875 3.953125zm0 -1.46875q1.203125 0 1.703125 -0.578125q0.5 -0.578125 0.5 -1.90625q0 -1.3125 -0.5 -1.875q-0.5 -0.578125 -1.703125 -0.578125q-1.1875 0 -1.6875 0.578125q-0.5 0.5625 -0.5 1.875q0 1.328125 0.5 1.90625q0.5 0.578125 1.6875 0.578125zm8.896027 1.46875q-3.953125 0 -3.953125 -3.953125q0 -3.953125 3.953125 -3.953125q3.96875 0 3.96875 3.953125q0 3.953125 -3.96875 3.953125zm0 -1.46875q1.203125 0 1.703125 -0.578125q0.5 -0.578125 0.5 -1.90625q0 -1.3125 -0.5 -1.875q-0.5 -0.578125 -1.703125 -0.578125q-1.1875 0 -1.6875 0.578125q-0.5 0.5625 -0.5 1.875q0 1.328125 0.5 1.90625q0.5 0.578125 1.6875 0.578125zm5.6710205 -6.265625l1.5 0l0.09375 0.75q0.53125 -0.46875 1.140625 -0.6875q0.609375 -0.234375 1.421875 -0.234375q1.6875 0 2.5625 0.921875q0.890625 0.90625 0.890625 2.90625q0 2.015625 -0.9375 3.046875q-0.921875 1.03125 -2.578125 1.03125q-1.375 0 -2.359375 -0.640625l0 3.9375l-1.734375 0l0 -11.03125zm3.640625 6.421875q1.125 0 1.65625 -0.6875q0.546875 -0.6875 0.546875 -2.09375q0 -1.34375 -0.5 -1.90625q-0.484375 -0.578125 -1.65625 -0.578125q-1.171875 0 -1.953125 0.8125l0 3.78125q0.765625 0.671875 1.90625 0.671875zm13.419525 2.3125q-1.109375 -0.984375 -1.640625 -2.59375q-0.515625 -1.609375 -0.515625 -3.40625q0 -1.8125 0.515625 -3.40625q0.53125 -1.609375 1.640625 -2.59375l1.96875 0q-2.359375 2.046875 -2.359375 6.0q0 3.953125 2.359375 6.0l-1.96875 0zm2.7312622 0q1.234375 -1.078125 1.796875 -2.578125q0.5625 -1.5 0.5625 -3.421875q0 -3.96875 -2.359375 -6.0l1.984375 0q1.09375 0.984375 1.609375 2.59375q0.53125 1.609375 0.53125 3.40625q0 1.796875 -0.53125 3.40625q-0.515625 1.609375 -1.609375 2.59375l-1.984375 0z" fill-rule="nonzero"/><path fill="#4a86e8" d="m144.92914 60.78478l142.78082 0l0 58.982235l-142.78082 0z" fill-rule="evenodd"/><path fill="#000000" fill-opacity="0.0" d="m162.77673 60.78478l0 58.982235m107.08563 -58.982235l0 58.982235" fill-rule="evenodd"/><path fill="#000000" fill-opacity="0.0" d="m144.92914 60.78478l142.78082 0l0 58.982235l-142.78082 0z" fill-rule="evenodd"/><path stroke="#ffffff" stroke-width="3.0" stroke-linejoin="round" stroke-linecap="butt" d="m162.77673 60.78478l0 58.982235m107.08563 -58.982235l0 58.982235" fill-rule="evenodd"/><path stroke="#ffffff" stroke-width="3.0" stroke-linejoin="round" stroke-linecap="butt" d="m144.92914 60.78478l142.78082 0l0 58.982235l-142.78082 0z" fill-rule="evenodd"/><path fill="#ffffff" d="m191.69875 96.292145q-0.765625 0 -1.484375 -0.109375q-0.71875 -0.09375 -1.1875 -0.265625l0 -1.484375q0.53125 0.21875 1.171875 0.328125q0.65625 0.109375 1.28125 0.109375q0.921875 0 1.28125 -0.15625q0.375 -0.15625 0.375 -0.625q0 -0.421875 -0.34375 -0.609375q-0.328125 -0.203125 -1.25 -0.5l-0.484375 -0.15625q-1.140625 -0.390625 -1.671875 -0.859375q-0.53125 -0.46875 -0.53125 -1.390625q0 -1.078125 0.765625 -1.625q0.765625 -0.5625 2.40625 -0.5625q0.625 0 1.21875 0.109375q0.609375 0.09375 1.03125 0.234375l0 1.453125q-0.421875 -0.171875 -0.96875 -0.265625q-0.53125 -0.09375 -1.015625 -0.09375q-0.875 0 -1.28125 0.15625q-0.390625 0.140625 -0.390625 0.5625q0 0.359375 0.296875 0.546875q0.3125 0.1875 1.203125 0.46875l0.34375 0.109375q0.9375 0.296875 1.4375 0.59375q0.515625 0.296875 0.75 0.71875q0.234375 0.421875 0.234375 1.09375q0 2.21875 -3.1875 2.21875zm8.736511 0q-2.015625 0 -3.09375 -0.984375q-1.0625 -1.0 -1.0625 -2.984375q0 -1.875 0.9375 -2.90625q0.953125 -1.03125 2.8125 -1.03125q1.671875 0 2.5625 0.890625q0.90625 0.875 0.90625 2.34375l0 1.40625l-5.546875 0q0.125 1.09375 0.78125 1.515625q0.65625 0.421875 2.0625 0.421875q0.578125 0 1.171875 -0.109375q0.59375 -0.109375 1.0625 -0.28125l0 1.28125q-1.0 0.4375 -2.59375 0.4375zm1.53125 -4.390625l0 -0.53125q0 -0.8125 -0.453125 -1.234375q-0.453125 -0.4375 -1.4375 -0.4375q-1.1875 0 -1.65625 0.515625q-0.46875 0.515625 -0.46875 1.6875l4.015625 0zm6.1232605 4.390625q-1.203125 0 -1.8125 -0.625q-0.609375 -0.640625 -0.609375 -1.78125l0 -3.96875l-1.109375 0l0 -1.359375l1.109375 0l0 -1.75l1.734375 -0.53125l0 2.28125l2.015625 0l-0.109375 1.359375l-1.90625 0l0 3.859375q0 0.65625 0.296875 0.921875q0.296875 0.265625 1.0 0.265625q0.421875 0 0.90625 -0.15625l0 1.234375q-0.625 0.25 -1.515625 0.25zm5.25177 0q-1.359375 0 -2.09375 -0.75q-0.734375 -0.765625 -0.734375 -2.203125l0 -4.78125l1.75 0l0 4.78125q0 0.84375 0.40625 1.25q0.421875 0.390625 1.296875 0.390625q0.609375 0 1.15625 -0.21875q0.546875 -0.234375 0.96875 -0.65625l0 -5.546875l1.71875 0l0 7.578125l-1.578125 0l-0.078125 -0.78125q-1.203125 0.9375 -2.8125 0.9375zm6.5136414 -7.734375l1.5 0l0.09375 0.75q0.53125 -0.46875 1.140625 -0.6875q0.609375 -0.234375 1.421875 -0.234375q1.6875 0 2.5625 0.921875q0.890625 0.90625 0.890625 2.90625q0 2.015625 -0.9375 3.046875q-0.921875 1.03125 -2.578125 1.03125q-1.375 0 -2.359375 -0.640625l0 3.9375l-1.734375 0l0 -11.03125zm3.640625 6.421875q1.125 0 1.65625 -0.6875q0.546875 -0.6875 0.546875 -2.09375q0 -1.34375 -0.5 -1.90625q-0.484375 -0.578125 -1.65625 -0.578125q-1.171875 0 -1.953125 0.8125l0 3.78125q0.765625 0.671875 1.90625 0.671875zm13.419525 2.3125q-1.109375 -0.984375 -1.640625 -2.59375q-0.515625 -1.609375 -0.515625 -3.40625q0 -1.8125 0.515625 -3.40625q0.53125 -1.609375 1.640625 -2.59375l1.96875 0q-2.359375 2.046875 -2.359375 6.0q0 3.953125 2.359375 6.0l-1.96875 0zm2.7312622 0q1.234375 -1.078125 1.796875 -2.578125q0.5625 -1.5 0.5625 -3.421875q0 -3.96875 -2.359375 -6.0l1.984375 0q1.09375 0.984375 1.609375 2.59375q0.53125 1.609375 0.53125 3.40625q0 1.796875 -0.53125 3.40625q-0.515625 1.609375 -1.609375 2.59375l-1.984375 0z" fill-rule="nonzero"/><path fill="#4a86e8" d="m110.52755 137.55118l211.59055 0l0 84.81889l-211.59055 0z" fill-rule="evenodd"/><path fill="#ffffff" d="m120.6838 163.69563q0 -1.59375 1.265625 -1.984375l-1.734375 -0.421875l0 -1.796875q0.71875 -0.640625 1.78125 -1.046875q1.0625 -0.421875 2.359375 -0.421875q1.96875 0 2.953125 0.8125q0.9999924 0.8125 0.9999924 2.625l0 5.359375l-1.7343674 0l0 -5.40625q0 -1.109375 -0.515625 -1.546875q-0.515625 -0.4375 -1.765625 -0.4375q-0.78125 0 -1.484375 0.234375q-0.6875 0.21875 -1.09375 0.578125l0 0.296875l1.828125 0.453125l0 1.15625q-0.625 0.15625 -0.890625 0.515625q-0.25 0.34375 -0.25 1.046875l0 3.109375l-1.71875 0l0 -3.125zm6.745514 -6.4375q-0.765625 0 -1.28125 -0.5q-0.53125 -0.5 -0.53125 -1.234375q0 -0.75 0.53125 -1.25q0.515625 -0.5 1.28125 -0.5q0.7499924 0 1.2812424 0.5q0.515625 0.5 0.515625 1.25q0 0.734375 -0.515625 1.234375q-0.53125 0.5 -1.2812424 0.5zm0 -1.0q0.3125 0 0.53125 -0.21875q0.20311737 -0.234375 0.20311737 -0.515625q0 -0.3125 -0.20311737 -0.53125q-0.21875 -0.234375 -0.53125 -0.234375q-0.3125 0 -0.53125 0.234375q-0.234375 0.21875 -0.234375 0.53125q0 0.28125 0.234375 0.515625q0.234375 0.21875 0.53125 0.21875zm6.1718674 5.125q0 -0.703125 -0.140625 -1.109375q-0.140625 -0.40625 -0.546875 -0.625q-0.40625 -0.21875 -1.171875 -0.21875q-0.515625 0 -1.125 0.109375q-0.59375 0.109375 -1.078125 0.3125l0 -1.34375q0.5 -0.21875 1.1875 -0.34375q0.6875 -0.140625 1.34375 -0.140625q1.734375 0 2.5 0.75q0.78125 0.75 0.78125 2.390625l0 5.65625l-1.75 0l0 -5.4375zm3.7900085 -3.203125l1.734375 0l0 2.71875l2.5 0q0.90625 0 1.28125 -0.375q0.375 -0.390625 0.375 -1.21875l0 -1.125l1.734375 0l0 1.078125q0 1.8125 -1.296875 2.28125q0.6875 0.234375 0.953125 0.765625q0.265625 0.53125 0.265625 1.328125l0 3.1875l-1.734375 0l0 -2.96875q0 -0.9375 -0.359375 -1.28125q-0.34375 -0.34375 -1.28125 -0.34375l-2.4375 0l0 4.59375l-1.734375 0l0 -8.640625zm12.601517 8.796875q-1.390625 0 -2.171875 -0.8125q-0.765625 -0.828125 -0.765625 -2.3125l0 -5.671875l1.734375 0l0 5.578125q0 0.96875 0.421875 1.40625q0.421875 0.421875 1.359375 0.421875q0.6875 0 1.328125 -0.28125q0.640625 -0.296875 1.0625 -0.75l0 -6.375l1.734375 0l0 8.640625l-1.578125 0l-0.09375 -0.9375q-1.265625 1.09375 -3.03125 1.09375zm9.945648 0q-1.609375 0 -2.578125 -1.078125q-0.953125 -1.078125 -0.953125 -3.265625q0 -2.203125 1.109375 -3.40625q1.125 -1.203125 3.3125 -1.203125q1.40625 0 2.34375 0.484375q0.9375 0.484375 1.375 1.28125q0.4375 0.796875 0.4375 1.75l0 5.28125l-1.75 0l0 -5.203125q0 -1.03125 -0.5625 -1.609375q-0.5625 -0.578125 -1.875 -0.578125q-1.390625 0 -2.046875 0.796875q-0.65625 0.796875 -0.65625 2.40625q0 1.578125 0.53125 2.265625q0.53125 0.6875 1.625 0.6875q0.734375 0 1.09375 -0.125l0 1.328125q-0.53125 0.1875 -1.40625 0.1875zm8.55365 -0.15625q-1.6875 0 -1.6875 -1.65625l0 -3.703125q0 -0.84375 0.328125 -1.40625q0.328125 -0.5625 0.90625 -1.15625q0.359375 -0.359375 0.5 -0.578125q0.15625 -0.21875 0.15625 -0.46875q0 -0.453125 -0.25 -0.625q-0.25 -0.171875 -0.8125 -0.171875q-0.859375 0 -1.734375 0.484375l0 -1.28125q0.46875 -0.28125 1.09375 -0.4375q0.625 -0.15625 1.234375 -0.15625q1.125 0 1.6875 0.484375q0.578125 0.484375 0.578125 1.359375q0 0.546875 -0.234375 0.953125q-0.234375 0.390625 -0.703125 0.890625q-0.5 0.609375 -0.765625 1.046875q-0.25 0.4375 -0.25 1.109375l0 3.21875q0 0.4375 0.125 0.578125q0.140625 0.140625 0.578125 0.140625l0.734375 0l0 1.375l-1.484375 0zm3.23526 -8.640625l1.734375 0l0 2.71875l2.5 0q0.90625 0 1.28125 -0.375q0.375 -0.390625 0.375 -1.21875l0 -1.125l1.734375 0l0 1.078125q0 1.8125 -1.296875 2.28125q0.6875 0.234375 0.953125 0.765625q0.265625 0.53125 0.265625 1.328125l0 3.1875l-1.734375 0l0 -2.96875q0 -0.9375 -0.359375 -1.28125q-0.34375 -0.34375 -1.28125 -0.34375l-2.4375 0l0 4.59375l-1.734375 0l0 -8.640625zm3.9608917 -2.78125l-1.265625 0l0 -1.203125l2.46875 0l0 1.453125l3.453125 0l-0.0625 1.21875l-4.59375 0l0 -1.46875z" fill-rule="nonzero"/><path fill="#ffffff" d="m120.543175 175.52376l4.578125 0q1.71875 0 2.59375 0.9375q0.8749924 0.9375 0.8749924 2.5q0 1.53125 -0.9531174 2.46875q-0.953125 0.921875 -2.578125 0.921875l-2.78125 0l0 3.46875l-1.734375 0l0 -10.296875zm4.203125 5.453125q1.0 0 1.546875 -0.53125q0.546875 -0.546875 0.546875 -1.484375q0 -1.0 -0.515625 -1.53125q-0.515625 -0.546875 -1.5 -0.546875l-2.546875 0l0 4.09375l2.46875 0zm5.836891 -5.765625l1.90625 0l0 1.4375l-1.90625 0l0 -1.4375zm0.140625 4.359375l-1.140625 0l0.15625 -1.328125l2.734375 0l0 7.578125l-1.75 0l0 -6.25zm3.787384 -1.328125l1.59375 0l0.078125 0.796875q0.546875 -0.4375 1.265625 -0.703125q0.71875 -0.265625 1.53125 -0.265625q1.46875 0 2.140625 0.6875q0.671875 0.6875 0.671875 2.15625l0 4.90625l-1.71875 0l0 -4.828125q0 -0.890625 -0.375 -1.234375q-0.359375 -0.359375 -1.34375 -0.359375q-0.59375 0 -1.15625 0.25q-0.5625 0.234375 -0.953125 0.625l0 5.546875l-1.734375 0l0 -7.578125zm14.839905 6.71875q0.390625 -0.890625 1.0625 -1.640625q0.671875 -0.765625 1.6875 -1.640625q0.984375 -0.84375 1.390625 -1.265625q0.421875 -0.4375 0.59375 -0.84375q0.171875 -0.421875 0.171875 -1.03125q0 -0.84375 -0.5 -1.265625q-0.484375 -0.421875 -1.578125 -0.421875q-1.15625 0 -2.4375 0.46875l0 -1.53125q0.5625 -0.1875 1.328125 -0.3125q0.765625 -0.125 1.453125 -0.125q1.6875 0 2.578125 0.84375q0.90625 0.84375 0.90625 2.328125q0 1.015625 -0.484375 1.75q-0.484375 0.734375 -1.515625 1.65625l-0.265625 0.25q-0.90625 0.78125 -1.375 1.25q-0.46875 0.46875 -0.796875 1.046875l4.546875 0l0 1.34375l-6.765625 0l0 -0.859375zm16.095276 0.859375q-1.671875 0 -1.671875 -1.65625l0 -6.984375l1.71875 0l0 6.546875q0 0.359375 0.171875 0.546875q0.171875 0.171875 0.53125 0.171875l0.734375 0l0 1.375l-1.484375 0zm7.1463776 0.15625q-1.875 0 -2.90625 -0.875q-1.03125 -0.890625 -1.03125 -2.640625l0 -5.28125l1.734375 0l0 5.34375q0 1.0625 0.546875 1.5625q0.5625 0.5 1.65625 0.5q1.109375 0 1.671875 -0.5q0.5625 -0.5 0.5625 -1.5625l0 -7.90625l1.71875 0l0 7.84375q0 1.75 -1.03125 2.640625q-1.015625 0.875 -2.921875 0.875zm-2.1889954 -10.0625q-0.9375 0 -1.46875 -0.46875q-0.53125 -0.484375 -0.53125 -1.375q0 -0.890625 0.5625 -1.40625q0.5625 -0.53125 1.578125 -0.53125l3.53125 0l-0.078125 1.03125l-3.28125 0q-0.5625 0 -0.828125 0.21875q-0.265625 0.21875 -0.265625 0.6875q0 0.859375 0.890625 0.859375q0.84375 0 0.84375 -0.671875l0 -0.34375l1.0625 0l0 0.34375q0 0.328125 0.1875 0.484375q0.171875 0.140625 0.546875 0.140625l0.625 0l0 1.0l-0.734375 0q-0.40625 0 -0.71875 -0.109375q-0.3125 -0.125 -0.453125 -0.390625q-0.15625 0.265625 -0.578125 0.40625q-0.421875 0.125 -0.890625 0.125zm11.125015 10.0625q-1.390625 0 -2.171875 -0.8125q-0.765625 -0.828125 -0.765625 -2.3125l0 -5.671875l1.734375 0l0 5.578125q0 0.96875 0.421875 1.40625q0.421875 0.421875 1.359375 0.421875q0.6875 0 1.328125 -0.28125q0.640625 -0.296875 1.0625 -0.75l0 -6.375l1.734375 0l0 8.640625l-1.578125 0l-0.09375 -0.9375q-1.265625 1.09375 -3.03125 1.09375zm12.662537 -10.453125l1.734375 0l0 10.296875l-1.734375 0l0 -10.296875zm3.7600098 0l1.53125 0l5.375 7.578125l0 -7.578125l1.71875 0l0 10.296875l-1.53125 0l-5.359375 -7.5625l0 7.5625l-1.734375 0l0 -10.296875zm10.672028 0l4.578125 0q1.71875 0 2.59375 0.9375q0.875 0.9375 0.875 2.5q0 1.53125 -0.953125 2.46875q-0.953125 0.921875 -2.578125 0.921875l-2.78125 0l0 3.46875l-1.734375 0l0 -10.296875zm4.203125 5.453125q1.0 0 1.546875 -0.53125q0.546875 -0.546875 0.546875 -1.484375q0 -1.0 -0.515625 -1.53125q-0.515625 -0.546875 -1.5 -0.546875l-2.546875 0l0 4.09375l2.46875 0zm9.627518 5.0q-2.140625 0 -3.3125 -1.015625q-1.171875 -1.03125 -1.171875 -2.96875l0 -6.46875l1.75 0l0 6.40625q0 1.28125 0.703125 1.9375q0.703125 0.640625 2.03125 0.640625q1.3125 0 2.015625 -0.640625q0.703125 -0.65625 0.703125 -1.9375l0 -6.40625l1.734375 0l0 6.46875q0 1.9375 -1.171875 2.96875q-1.15625 1.015625 -3.28125 1.015625zm9.065277 -9.09375l-3.296875 0l0 -1.359375l8.3125 0l0 1.359375l-3.28125 0l0 8.9375l-1.734375 0l0 -8.9375zm6.0880127 8.9375l7.265625 0l0 1.234375l-7.265625 0l0 -1.234375zm8.984146 -10.296875l4.578125 0q1.71875 0 2.59375 0.9375q0.875 0.9375 0.875 2.5q0 1.53125 -0.953125 2.46875q-0.953125 0.921875 -2.578125 0.921875l-2.78125 0l0 3.46875l-1.734375 0l0 -10.296875zm4.203125 5.453125q1.0 0 1.546875 -0.53125q0.546875 -0.546875 0.546875 -1.484375q0 -1.0 -0.515625 -1.53125q-0.515625 -0.546875 -1.5 -0.546875l-2.546875 0l0 4.09375l2.46875 0zm9.627533 5.0q-2.140625 0 -3.3125 -1.015625q-1.1718903 -1.03125 -1.1718903 -2.96875l0 -6.46875l1.7500153 0l0 6.40625q0 1.28125 0.703125 1.9375q0.703125 0.640625 2.03125 0.640625q1.3125 0 2.015625 -0.640625q0.703125 -0.65625 0.703125 -1.9375l0 -6.40625l1.734375 0l0 6.46875q0 1.9375 -1.171875 2.96875q-1.15625 1.015625 -3.28125 1.015625zm6.393402 -10.453125l1.734375 0l0 8.953125l5.28125 0l0 1.34375l-7.015625 0l0 -10.296875zm8.400024 0l1.734375 0l0 8.953125l5.28125 0l0 1.34375l-7.015625 0l0 -10.296875zm12.230652 10.453125q-2.140625 0 -3.3125 -1.015625q-1.171875 -1.03125 -1.171875 -2.96875l0 -6.46875l1.75 0l0 6.40625q0 1.28125 0.703125 1.9375q0.703125 0.640625 2.03125 0.640625q1.3125 0 2.015625 -0.640625q0.703125 -0.65625 0.703125 -1.9375l0 -6.40625l1.734375 0l0 6.46875q0 1.9375 -1.171875 2.96875q-1.15625 1.015625 -3.28125 1.015625zm6.393402 -10.453125l4.578125 0q1.71875 0 2.59375 0.9375q0.875 0.9375 0.875 2.5q0 1.53125 -0.953125 2.46875q-0.953125 0.921875 -2.578125 0.921875l-2.78125 0l0 3.46875l-1.734375 0l0 -10.296875zm4.203125 5.453125q1.0 0 1.546875 -0.53125q0.546875 -0.546875 0.546875 -1.484375q0 -1.0 -0.515625 -1.53125q-0.515625 -0.546875 -1.5 -0.546875l-2.546875 0l0 4.09375l2.46875 0z" fill-rule="nonzero"/><path fill="#ffffff" d="m120.543175 194.52376l4.578125 0q1.71875 0 2.59375 0.9375q0.8749924 0.9375 0.8749924 2.5q0 1.53125 -0.9531174 2.46875q-0.953125 0.921875 -2.578125 0.921875l-2.78125 0l0 3.46875l-1.734375 0l0 -10.296875zm4.203125 5.453125q1.0 0 1.546875 -0.53125q0.546875 -0.546875 0.546875 -1.484375q0 -1.0 -0.515625 -1.53125q-0.515625 -0.546875 -1.5 -0.546875l-2.546875 0l0 4.09375l2.46875 0zm5.836891 -5.765625l1.90625 0l0 1.4375l-1.90625 0l0 -1.4375zm0.140625 4.359375l-1.140625 0l0.15625 -1.328125l2.734375 0l0 7.578125l-1.75 0l0 -6.25zm3.787384 -1.328125l1.59375 0l0.078125 0.796875q0.546875 -0.4375 1.265625 -0.703125q0.71875 -0.265625 1.53125 -0.265625q1.46875 0 2.140625 0.6875q0.671875 0.6875 0.671875 2.15625l0 4.90625l-1.71875 0l0 -4.828125q0 -0.890625 -0.375 -1.234375q-0.359375 -0.359375 -1.34375 -0.359375q-0.59375 0 -1.15625 0.25q-0.5625 0.234375 -0.953125 0.625l0 5.546875l-1.734375 0l0 -7.578125zm17.76178 7.734375q-0.71875 0 -1.578125 -0.140625q-0.84375 -0.125 -1.34375 -0.3125l0 -1.53125q1.203125 0.5 2.6875 0.5q1.28125 0 1.875 -0.375q0.59375 -0.375 0.59375 -1.28125q0 -1.578125 -2.125 -1.578125l-1.5625 0l0.140625 -1.296875l1.296875 0q2.03125 0 2.03125 -1.59375q0 -0.78125 -0.546875 -1.140625q-0.53125 -0.375 -1.703125 -0.375q-0.640625 0 -1.3125 0.125q-0.65625 0.125 -1.1875 0.34375l0 -1.484375q0.515625 -0.203125 1.28125 -0.34375q0.765625 -0.140625 1.484375 -0.140625q1.828125 0 2.78125 0.78125q0.953125 0.78125 0.953125 2.078125q0 0.8125 -0.390625 1.46875q-0.390625 0.65625 -1.15625 0.921875q0.890625 0.25 1.328125 0.859375q0.4375 0.59375 0.4375 1.484375q0 1.5 -1.0625 2.265625q-1.0625 0.765625 -2.921875 0.765625zm5.382141 -5.140625l6.109375 0l0 1.359375l-6.109375 0l0 -1.359375zm9.159897 -3.78125l-1.671875 0.28125l0 -1.453125l3.390625 -0.53125l0 10.46875l-1.71875 0l0 -8.765625zm6.354004 8.921875q-0.71875 0 -1.578125 -0.140625q-0.84375 -0.125 -1.34375 -0.3125l0 -1.53125q1.203125 0.5 2.6875 0.5q1.28125 0 1.875 -0.375q0.59375 -0.375 0.59375 -1.28125q0 -1.578125 -2.125 -1.578125l-1.5625 0l0.140625 -1.296875l1.296875 0q2.03125 0 2.03125 -1.59375q0 -0.78125 -0.546875 -1.140625q-0.53125 -0.375 -1.703125 -0.375q-0.640625 0 -1.3125 0.125q-0.65625 0.125 -1.1875 0.34375l0 -1.484375q0.515625 -0.203125 1.28125 -0.34375q0.765625 -0.140625 1.484375 -0.140625q1.828125 0 2.78125 0.78125q0.953125 0.78125 0.953125 2.078125q0 0.8125 -0.390625 1.46875q-0.390625 0.65625 -1.15625 0.921875q0.890625 0.25 1.328125 0.859375q0.4375 0.59375 0.4375 1.484375q0 1.5 -1.0625 2.265625q-1.0625 0.765625 -2.921875 0.765625zm19.253418 -0.15625q-1.671875 0 -1.671875 -1.65625l0 -6.984375l1.71875 0l0 6.546875q0 0.359375 0.171875 0.546875q0.171875 0.171875 0.53125 0.171875l0.734375 0l0 1.375l-1.484375 0zm7.1463776 0.15625q-1.875 0 -2.90625 -0.875q-1.03125 -0.890625 -1.03125 -2.640625l0 -5.28125l1.734375 0l0 5.34375q0 1.0625 0.546875 1.5625q0.5625 0.5 1.65625 0.5q1.109375 0 1.671875 -0.5q0.5625 -0.5 0.5625 -1.5625l0 -7.90625l1.71875 0l0 7.84375q0 1.75 -1.03125 2.640625q-1.015625 0.875 -2.921875 0.875zm-2.1889954 -10.0625q-0.9375 0 -1.46875 -0.46875q-0.53125 -0.484375 -0.53125 -1.375q0 -0.890625 0.5625 -1.40625q0.5625 -0.53125 1.578125 -0.53125l3.53125 0l-0.078125 1.03125l-3.28125 0q-0.5625 0 -0.828125 0.21875q-0.265625 0.21875 -0.265625 0.6875q0 0.859375 0.890625 0.859375q0.84375 0 0.84375 -0.671875l0 -0.34375l1.0625 0l0 0.34375q0 0.328125 0.1875 0.484375q0.171875 0.140625 0.546875 0.140625l0.625 0l0 1.0l-0.734375 0q-0.40625 0 -0.71875 -0.109375q-0.3125 -0.125 -0.453125 -0.390625q-0.15625 0.265625 -0.578125 0.40625q-0.421875 0.125 -0.890625 0.125zm11.125015 10.0625q-1.390625 0 -2.171875 -0.8125q-0.765625 -0.828125 -0.765625 -2.3125l0 -5.671875l1.734375 0l0 5.578125q0 0.96875 0.421875 1.40625q0.421875 0.421875 1.359375 0.421875q0.6875 0 1.328125 -0.28125q0.640625 -0.296875 1.0625 -0.75l0 -6.375l1.734375 0l0 8.640625l-1.578125 0l-0.09375 -0.9375q-1.265625 1.09375 -3.03125 1.09375zm17.209412 0q-2.453125 0 -3.671875 -1.28125q-1.203125 -1.296875 -1.203125 -4.0q0 -2.78125 1.203125 -4.0625q1.203125 -1.28125 3.671875 -1.28125q2.484375 0 3.6875 1.28125q1.203125 1.28125 1.203125 4.0625q0 2.703125 -1.21875 4.0q-1.203125 1.28125 -3.671875 1.28125zm0 -1.46875q1.640625 0 2.390625 -0.890625q0.75 -0.90625 0.75 -2.921875q0 -2.09375 -0.75 -2.96875q-0.734375 -0.875 -2.390625 -0.875q-1.625 0 -2.375 0.875q-0.734375 0.875 -0.734375 2.96875q0 2.0 0.75 2.90625q0.75 0.90625 2.359375 0.90625zm10.995773 1.46875q-2.140625 0 -3.3125 -1.015625q-1.171875 -1.03125 -1.171875 -2.96875l0 -6.46875l1.75 0l0 6.40625q0 1.28125 0.703125 1.9375q0.703125 0.640625 2.03125 0.640625q1.3125 0 2.015625 -0.640625q0.703125 -0.65625 0.703125 -1.9375l0 -6.40625l1.734375 0l0 6.46875q0 1.9375 -1.171875 2.96875q-1.15625 1.015625 -3.28125 1.015625zm9.065277 -9.09375l-3.296875 0l0 -1.359375l8.3125 0l0 1.359375l-3.28125 0l0 8.9375l-1.734375 0l0 -8.9375zm6.4161377 -1.359375l4.578125 0q1.71875 0 2.59375 0.9375q0.875 0.9375 0.875 2.5q0 1.53125 -0.953125 2.46875q-0.953125 0.921875 -2.578125 0.921875l-2.78125 0l0 3.46875l-1.734375 0l0 -10.296875zm4.203125 5.453125q1.0 0 1.546875 -0.53125q0.546875 -0.546875 0.546875 -1.484375q0 -1.0 -0.515625 -1.53125q-0.515625 -0.546875 -1.5 -0.546875l-2.546875 0l0 4.09375l2.46875 0zm9.627533 5.0q-2.140625 0 -3.3125 -1.015625q-1.171875 -1.03125 -1.171875 -2.96875l0 -6.46875l1.75 0l0 6.40625q0 1.28125 0.703125 1.9375q0.703125 0.640625 2.03125 0.640625q1.3125 0 2.015625 -0.640625q0.703125 -0.65625 0.703125 -1.9375l0 -6.40625l1.734375 0l0 6.46875q0 1.9375 -1.171875 2.96875q-1.15625 1.015625 -3.28125 1.015625zm9.065277 -9.09375l-3.296875 0l0 -1.359375l8.3125 0l0 1.359375l-3.28125 0l0 8.9375l-1.734375 0l0 -8.9375z" fill-rule="nonzero"/><path fill="#0f9d58" d="m413.46982 552.6496l14.748016 -58.992126l177.12598 0l-14.747986 58.992126z" fill-rule="evenodd"/><path fill="#ffffff" d="m445.7606 516.38855q0 -1.59375 1.265625 -1.984375l-1.734375 -0.421875l0 -1.796875q0.71875 -0.640625 1.78125 -1.046875q1.0625 -0.421875 2.359375 -0.421875q1.96875 0 2.953125 0.8125q1.0 0.8125 1.0 2.625l0 5.359375l-1.734375 0l0 -5.40625q0 -1.109375 -0.515625 -1.546875q-0.515625 -0.4375 -1.765625 -0.4375q-0.78125 0 -1.484375 0.234375q-0.6875 0.21875 -1.09375 0.578125l0 0.296875l1.828125 0.453125l0 1.15625q-0.625 0.15625 -0.890625 0.515625q-0.25 0.34375 -0.25 1.046875l0 3.109375l-1.71875 0l0 -3.125zm6.745514 -6.4375q-0.765625 0 -1.28125 -0.5q-0.53125 -0.5 -0.53125 -1.234375q0 -0.75 0.53125 -1.25q0.515625 -0.5 1.28125 -0.5q0.75 0 1.28125 0.5q0.515625 0.5 0.515625 1.25q0 0.734375 -0.515625 1.234375q-0.53125 0.5 -1.28125 0.5zm0 -1.0q0.3125 0 0.53125 -0.21875q0.203125 -0.234375 0.203125 -0.515625q0 -0.3125 -0.203125 -0.53125q-0.21875 -0.234375 -0.53125 -0.234375q-0.3125 0 -0.53125 0.234375q-0.234375 0.21875 -0.234375 0.53125q0 0.28125 0.234375 0.515625q0.234375 0.21875 0.53125 0.21875zm6.171875 5.125q0 -0.703125 -0.140625 -1.109375q-0.140625 -0.40625 -0.546875 -0.625q-0.40625 -0.21875 -1.171875 -0.21875q-0.515625 0 -1.125 0.109375q-0.59375 0.109375 -1.078125 0.3125l0 -1.34375q0.5 -0.21875 1.1875 -0.34375q0.6875 -0.140625 1.34375 -0.140625q1.734375 0 2.5 0.75q0.78125 0.75 0.78125 2.390625l0 5.65625l-1.75 0l0 -5.4375zm3.7900085 -3.203125l1.734375 0l0 2.71875l2.5 0q0.90625 0 1.28125 -0.375q0.375 -0.390625 0.375 -1.21875l0 -1.125l1.734375 0l0 1.078125q0 1.8125 -1.296875 2.28125q0.6875 0.234375 0.953125 0.765625q0.265625 0.53125 0.265625 1.328125l0 3.1875l-1.734375 0l0 -2.96875q0 -0.9375 -0.359375 -1.28125q-0.34375 -0.34375 -1.28125 -0.34375l-2.4375 0l0 4.59375l-1.734375 0l0 -8.640625zm12.601501 8.796875q-1.390625 0 -2.171875 -0.8125q-0.765625 -0.828125 -0.765625 -2.3125l0 -5.671875l1.734375 0l0 5.578125q0 0.96875 0.421875 1.40625q0.421875 0.421875 1.359375 0.421875q0.6875 0 1.328125 -0.28125q0.640625 -0.296875 1.0625 -0.75l0 -6.375l1.734375 0l0 8.640625l-1.578125 0l-0.09375 -0.9375q-1.265625 1.09375 -3.03125 1.09375zm9.945648 0q-1.609375 0 -2.578125 -1.078125q-0.953125 -1.078125 -0.953125 -3.265625q0 -2.203125 1.109375 -3.40625q1.125 -1.203125 3.3125 -1.203125q1.40625 0 2.34375 0.484375q0.9375 0.484375 1.375 1.28125q0.4375 0.796875 0.4375 1.75l0 5.28125l-1.75 0l0 -5.203125q0 -1.03125 -0.5625 -1.609375q-0.5625 -0.578125 -1.875 -0.578125q-1.390625 0 -2.046875 0.796875q-0.65625 0.796875 -0.65625 2.40625q0 1.578125 0.53125 2.265625q0.53125 0.6875 1.625 0.6875q0.734375 0 1.09375 -0.125l0 1.328125q-0.53125 0.1875 -1.40625 0.1875zm8.55365 -0.15625q-1.6875 0 -1.6875 -1.65625l0 -3.703125q0 -0.84375 0.328125 -1.40625q0.328125 -0.5625 0.90625 -1.15625q0.359375 -0.359375 0.5 -0.578125q0.15625 -0.21875 0.15625 -0.46875q0 -0.453125 -0.25 -0.625q-0.25 -0.171875 -0.8125 -0.171875q-0.859375 0 -1.734375 0.484375l0 -1.28125q0.46875 -0.28125 1.09375 -0.4375q0.625 -0.15625 1.234375 -0.15625q1.125 0 1.6875 0.484375q0.578125 0.484375 0.578125 1.359375q0 0.546875 -0.234375 0.953125q-0.234375 0.390625 -0.703125 0.890625q-0.5 0.609375 -0.765625 1.046875q-0.25 0.4375 -0.25 1.109375l0 3.21875q0 0.4375 0.125 0.578125q0.140625 0.140625 0.578125 0.140625l0.734375 0l0 1.375l-1.484375 0zm3.23526 -8.640625l1.734375 0l0 2.71875l2.5 0q0.90625 0 1.28125 -0.375q0.375 -0.390625 0.375 -1.21875l0 -1.125l1.734375 0l0 1.078125q0 1.8125 -1.296875 2.28125q0.6875 0.234375 0.953125 0.765625q0.265625 0.53125 0.265625 1.328125l0 3.1875l-1.734375 0l0 -2.96875q0 -0.9375 -0.359375 -1.28125q-0.34375 -0.34375 -1.28125 -0.34375l-2.4375 0l0 4.59375l-1.734375 0l0 -8.640625zm3.960907 -2.78125l-1.265625 0l0 -1.203125l2.46875 0l0 1.453125l3.453125 0l-0.0625 1.21875l-4.59375 0l0 -1.46875zm11.623108 1.125l4.578125 0q1.71875 0 2.59375 0.9375q0.875 0.9375 0.875 2.5q0 1.53125 -0.953125 2.46875q-0.953125 0.921875 -2.578125 0.921875l-2.78125 0l0 3.46875l-1.734375 0l0 -10.296875zm4.203125 5.453125q1.0 0 1.546875 -0.53125q0.546875 -0.546875 0.546875 -1.484375q0 -1.0 -0.515625 -1.53125q-0.515625 -0.546875 -1.5 -0.546875l-2.546875 0l0 4.09375l2.46875 0zm5.836914 -5.765625l1.90625 0l0 1.4375l-1.90625 0l0 -1.4375zm0.140625 4.359375l-1.140625 0l0.15625 -1.328125l2.734375 0l0 7.578125l-1.75 0l0 -6.25zm3.7874146 -1.328125l1.59375 0l0.078125 0.796875q0.546875 -0.4375 1.265625 -0.703125q0.71875 -0.265625 1.53125 -0.265625q1.46875 0 2.140625 0.6875q0.671875 0.6875 0.671875 2.15625l0 4.90625l-1.71875 0l0 -4.828125q0 -0.890625 -0.375 -1.234375q-0.359375 -0.359375 -1.34375 -0.359375q-0.59375 0 -1.15625 0.25q-0.5625 0.234375 -0.953125 0.625l0 5.546875l-1.734375 0l0 -7.578125zm14.839905 6.71875q0.390625 -0.890625 1.0625 -1.640625q0.671875 -0.765625 1.6875 -1.640625q0.984375 -0.84375 1.390625 -1.265625q0.421875 -0.4375 0.59375 -0.84375q0.171875 -0.421875 0.171875 -1.03125q0 -0.84375 -0.5 -1.265625q-0.484375 -0.421875 -1.578125 -0.421875q-1.15625 0 -2.4375 0.46875l0 -1.53125q0.5625 -0.1875 1.328125 -0.3125q0.765625 -0.125 1.453125 -0.125q1.6875 0 2.578125 0.84375q0.90625 0.84375 0.90625 2.328125q0 1.015625 -0.484375 1.75q-0.484375 0.734375 -1.515625 1.65625l-0.265625 0.25q-0.90625 0.78125 -1.375 1.25q-0.46875 0.46875 -0.796875 1.046875l4.546875 0l0 1.34375l-6.765625 0l0 -0.859375zm8.143982 -4.125l6.109375 0l0 1.359375l-6.109375 0l0 -1.359375zm9.159912 -3.78125l-1.671875 0.28125l0 -1.453125l3.390625 -0.53125l0 10.46875l-1.71875 0l0 -8.765625zm6.354004 8.921875q-0.71875 0 -1.578125 -0.140625q-0.84375 -0.125 -1.34375 -0.3125l0 -1.53125q1.203125 0.5 2.6875 0.5q1.28125 0 1.875 -0.375q0.59375 -0.375 0.59375 -1.28125q0 -1.578125 -2.125 -1.578125l-1.5625 0l0.140625 -1.296875l1.296875 0q2.03125 0 2.03125 -1.59375q0 -0.78125 -0.546875 -1.140625q-0.53125 -0.375 -1.703125 -0.375q-0.640625 0 -1.3125 0.125q-0.65625 0.125 -1.1875 0.34375l0 -1.484375q0.515625 -0.203125 1.28125 -0.34375q0.765625 -0.140625 1.484375 -0.140625q1.828125 0 2.78125 0.78125q0.953125 0.78125 0.953125 2.078125q0 0.8125 -0.390625 1.46875q-0.390625 0.65625 -1.15625 0.921875q0.890625 0.25 1.328125 0.859375q0.4375 0.59375 0.4375 1.484375q0 1.5 -1.0625 2.265625q-1.0625 0.765625 -2.921875 0.765625z" fill-rule="nonzero"/><path fill="#ffffff" d="m476.92316 538.51355q-1.671875 0 -1.671875 -1.65625l0 -6.984375l1.71875 0l0 6.546875q0 0.359375 0.171875 0.546875q0.171875 0.171875 0.53125 0.171875l0.734375 0l0 1.375l-1.484375 0zm7.1463623 0.15625q-1.875 0 -2.90625 -0.875q-1.03125 -0.890625 -1.03125 -2.640625l0 -5.28125l1.734375 0l0 5.34375q0 1.0625 0.546875 1.5625q0.5625 0.5 1.65625 0.5q1.109375 0 1.671875 -0.5q0.5625 -0.5 0.5625 -1.5625l0 -7.90625l1.71875 0l0 7.84375q0 1.75 -1.03125 2.640625q-1.015625 0.875 -2.921875 0.875zm-2.1889954 -10.0625q-0.9375 0 -1.46875 -0.46875q-0.53125 -0.484375 -0.53125 -1.375q0 -0.890625 0.5625 -1.40625q0.5625 -0.53125 1.578125 -0.53125l3.53125 0l-0.078125 1.03125l-3.28125 0q-0.5625 0 -0.828125 0.21875q-0.265625 0.21875 -0.265625 0.6875q0 0.859375 0.890625 0.859375q0.84375 0 0.84375 -0.671875l0 -0.34375l1.0625 0l0 0.34375q0 0.328125 0.1875 0.484375q0.171875 0.140625 0.546875 0.140625l0.625 0l0 1.0l-0.734375 0q-0.40625 0 -0.71875 -0.109375q-0.3125 -0.125 -0.453125 -0.390625q-0.15625 0.265625 -0.578125 0.40625q-0.421875 0.125 -0.890625 0.125zm11.1250305 10.0625q-1.390625 0 -2.171875 -0.8125q-0.765625 -0.828125 -0.765625 -2.3125l0 -5.671875l1.734375 0l0 5.578125q0 0.96875 0.421875 1.40625q0.421875 0.421875 1.359375 0.421875q0.6875 0 1.328125 -0.28125q0.640625 -0.296875 1.0625 -0.75l0 -6.375l1.734375 0l0 8.640625l-1.578125 0l-0.09375 -0.9375q-1.265625 1.09375 -3.03125 1.09375zm16.865662 0.125q-2.375 0 -3.453125 -1.359375q-1.078125 -1.359375 -1.078125 -3.953125q0 -2.6875 1.046875 -4.0625q1.0625 -1.375 3.484375 -1.375q2.390625 0 3.453125 1.375q1.0625 1.375 1.0625 4.0625q0 2.59375 -1.09375 3.953125q-1.078125 1.359375 -3.421875 1.359375zm0 -1.484375q1.46875 0 2.109375 -0.96875q0.640625 -0.984375 0.640625 -2.859375q0 -2.0 -0.625 -2.96875q-0.625 -0.96875 -2.125 -0.96875q-1.515625 0 -2.140625 0.96875q-0.625 0.96875 -0.625 2.96875q0 1.890625 0.640625 2.859375q0.640625 0.96875 2.125 0.96875z" fill-rule="nonzero"/><path fill="#000000" fill-opacity="0.0" d="m216.32199 34.24252l0 26.551182" fill-rule="evenodd"/><path stroke="#000000" stroke-width="1.0" stroke-linejoin="round" stroke-linecap="butt" d="m216.32199 34.24252l0 20.551182" fill-rule="evenodd"/><path fill="#000000" stroke="#000000" stroke-width="1.0" stroke-linecap="butt" d="m214.67026 54.7937l1.6517334 4.5380974l1.6517334 -4.5380974z" fill-rule="evenodd"/><path fill="#000000" fill-opacity="0.0" d="m216.31955 119.76701l0 17.795273" fill-rule="evenodd"/><path stroke="#000000" stroke-width="1.0" stroke-linejoin="round" stroke-linecap="butt" d="m216.31955 119.76702l0 11.79528" fill-rule="evenodd"/><path fill="#000000" stroke="#000000" stroke-width="1.0" stroke-linecap="butt" d="m214.66782 131.5623l1.6517334 4.538086l1.6517334 -4.538086z" fill-rule="evenodd"/><path fill="#000000" fill-opacity="0.0" d="m216.32283 222.37007l0 17.795288" fill-rule="evenodd"/><path stroke="#000000" stroke-width="1.0" stroke-linejoin="round" stroke-linecap="butt" d="m216.32283 222.37007l0 11.795288" fill-rule="evenodd"/><path fill="#000000" stroke="#000000" stroke-width="1.0" stroke-linecap="butt" d="m214.6711 234.16536l1.6517334 4.538086l1.6517334 -4.538086z" fill-rule="evenodd"/><path fill="#cc0000" d="m483.52805 663.1365l51.75949 0l0 0c6.7806396 0 12.277405 7.6654663 12.277405 17.121277c0 9.455811 -5.496765 17.121277 -12.277405 17.121277l-51.75949 0l0 0c-6.780609 0 -12.277405 -7.6654663 -12.277405 -17.121277c0 -9.455811 5.4967957 -17.121277 12.277405 -17.121277z" fill-rule="evenodd"/><path fill="#ffffff" d="m500.14044 686.274q-0.34375 0 -0.75 -0.0625q-0.390625 -0.046875 -0.625 -0.140625l-1.28125 -3.40625l-1.109375 0l0.078125 -1.3125l2.125 0l1.328125 3.546875q1.140625 0.046875 1.828125 -0.71875q0.6875 -0.765625 0.6875 -2.46875q0 -1.125 -0.296875 -1.765625q-0.296875 -0.65625 -0.96875 -0.9375q-0.671875 -0.28125 -1.859375 -0.28125q-1.46875 0 -2.734375 0.421875l0 -1.34375q1.515625 -0.484375 3.203125 -0.484375q2.234375 0 3.28125 1.109375q1.0625 1.109375 1.0625 3.28125q0 1.453125 -0.546875 2.484375q-0.53125 1.03125 -1.4375 1.5625q-0.90625 0.515625 -1.984375 0.515625zm9.604034 0q-1.875 0 -2.90625 -0.875q-1.03125 -0.890625 -1.03125 -2.640625l0 -5.28125l1.734375 0l0 5.34375q0 1.0625 0.546875 1.5625q0.5625 0.5 1.65625 0.5q1.109375 0 1.671875 -0.5q0.5625 -0.5 0.5625 -1.5625l0 -5.34375l1.7187195 0l0 5.28125q0 1.75 -1.03125 2.640625q-1.0155945 0.875 -2.9218445 0.875z" fill-rule="nonzero"/><path fill="#f4b400" d="m93.37533 436.4685l122.94225 -42.409454l122.942276 42.409454l-122.942276 42.409454z" fill-rule="evenodd"/><path fill="#ffffff" d="m165.86208 431.71912l1.90625 0l0 1.4375l-1.90625 0l0 -1.4375zm0.140625 4.359375l-1.140625 0l0.15625 -1.328125l2.734375 0l0 7.578125l-1.75 0l0 -6.25zm4.240509 0.03125l-1.09375 0l0 -1.359375l1.09375 0l0 -0.9375q0 -1.140625 0.640625 -1.828125q0.65625 -0.703125 1.875 -0.703125q0.8125 0 1.546875 0.28125l0 1.25q-0.484375 -0.1875 -1.0 -0.1875q-0.75 0 -1.046875 0.265625q-0.28125 0.265625 -0.28125 0.9375l0 0.921875l1.984375 0l-0.078125 1.359375l-1.90625 0l0 6.21875l-1.734375 0l0 -6.21875zm6.975006 7.375q-1.109375 -0.984375 -1.640625 -2.59375q-0.515625 -1.609375 -0.515625 -3.40625q0 -1.8125 0.515625 -3.40625q0.53125 -1.609375 1.640625 -2.59375l1.96875 0q-2.359375 2.046875 -2.359375 6.0q0 3.953125 2.359375 6.0l-1.96875 0zm3.5125122 -4.28125q0 -1.59375 1.265625 -1.984375l-1.734375 -0.421875l0 -1.796875q0.71875 -0.640625 1.78125 -1.046875q1.0625 -0.421875 2.359375 -0.421875q1.96875 0 2.953125 0.8125q1.0 0.8125 1.0 2.625l0 5.359375l-1.734375 0l0 -5.40625q0 -1.109375 -0.515625 -1.546875q-0.515625 -0.4375 -1.765625 -0.4375q-0.78125 0 -1.484375 0.234375q-0.6875 0.21875 -1.09375 0.578125l0 0.296875l1.828125 0.453125l0 1.15625q-0.625 0.15625 -0.890625 0.515625q-0.25 0.34375 -0.25 1.046875l0 3.109375l-1.71875 0l0 -3.125zm12.870514 3.28125q-1.609375 0 -2.578125 -1.078125q-0.953125 -1.078125 -0.953125 -3.265625q0 -2.203125 1.109375 -3.40625q1.125 -1.203125 3.3125 -1.203125q1.40625 0 2.34375 0.484375q0.9375 0.484375 1.375 1.28125q0.4375 0.796875 0.4375 1.75l0 5.28125l-1.75 0l0 -5.203125q0 -1.03125 -0.5625 -1.609375q-0.5625 -0.578125 -1.875 -0.578125q-1.390625 0 -2.046875 0.796875q-0.65625 0.796875 -0.65625 2.40625q0 1.578125 0.53125 2.265625q0.53125 0.6875 1.625 0.6875q0.734375 0 1.09375 -0.125l0 1.328125q-0.53125 0.1875 -1.40625 0.1875zm11.0224 0q-1.875 0 -2.90625 -0.875q-1.03125 -0.890625 -1.03125 -2.640625l0 -5.28125l1.734375 0l0 5.34375q0 1.0625 0.546875 1.5625q0.5625 0.5 1.65625 0.5q1.109375 0 1.671875 -0.5q0.5625 -0.5 0.5625 -1.5625l0 -7.90625l1.71875 0l0 7.84375q0 1.75 -1.03125 2.640625q-1.015625 0.875 -2.921875 0.875zm2.4672546 1.890625l-1.0 0l0.078125 -1.140625l2.40625 0l0 3.125l-1.484375 0l0 -1.984375zm-3.578125 -14.625l1.734375 0l0 2.625l-1.734375 0l0 -2.625zm11.812515 12.734375q-0.953125 0 -1.6875 -0.28125q-0.71875 -0.28125 -1.34375 -0.8125l-0.09375 0.9375l-1.578125 0l0 -8.640625l1.734375 0l0 6.375q0.453125 0.453125 1.078125 0.75q0.625 0.28125 1.3125 0.28125q0.90625 0 1.34375 -0.421875q0.4375 -0.4375 0.4375 -1.40625l0 -5.578125l1.734375 0l0 5.671875q0 1.484375 -0.78125 2.3125q-0.765625 0.8125 -2.15625 0.8125zm4.336273 1.0q1.234375 -1.078125 1.796875 -2.578125q0.5625 -1.5 0.5625 -3.421875q0 -3.96875 -2.359375 -6.0l1.984375 0q1.09375 0.984375 1.609375 2.59375q0.53125 1.609375 0.53125 3.40625q0 1.796875 -0.53125 3.40625q-0.515625 1.609375 -1.609375 2.59375l-1.984375 0zm5.512512 -7.3125l6.171875 0l0 1.234375l-6.171875 0l0 -1.234375zm0 2.4375l6.171875 0l0 1.25l-6.171875 0l0 -1.25zm7.5680084 -2.4375l6.171875 0l0 1.234375l-6.171875 0l0 -1.234375zm0 2.4375l6.171875 0l0 1.25l-6.171875 0l0 -1.25zm15.159897 -5.046875l-1.671875 0.28125l0 -1.453125l3.390625 -0.53125l0 10.46875l-1.71875 0l0 -8.765625zm6.354004 8.921875q-0.71875 0 -1.578125 -0.140625q-0.84375 -0.125 -1.34375 -0.3125l0 -1.53125q1.203125 0.5 2.6875 0.5q1.28125 0 1.875 -0.375q0.59375 -0.375 0.59375 -1.28125q0 -1.578125 -2.125 -1.578125l-1.5625 0l0.140625 -1.296875l1.296875 0q2.03125 0 2.03125 -1.59375q0 -0.78125 -0.546875 -1.140625q-0.53125 -0.375 -1.703125 -0.375q-0.640625 0 -1.3125 0.125q-0.65625 0.125 -1.1875 0.34375l0 -1.484375q0.515625 -0.203125 1.28125 -0.34375q0.765625 -0.140625 1.484375 -0.140625q1.828125 0 2.78125 0.78125q0.953125 0.78125 0.953125 2.078125q0 0.8125 -0.390625 1.46875q-0.390625 0.65625 -1.15625 0.921875q0.890625 0.25 1.328125 0.859375q0.4375 0.59375 0.4375 1.484375q0 1.5 -1.0625 2.265625q-1.0625 0.765625 -2.921875 0.765625zm5.069641 1.0q1.234375 -1.078125 1.796875 -2.578125q0.5625 -1.5 0.5625 -3.421875q0 -3.96875 -2.359375 -6.0l1.984375 0q1.09375 0.984375 1.609375 2.59375q0.53125 1.609375 0.53125 3.40625q0 1.796875 -0.53125 3.40625q-0.515625 1.609375 -1.609375 2.59375l-1.984375 0z" fill-rule="nonzero"/><path fill="#4a86e8" d="m139.331 322.3727l153.98425 0l0 58.992126l-153.98425 0z" fill-rule="evenodd"/><path fill="#ffffff" d="m163.62813 357.885q-1.875 0 -2.90625 -0.875q-1.03125 -0.890625 -1.03125 -2.640625l0 -5.28125l1.734375 0l0 5.34375q0 1.0625 0.546875 1.5625q0.5625 0.5 1.65625 0.5q1.109375 0 1.671875 -0.5q0.5625 -0.5 0.5625 -1.5625l0 -7.90625l1.71875 0l0 7.84375q0 1.75 -1.03125 2.640625q-1.015625 0.875 -2.921875 0.875zm8.826645 0q-0.875 0 -1.671875 -0.109375q-0.78125 -0.109375 -1.28125 -0.3125l0 -1.46875q0.59375 0.25 1.296875 0.375q0.703125 0.125 1.328125 0.125q1.171875 0 1.671875 -0.203125q0.5 -0.203125 0.5 -0.828125q0 -0.390625 -0.203125 -0.625q-0.1875 -0.234375 -0.53125 -0.375q-0.328125 -0.140625 -1.03125 -0.359375l-0.625 -0.21875q-1.3125 -0.4375 -1.96875 -0.96875q-0.640625 -0.546875 -0.640625 -1.53125q0 -1.15625 0.875 -1.796875q0.890625 -0.65625 2.59375 -0.65625q0.703125 0 1.421875 0.109375q0.71875 0.109375 1.21875 0.265625l0 1.453125q-0.515625 -0.203125 -1.171875 -0.3125q-0.640625 -0.109375 -1.203125 -0.109375q-1.015625 0 -1.53125 0.21875q-0.515625 0.21875 -0.515625 0.78125q0 0.34375 0.203125 0.578125q0.21875 0.21875 0.578125 0.375q0.375 0.140625 1.140625 0.390625l0.46875 0.15625q1.375 0.453125 1.984375 1.015625q0.609375 0.546875 0.609375 1.609375q0 1.21875 -0.9375 1.828125q-0.921875 0.59375 -2.578125 0.59375zm4.9077606 -7.53125l1.484375 0l0 0.78125l2.359375 0l-0.0625 1.296875l-3.78125 0l0 -2.078125zm0 4.34375l1.484375 0l0 0.8125l2.359375 0l-0.0625 1.28125l-3.78125 0l0 -2.09375zm5.6527557 -0.09375q0 -1.59375 1.265625 -1.984375l-1.734375 -0.421875l0 -1.796875q0.71875 -0.640625 1.78125 -1.046875q1.0625 -0.421875 2.359375 -0.421875q1.96875 0 2.953125 0.8125q1.0 0.8125 1.0 2.625l0 5.359375l-1.734375 0l0 -5.40625q0 -1.109375 -0.515625 -1.546875q-0.515625 -0.4375 -1.765625 -0.4375q-0.78125 0 -1.484375 0.234375q-0.6875 0.21875 -1.09375 0.578125l0 0.296875l1.828125 0.453125l0 1.15625q-0.625 0.15625 -0.890625 0.515625q-0.25 0.34375 -0.25 1.046875l0 3.109375l-1.71875 0l0 -3.125zm12.917389 -2.3125q0 -0.703125 -0.140625 -1.109375q-0.140625 -0.40625 -0.546875 -0.625q-0.40625 -0.21875 -1.171875 -0.21875q-0.515625 0 -1.125 0.109375q-0.59375 0.109375 -1.078125 0.3125l0 -1.34375q0.5 -0.21875 1.1875 -0.34375q0.6875 -0.140625 1.34375 -0.140625q1.734375 0 2.5 0.75q0.78125 0.75 0.78125 2.390625l0 5.65625l-1.75 0l0 -5.4375zm3.7900085 -0.03125q0 -1.609375 0.953125 -2.46875q0.96875 -0.859375 2.953125 -0.859375q0.796875 0 1.515625 0.15625l3.171875 0l-0.078125 1.359375l-1.1875 0q0.265625 0.375 0.359375 0.8125q0.109375 0.421875 0.109375 1.0l0 5.46875l-1.734375 0l0 -5.625q0 -1.765625 -2.15625 -1.765625q-1.078125 0 -1.625 0.4375q-0.546875 0.421875 -0.546875 1.328125l0 1.765625q0.703125 -0.578125 1.6875 -0.578125l1.03125 0l0.0625 1.390625l-1.140625 0q-0.984375 0 -1.640625 0.546875l0 2.5l-1.734375 0l0 -5.46875zm10.176025 0q0 -1.609375 0.953125 -2.46875q0.96875 -0.859375 2.953125 -0.859375q1.984375 0 2.9375 0.859375q0.953125 0.859375 0.953125 2.46875l0 5.46875l-1.734375 0l0 -5.625q0 -1.765625 -2.15625 -1.765625q-1.078125 0 -1.625 0.4375q-0.546875 0.421875 -0.546875 1.328125l0 1.765625q0.703125 -0.578125 1.6875 -0.578125l1.03125 0l0.0625 1.390625l-1.140625 0q-0.984375 0 -1.640625 0.546875l0 2.5l-1.734375 0l0 -5.46875zm6.058777 -7.125l1.734375 0l0 2.625l-1.734375 0l0 -2.625zm7.03125 7.15625q0 -0.703125 -0.140625 -1.109375q-0.140625 -0.40625 -0.546875 -0.625q-0.40625 -0.21875 -1.171875 -0.21875q-0.515625 0 -1.125 0.109375q-0.59375 0.109375 -1.078125 0.3125l0 -1.34375q0.5 -0.21875 1.1875 -0.34375q0.6875 -0.140625 1.34375 -0.140625q1.734375 0 2.5 0.75q0.78125 0.75 0.78125 2.390625l0 5.65625l-1.75 0l0 -5.4375zm12.272522 1.578125l-2.78125 -3.71875l1.875 0l1.859375 2.515625l1.859375 -2.515625l1.859375 0l-2.765625 3.71875l2.890625 3.859375l-1.890625 0l-1.953125 -2.640625l-1.953125 2.640625l-1.890625 0l2.890625 -3.859375zm12.10141 -2.296875l6.171875 0l0 1.234375l-6.171875 0l0 -1.234375zm0 2.4375l6.171875 0l0 1.25l-6.171875 0l0 -1.25zm18.019287 4.0q-2.375 0 -3.453125 -1.359375q-1.078125 -1.359375 -1.078125 -3.953125q0 -2.6875 1.046875 -4.0625q1.0625 -1.375 3.484375 -1.375q2.390625 0 3.453125 1.375q1.0625 1.375 1.0625 4.0625q0 2.59375 -1.09375 3.953125q-1.078125 1.359375 -3.421875 1.359375zm0 -1.484375q1.46875 0 2.109375 -0.96875q0.640625 -0.984375 0.640625 -2.859375q0 -2.0 -0.625 -2.96875q-0.625 -0.96875 -2.125 -0.96875q-1.515625 0 -2.140625 0.96875q-0.625 0.96875 -0.625 2.96875q0 1.890625 0.640625 2.859375q0.640625 0.96875 2.125 0.96875zm6.4160156 -5.390625l1.453125 0l0 1.375l-1.453125 0l0 -1.375zm-0.046875 5.359375l1.515625 0l-0.734375 3.03125l-1.265625 0l0.484375 -3.03125z" fill-rule="nonzero"/><path fill="#4a86e8" d="m445.84778 576.9764l127.1181 0l0 58.992126l-127.1181 0z" fill-rule="evenodd"/><path fill="#ffffff" d="m476.41937 612.4887q-1.640625 0 -2.546875 -0.859375q-0.90625 -0.875 -0.90625 -2.84375q0 -1.328125 0.453125 -2.265625q0.46875 -0.953125 1.28125 -1.4375q0.828125 -0.5 1.875 -0.5q0.671875 0 1.21875 0.171875q0.546875 0.15625 1.046875 0.484375l0 -3.6875l1.734375 0l0 10.78125l-1.484375 0l-0.109375 -0.75q-0.53125 0.484375 -1.140625 0.703125q-0.609375 0.203125 -1.421875 0.203125zm0.46875 -1.3125q1.171875 0 1.953125 -0.796875l0 -3.796875q-0.75 -0.671875 -1.890625 -0.671875q-1.109375 0 -1.671875 0.75q-0.546875 0.734375 -0.546875 2.140625q0 1.328125 0.5 1.859375q0.5 0.515625 1.65625 0.515625zm9.546387 1.3125q-2.015625 0 -3.09375 -0.984375q-1.0625 -1.0 -1.0625 -2.984375q0 -1.875 0.9375 -2.90625q0.953125 -1.03125 2.8125 -1.03125q1.671875 0 2.5625 0.890625q0.90625 0.875 0.90625 2.34375l0 1.40625l-5.546875 0q0.125 1.09375 0.78125 1.515625q0.65625 0.421875 2.0625 0.421875q0.578125 0 1.171875 -0.109375q0.59375 -0.109375 1.0625 -0.28125l0 1.28125q-1.0 0.4375 -2.59375 0.4375zm1.53125 -4.390625l0 -0.53125q0 -0.8125 -0.453125 -1.234375q-0.453125 -0.4375 -1.4375 -0.4375q-1.1875 0 -1.65625 0.515625q-0.46875 0.515625 -0.46875 1.6875l4.015625 0zm5.1076355 4.390625q-0.953125 0 -1.421875 -0.453125q-0.453125 -0.46875 -0.453125 -1.515625l0 -8.96875l1.734375 0l0 8.8125q0 0.4375 0.15625 0.609375q0.15625 0.15625 0.484375 0.15625q0.390625 0 0.734375 -0.09375l0 1.265625q-0.53125 0.1875 -1.234375 0.1875zm4.244385 0q-1.15625 0 -1.921875 -0.59375q-0.765625 -0.609375 -0.765625 -1.71875q0 -1.125 0.75 -1.765625q0.765625 -0.65625 2.296875 -0.65625l2.421875 0l0 -0.328125q0 -0.5625 -0.171875 -0.875q-0.15625 -0.3125 -0.609375 -0.453125q-0.453125 -0.15625 -1.28125 -0.15625q-1.34375 0 -2.515625 0.40625l0 -1.296875q0.546875 -0.203125 1.28125 -0.328125q0.734375 -0.140625 1.5625 -0.140625q1.6875 0 2.546875 0.6875q0.859375 0.6875 0.859375 2.1875l0 4.875l-1.484375 0l-0.125 -0.765625q-0.46875 0.46875 -1.15625 0.703125q-0.6875 0.21875 -1.6875 0.21875zm0.46875 -1.25q0.75 0 1.34375 -0.25q0.59375 -0.25 0.96875 -0.71875l0 -1.328125l-2.390625 0q-0.78125 0 -1.125 0.296875q-0.34375 0.28125 -0.34375 0.90625q0 0.578125 0.390625 0.84375q0.390625 0.25 1.15625 0.25zm6.907013 3.90625q-0.859375 0 -1.46875 -0.21875l0 -1.296875q0.453125 0.15625 0.96875 0.15625q0.484375 0 0.78125 -0.15625q0.3125 -0.140625 0.53125 -0.46875q0.234375 -0.3125 0.53125 -0.921875l-3.375 -7.484375l1.8125 0l2.421875 5.625l2.46875 -5.625l1.796875 0l-3.09375 7.140625q-0.6875 1.640625 -1.4375 2.4375q-0.734375 0.8125 -1.9375 0.8125zm16.363037 -2.65625q-0.75 0 -1.546875 -0.125q-0.796875 -0.109375 -1.3125 -0.328125l0 -1.53125q0.546875 0.25 1.25 0.375q0.71875 0.125 1.390625 0.125q1.25 0 1.828125 -0.421875q0.578125 -0.4375 0.578125 -1.40625q0 -0.921875 -0.453125 -1.328125q-0.4375 -0.421875 -1.59375 -0.421875l-3.046875 0l0 -1.0625l0.265625 -4.328125l5.859375 0l-0.140625 1.34375l-4.234375 0l-0.1875 2.703125l1.75 0q1.828125 0 2.671875 0.78125q0.859375 0.765625 0.859375 2.34375q0 1.5625 -1.015625 2.421875q-1.0 0.859375 -2.921875 0.859375zm9.865051 0.125q-2.375 0 -3.453125 -1.359375q-1.078125 -1.359375 -1.078125 -3.953125q0 -2.6875 1.046875 -4.0625q1.0625 -1.375 3.484375 -1.375q2.390625 0 3.453125 1.375q1.0625 1.375 1.0625 4.0625q0 2.59375 -1.09375 3.953125q-1.078125 1.359375 -3.421875 1.359375zm0 -1.484375q1.46875 0 2.109375 -0.96875q0.640625 -0.984375 0.640625 -2.859375q0 -2.0 -0.625 -2.96875q-0.625 -0.96875 -2.125 -0.96875q-1.515625 0 -2.140625 0.96875q-0.625 0.96875 -0.625 2.96875q0 1.890625 0.640625 2.859375q0.640625 0.96875 2.125 0.96875zm10.416016 1.484375q-2.375 0 -3.453125 -1.359375q-1.078125 -1.359375 -1.078125 -3.953125q0 -2.6875 1.046875 -4.0625q1.0625 -1.375 3.484375 -1.375q2.390625 0 3.453125 1.375q1.0625 1.375 1.0625 4.0625q0 2.59375 -1.09375 3.953125q-1.078125 1.359375 -3.421875 1.359375zm0 -1.484375q1.46875 0 2.109375 -0.96875q0.640625 -0.984375 0.640625 -2.859375q0 -2.0 -0.625 -2.96875q-0.625 -0.96875 -2.125 -0.96875q-1.515625 0 -2.140625 0.96875q-0.625 0.96875 -0.625 2.96875q0 1.890625 0.640625 2.859375q0.640625 0.96875 2.125 0.96875z" fill-rule="nonzero"/><path fill="#000000" fill-opacity="0.0" d="m216.31693 299.13647l0 23.24411" fill-rule="evenodd"/><path stroke="#000000" stroke-width="1.0" stroke-linejoin="round" stroke-linecap="butt" d="m216.31693 299.13647l0 19.817017" fill-rule="evenodd"/><path fill="#000000" stroke="#000000" stroke-width="1.0" stroke-linecap="butt" d="m216.31693 318.9535l-1.1245728 -1.1245728l1.1245728 3.0897522l1.124588 -3.0897522z" fill-rule="evenodd"/><path fill="#f4b400" d="m453.42258 436.46982l55.984253 -42.409454l55.984222 42.409454l-55.984222 42.409454z" fill-rule="evenodd"/><path fill="#ffffff" d="m495.25845 442.48605q-2.015625 0 -3.09375 -0.984375q-1.0625 -1.0 -1.0625 -2.984375q0 -1.875 0.9375 -2.90625q0.953125 -1.03125 2.8125 -1.03125q1.671875 0 2.5625 0.890625q0.90625 0.875 0.90625 2.34375l0 1.40625l-5.546875 0q0.125 1.09375 0.78125 1.515625q0.65625 0.421875 2.0625 0.421875q0.578125 0 1.171875 -0.109375q0.59375 -0.109375 1.0625 -0.28125l0 1.28125q-1.0 0.4375 -2.59375 0.4375zm1.53125 -4.390625l0 -0.53125q0 -0.8125 -0.453125 -1.234375q-0.453125 -0.4375 -1.4375 -0.4375q-1.1875 0 -1.65625 0.515625q-0.46875 0.515625 -0.46875 1.6875l4.015625 0zm5.1076355 4.390625q-0.953125 0 -1.421875 -0.453125q-0.453125 -0.46875 -0.453125 -1.515625l0 -8.96875l1.734375 0l0 8.8125q0 0.4375 0.15625 0.609375q0.15625 0.15625 0.484375 0.15625q0.390625 0 0.734375 -0.09375l0 1.265625q-0.53125 0.1875 -1.234375 0.1875zm5.120636 0q-0.765625 0 -1.484375 -0.109375q-0.71875 -0.09375 -1.1875 -0.265625l0 -1.484375q0.53125 0.21875 1.171875 0.328125q0.65625 0.109375 1.28125 0.109375q0.921875 0 1.28125 -0.15625q0.375 -0.15625 0.375 -0.625q0 -0.421875 -0.34375 -0.609375q-0.328125 -0.203125 -1.25 -0.5l-0.484375 -0.15625q-1.140625 -0.390625 -1.671875 -0.859375q-0.53125 -0.46875 -0.53125 -1.390625q0 -1.078125 0.765625 -1.625q0.765625 -0.5625 2.40625 -0.5625q0.625 0 1.21875 0.109375q0.609375 0.09375 1.03125 0.234375l0 1.453125q-0.421875 -0.171875 -0.96875 -0.265625q-0.53125 -0.09375 -1.015625 -0.09375q-0.875 0 -1.28125 0.15625q-0.390625 0.140625 -0.390625 0.5625q0 0.359375 0.296875 0.546875q0.3125 0.1875 1.203125 0.46875l0.34375 0.109375q0.9375 0.296875 1.4375 0.59375q0.515625 0.296875 0.75 0.71875q0.234375 0.421875 0.234375 1.09375q0 2.21875 -3.1875 2.21875zm8.736481 0q-2.015625 0 -3.09375 -0.984375q-1.0624695 -1.0 -1.0624695 -2.984375q0 -1.875 0.9374695 -2.90625q0.953125 -1.03125 2.8125 -1.03125q1.671875 0 2.5625 0.890625q0.90625 0.875 0.90625 2.34375l0 1.40625l-5.546875 0q0.125 1.09375 0.78125 1.515625q0.65625 0.421875 2.0625 0.421875q0.578125 0 1.171875 -0.109375q0.59375 -0.109375 1.0625 -0.28125l0 1.28125q-1.0 0.4375 -2.59375 0.4375zm1.53125 -4.390625l0 -0.53125q0 -0.8125 -0.453125 -1.234375q-0.453125 -0.4375 -1.4375 -0.4375q-1.1875 0 -1.65625 0.515625q-0.46875 0.515625 -0.46875 1.6875l4.015625 0z" fill-rule="nonzero"/><path fill="#4a86e8" d="m160.33316 573.80316l111.968506 0l0 58.992126l-111.968506 0z" fill-rule="evenodd"/><path fill="#ffffff" d="m192.92786 591.0186l1.703125 0l1.28125 6.171875l1.578125 -4.9375l0 -1.234375l1.25 0l1.734375 6.171875l1.25 -6.171875l1.703125 0l-1.984375 8.640625l-1.609375 0l-1.59375 -5.5l-1.734375 5.5l-1.578125 0l-2.0 -8.640625zm2.724121 -2.53125l6.578125 0l0 1.21875l-6.671875 0l0.09375 -1.21875zm14.048157 11.328125q-0.953125 0 -1.6875 -0.28125q-0.71875 -0.28125 -1.34375 -0.8125l-0.09375 0.9375l-1.578125 0l0 -8.640625l1.734375 0l0 6.375q0.453125 0.453125 1.078125 0.75q0.625 0.28125 1.3125 0.28125q0.90625 0 1.34375 -0.421875q0.4375 -0.4375 0.4375 -1.40625l0 -5.578125l1.734375 0l0 5.671875q0 1.484375 -0.78125 2.3125q-0.765625 0.8125 -2.15625 0.8125zm4.523773 -8.796875l1.703125 0l1.28125 6.171875l1.578125 -4.9375l0 -1.234375l1.25 0l1.734375 6.171875l1.25 -6.171875l1.703125 0l-1.984375 8.640625l-1.609375 0l-1.59375 -5.5l-1.734375 5.5l-1.578125 0l-2.0 -8.640625zm5.5049896 -3.640625l4.703125 0l-0.0625 1.203125l-3.203125 0l0 1.125l-1.4375 0l0 -2.328125zm15.046677 8.421875l-2.78125 -3.71875l1.875 0l1.859375 2.515625l1.859375 -2.515625l1.859375 0l-2.765625 3.71875l2.890625 3.859375l-1.890625 0l-1.953125 -2.640625l-1.953125 2.640625l-1.890625 0l2.890625 -3.859375z" fill-rule="nonzero"/><path fill="#ffffff" d="m188.53798 618.8155q-1.640625 0 -2.546875 -0.859375q-0.90625 -0.875 -0.90625 -2.84375q0 -1.328125 0.453125 -2.265625q0.46875 -0.953125 1.28125 -1.4375q0.828125 -0.5 1.875 -0.5q0.671875 0 1.21875 0.171875q0.546875 0.15625 1.046875 0.484375l0 -3.6875l1.734375 0l0 10.78125l-1.484375 0l-0.109375 -0.75q-0.53125 0.484375 -1.140625 0.703125q-0.609375 0.203125 -1.421875 0.203125zm0.46875 -1.3125q1.171875 0 1.953125 -0.796875l0 -3.796875q-0.75 -0.671875 -1.890625 -0.671875q-1.109375 0 -1.671875 0.75q-0.546875 0.734375 -0.546875 2.140625q0 1.328125 0.5 1.859375q0.5 0.515625 1.65625 0.515625zm9.546387 1.3125q-2.015625 0 -3.09375 -0.984375q-1.0625 -1.0 -1.0625 -2.984375q0 -1.875 0.9375 -2.90625q0.953125 -1.03125 2.8125 -1.03125q1.671875 0 2.5625 0.890625q0.90625 0.875 0.90625 2.34375l0 1.40625l-5.546875 0q0.125 1.09375 0.78125 1.515625q0.65625 0.421875 2.0625 0.421875q0.578125 0 1.171875 -0.109375q0.59375 -0.109375 1.0625 -0.28125l0 1.28125q-1.0 0.4375 -2.59375 0.4375zm1.53125 -4.390625l0 -0.53125q0 -0.8125 -0.453125 -1.234375q-0.453125 -0.4375 -1.4375 -0.4375q-1.1875 0 -1.65625 0.515625q-0.46875 0.515625 -0.46875 1.6875l4.015625 0zm5.1076355 4.390625q-0.953125 0 -1.421875 -0.453125q-0.453125 -0.46875 -0.453125 -1.515625l0 -8.96875l1.734375 0l0 8.8125q0 0.4375 0.15625 0.609375q0.15625 0.15625 0.484375 0.15625q0.390625 0 0.734375 -0.09375l0 1.265625q-0.53125 0.1875 -1.234375 0.1875zm4.244385 0q-1.15625 0 -1.921875 -0.59375q-0.765625 -0.609375 -0.765625 -1.71875q0 -1.125 0.75 -1.765625q0.765625 -0.65625 2.296875 -0.65625l2.421875 0l0 -0.328125q0 -0.5625 -0.171875 -0.875q-0.15625 -0.3125 -0.609375 -0.453125q-0.453125 -0.15625 -1.28125 -0.15625q-1.34375 0 -2.515625 0.40625l0 -1.296875q0.546875 -0.203125 1.28125 -0.328125q0.734375 -0.140625 1.5625 -0.140625q1.6875 0 2.546875 0.6875q0.859375 0.6875 0.859375 2.1875l0 4.875l-1.484375 0l-0.125 -0.765625q-0.46875 0.46875 -1.15625 0.703125q-0.6875 0.21875 -1.6875 0.21875zm0.46875 -1.25q0.75 0 1.34375 -0.25q0.59375 -0.25 0.96875 -0.71875l0 -1.328125l-2.390625 0q-0.78125 0 -1.125 0.296875q-0.34375 0.28125 -0.34375 0.90625q0 0.578125 0.390625 0.84375q0.390625 0.25 1.15625 0.25zm6.907013 3.90625q-0.859375 0 -1.46875 -0.21875l0 -1.296875q0.453125 0.15625 0.96875 0.15625q0.484375 0 0.78125 -0.15625q0.3125 -0.140625 0.53125 -0.46875q0.234375 -0.3125 0.53125 -0.921875l-3.375 -7.484375l1.8125 0l2.421875 5.625l2.46875 -5.625l1.796875 0l-3.09375 7.140625q-0.6875 1.640625 -1.4375 2.4375q-0.734375 0.8125 -1.9375 0.8125zm16.363037 -2.65625q-0.75 0 -1.546875 -0.125q-0.796875 -0.109375 -1.3125 -0.328125l0 -1.53125q0.546875 0.25 1.25 0.375q0.71875 0.125 1.390625 0.125q1.25 0 1.828125 -0.421875q0.578125 -0.4375 0.578125 -1.40625q0 -0.921875 -0.453125 -1.328125q-0.4375 -0.421875 -1.59375 -0.421875l-3.046875 0l0 -1.0625l0.265625 -4.328125l5.859375 0l-0.140625 1.34375l-4.234375 0l-0.1875 2.703125l1.75 0q1.828125 0 2.671875 0.78125q0.859375 0.765625 0.859375 2.34375q0 1.5625 -1.015625 2.421875q-1.0 0.859375 -2.921875 0.859375zm9.865021 0.125q-2.375 0 -3.453125 -1.359375q-1.078125 -1.359375 -1.078125 -3.953125q0 -2.6875 1.046875 -4.0625q1.0625 -1.375 3.484375 -1.375q2.390625 0 3.453125 1.375q1.0625 1.375 1.0625 4.0625q0 2.59375 -1.09375 3.953125q-1.078125 1.359375 -3.421875 1.359375zm0 -1.484375q1.46875 0 2.109375 -0.96875q0.640625 -0.984375 0.640625 -2.859375q0 -2.0 -0.625 -2.96875q-0.625 -0.96875 -2.125 -0.96875q-1.515625 0 -2.140625 0.96875q-0.625 0.96875 -0.625 2.96875q0 1.890625 0.640625 2.859375q0.640625 0.96875 2.125 0.96875z" fill-rule="nonzero"/><path fill="#0f9d58" d="m82.538055 555.83594l14.748032 -58.992096l252.81102 0l-14.748016 58.992096z" fill-rule="evenodd"/><path fill="#ffffff" d="m121.13591 519.5749q0 -1.59375 1.265625 -1.984375l-1.734375 -0.421875l0 -1.796875q0.71875 -0.640625 1.78125 -1.046875q1.0625 -0.421875 2.359375 -0.421875q1.96875 0 2.953125 0.8125q1.0 0.8125 1.0 2.625l0 5.359375l-1.734375 0l0 -5.40625q0 -1.109375 -0.515625 -1.546875q-0.515625 -0.4375 -1.765625 -0.4375q-0.78125 0 -1.484375 0.234375q-0.6875 0.21875 -1.09375 0.578125l0 0.296875l1.828125 0.453125l0 1.15625q-0.625 0.15625 -0.890625 0.515625q-0.25 0.34375 -0.25 1.046875l0 3.109375l-1.71875 0l0 -3.125zm6.745514 -6.4375q-0.765625 0 -1.28125 -0.5q-0.53125 -0.5 -0.53125 -1.234375q0 -0.75 0.53125 -1.25q0.515625 -0.5 1.28125 -0.5q0.75 0 1.28125 0.5q0.515625 0.5 0.515625 1.25q0 0.734375 -0.515625 1.234375q-0.53125 0.5 -1.28125 0.5zm0 -1.0q0.3125 0 0.53125 -0.21875q0.203125 -0.234375 0.203125 -0.515625q0 -0.3125 -0.203125 -0.53125q-0.21875 -0.234375 -0.53125 -0.234375q-0.3125 0 -0.53125 0.234375q-0.234375 0.21875 -0.234375 0.53125q0 0.28125 0.234375 0.515625q0.234375 0.21875 0.53125 0.21875zm6.171875 5.125q0 -0.703125 -0.140625 -1.109375q-0.140625 -0.40625 -0.546875 -0.625q-0.40625 -0.21875 -1.171875 -0.21875q-0.515625 0 -1.125 0.109375q-0.59375 0.109375 -1.078125 0.3125l0 -1.34375q0.5 -0.21875 1.1875 -0.34375q0.6875 -0.140625 1.34375 -0.140625q1.734375 0 2.5 0.75q0.78125 0.75 0.78125 2.390625l0 5.65625l-1.75 0l0 -5.4375zm3.7900085 -3.203125l1.734375 0l0 2.71875l2.5 0q0.90625 0 1.28125 -0.375q0.375 -0.390625 0.375 -1.21875l0 -1.125l1.734375 0l0 1.078125q0 1.8125 -1.296875 2.28125q0.6875 0.234375 0.953125 0.765625q0.265625 0.53125 0.265625 1.328125l0 3.1875l-1.734375 0l0 -2.96875q0 -0.9375 -0.359375 -1.28125q-0.34375 -0.34375 -1.28125 -0.34375l-2.4375 0l0 4.59375l-1.734375 0l0 -8.640625zm12.601517 8.796875q-1.390625 0 -2.171875 -0.8125q-0.765625 -0.828125 -0.765625 -2.3125l0 -5.671875l1.734375 0l0 5.578125q0 0.96875 0.421875 1.40625q0.421875 0.421875 1.359375 0.421875q0.6875 0 1.328125 -0.28125q0.640625 -0.296875 1.0625 -0.75l0 -6.375l1.734375 0l0 8.640625l-1.578125 0l-0.09375 -0.9375q-1.265625 1.09375 -3.03125 1.09375zm9.945648 0q-1.609375 0 -2.578125 -1.078125q-0.953125 -1.078125 -0.953125 -3.265625q0 -2.203125 1.109375 -3.40625q1.125 -1.203125 3.3125 -1.203125q1.40625 0 2.34375 0.484375q0.9375 0.484375 1.375 1.28125q0.4375 0.796875 0.4375 1.75l0 5.28125l-1.75 0l0 -5.203125q0 -1.03125 -0.5625 -1.609375q-0.5625 -0.578125 -1.875 -0.578125q-1.390625 0 -2.046875 0.796875q-0.65625 0.796875 -0.65625 2.40625q0 1.578125 0.53125 2.265625q0.53125 0.6875 1.625 0.6875q0.734375 0 1.09375 -0.125l0 1.328125q-0.53125 0.1875 -1.40625 0.1875zm8.55365 -0.15625q-1.6875 0 -1.6875 -1.65625l0 -3.703125q0 -0.84375 0.328125 -1.40625q0.328125 -0.5625 0.90625 -1.15625q0.359375 -0.359375 0.5 -0.578125q0.15625 -0.21875 0.15625 -0.46875q0 -0.453125 -0.25 -0.625q-0.25 -0.171875 -0.8125 -0.171875q-0.859375 0 -1.734375 0.484375l0 -1.28125q0.46875 -0.28125 1.09375 -0.4375q0.625 -0.15625 1.234375 -0.15625q1.125 0 1.6875 0.484375q0.578125 0.484375 0.578125 1.359375q0 0.546875 -0.234375 0.953125q-0.234375 0.390625 -0.703125 0.890625q-0.5 0.609375 -0.765625 1.046875q-0.25 0.4375 -0.25 1.109375l0 3.21875q0 0.4375 0.125 0.578125q0.140625 0.140625 0.578125 0.140625l0.734375 0l0 1.375l-1.484375 0zm3.23526 -8.640625l1.734375 0l0 2.71875l2.5 0q0.90625 0 1.28125 -0.375q0.375 -0.390625 0.375 -1.21875l0 -1.125l1.734375 0l0 1.078125q0 1.8125 -1.296875 2.28125q0.6875 0.234375 0.953125 0.765625q0.265625 0.53125 0.265625 1.328125l0 3.1875l-1.734375 0l0 -2.96875q0 -0.9375 -0.359375 -1.28125q-0.34375 -0.34375 -1.28125 -0.34375l-2.4375 0l0 4.59375l-1.734375 0l0 -8.640625zm3.9608917 -2.78125l-1.265625 0l0 -1.203125l2.46875 0l0 1.453125l3.453125 0l-0.0625 1.21875l-4.59375 0l0 -1.46875zm11.623138 1.125l4.578125 0q1.71875 0 2.59375 0.9375q0.875 0.9375 0.875 2.5q0 1.53125 -0.953125 2.46875q-0.953125 0.921875 -2.578125 0.921875l-2.78125 0l0 3.46875l-1.734375 0l0 -10.296875zm4.203125 5.453125q1.0 0 1.546875 -0.53125q0.546875 -0.546875 0.546875 -1.484375q0 -1.0 -0.515625 -1.53125q-0.515625 -0.546875 -1.5 -0.546875l-2.546875 0l0 4.09375l2.46875 0zm5.836899 -5.765625l1.90625 0l0 1.4375l-1.90625 0l0 -1.4375zm0.140625 4.359375l-1.140625 0l0.15625 -1.328125l2.734375 0l0 7.578125l-1.75 0l0 -6.25zm3.787384 -1.328125l1.59375 0l0.078125 0.796875q0.546875 -0.4375 1.265625 -0.703125q0.71875 -0.265625 1.53125 -0.265625q1.46875 0 2.140625 0.6875q0.671875 0.6875 0.671875 2.15625l0 4.90625l-1.71875 0l0 -4.828125q0 -0.890625 -0.375 -1.234375q-0.359375 -0.359375 -1.34375 -0.359375q-0.59375 0 -1.15625 0.25q-0.5625 0.234375 -0.953125 0.625l0 5.546875l-1.734375 0l0 -7.578125zm14.839905 6.71875q0.390625 -0.890625 1.0625 -1.640625q0.671875 -0.765625 1.6875 -1.640625q0.984375 -0.84375 1.390625 -1.265625q0.421875 -0.4375 0.59375 -0.84375q0.171875 -0.421875 0.171875 -1.03125q0 -0.84375 -0.5 -1.265625q-0.484375 -0.421875 -1.578125 -0.421875q-1.15625 0 -2.4375 0.46875l0 -1.53125q0.5625 -0.1875 1.328125 -0.3125q0.765625 -0.125 1.453125 -0.125q1.6875 0 2.578125 0.84375q0.90625 0.84375 0.90625 2.328125q0 1.015625 -0.484375 1.75q-0.484375 0.734375 -1.515625 1.65625l-0.265625 0.25q-0.90625 0.78125 -1.375 1.25q-0.46875 0.46875 -0.796875 1.046875l4.546875 0l0 1.34375l-6.765625 0l0 -0.859375zm8.144012 -4.125l6.109375 0l0 1.359375l-6.109375 0l0 -1.359375zm9.159897 -3.78125l-1.671875 0.28125l0 -1.453125l3.390625 -0.53125l0 10.46875l-1.71875 0l0 -8.765625zm6.354004 8.921875q-0.71875 0 -1.578125 -0.140625q-0.84375 -0.125 -1.34375 -0.3125l0 -1.53125q1.203125 0.5 2.6875 0.5q1.28125 0 1.875 -0.375q0.59375 -0.375 0.59375 -1.28125q0 -1.578125 -2.125 -1.578125l-1.5625 0l0.140625 -1.296875l1.296875 0q2.03125 0 2.03125 -1.59375q0 -0.78125 -0.546875 -1.140625q-0.53125 -0.375 -1.703125 -0.375q-0.640625 0 -1.3125 0.125q-0.65625 0.125 -1.1875 0.34375l0 -1.484375q0.515625 -0.203125 1.28125 -0.34375q0.765625 -0.140625 1.484375 -0.140625q1.828125 0 2.78125 0.78125q0.953125 0.78125 0.953125 2.078125q0 0.8125 -0.390625 1.46875q-0.390625 0.65625 -1.15625 0.921875q0.890625 0.25 1.328125 0.859375q0.4375 0.59375 0.4375 1.484375q0 1.5 -1.0625 2.265625q-1.0625 0.765625 -2.921875 0.765625zm19.253403 -0.15625q-1.671875 0 -1.671875 -1.65625l0 -6.984375l1.71875 0l0 6.546875q0 0.359375 0.171875 0.546875q0.171875 0.171875 0.53125 0.171875l0.734375 0l0 1.375l-1.484375 0zm7.146393 0.15625q-1.875 0 -2.90625 -0.875q-1.03125 -0.890625 -1.03125 -2.640625l0 -5.28125l1.734375 0l0 5.34375q0 1.0625 0.546875 1.5625q0.5625 0.5 1.65625 0.5q1.109375 0 1.671875 -0.5q0.5625 -0.5 0.5625 -1.5625l0 -7.90625l1.71875 0l0 7.84375q0 1.75 -1.03125 2.640625q-1.015625 0.875 -2.921875 0.875zm-2.1889954 -10.0625q-0.9375 0 -1.46875 -0.46875q-0.53125 -0.484375 -0.53125 -1.375q0 -0.890625 0.5625 -1.40625q0.5625 -0.53125 1.578125 -0.53125l3.53125 0l-0.078125 1.03125l-3.28125 0q-0.5625 0 -0.828125 0.21875q-0.265625 0.21875 -0.265625 0.6875q0 0.859375 0.890625 0.859375q0.84375 0 0.84375 -0.671875l0 -0.34375l1.0625 0l0 0.34375q0 0.328125 0.1875 0.484375q0.171875 0.140625 0.546875 0.140625l0.625 0l0 1.0l-0.734375 0q-0.40625 0 -0.71875 -0.109375q-0.3125 -0.125 -0.453125 -0.390625q-0.15625 0.265625 -0.578125 0.40625q-0.421875 0.125 -0.890625 0.125zm11.125 10.0625q-1.390625 0 -2.171875 -0.8125q-0.765625 -0.828125 -0.765625 -2.3125l0 -5.671875l1.734375 0l0 5.578125q0 0.96875 0.421875 1.40625q0.421875 0.421875 1.359375 0.421875q0.6875 0 1.328125 -0.28125q0.640625 -0.296875 1.0625 -0.75l0 -6.375l1.734375 0l0 8.640625l-1.578125 0l-0.09375 -0.9375q-1.265625 1.09375 -3.03125 1.09375zm14.006287 -8.921875l-1.671875 0.28125l0 -1.453125l3.390625 -0.53125l0 10.46875l-1.71875 0l0 -8.765625z" fill-rule="nonzero"/><path fill="#ffffff" d="m123.557785 537.8405l-2.78125 -3.71875l1.875 0l1.859375 2.515625l1.859375 -2.515625l1.859375 0l-2.765625 3.71875l2.890625 3.859375l-1.890625 0l-1.953125 -2.640625l-1.953125 2.640625l-1.890625 0l2.890625 -3.859375zm14.13266 3.859375q-1.671875 0 -1.671875 -1.65625l0 -6.984375l1.71875 0l0 6.546875q0 0.359375 0.171875 0.546875q0.171875 0.171875 0.53125 0.171875l0.734375 0l0 1.375l-1.484375 0zm2.7557526 -8.640625l1.703125 0l1.28125 6.171875l1.578125 -4.9375l0 -1.234375l1.25 0l1.734375 6.171875l1.25 -6.171875l1.703125 0l-1.984375 8.640625l-1.609375 0l-1.59375 -5.5l-1.734375 5.5l-1.578125 0l-2.0 -8.640625zm2.724121 -2.53125l6.578125 0l0 1.21875l-6.671875 0l0.09375 -1.21875zm5.140625 -3.321228l1.4375 0l0 2.21875l-1.4375 0l0 -2.21875zm8.907532 14.649353q-0.953125 0 -1.6875 -0.28125q-0.71875 -0.28125 -1.34375 -0.8125l-0.09375 0.9375l-1.578125 0l0 -8.640625l1.734375 0l0 6.375q0.453125 0.453125 1.078125 0.75q0.625 0.28125 1.3125 0.28125q0.90625 0 1.34375 -0.421875q0.4375 -0.4375 0.4375 -1.40625l0 -5.578125l1.734375 0l0 5.671875q0 1.484375 -0.78125 2.3125q-0.765625 0.8125 -2.15625 0.8125zm4.976898 -8.796875l1.578125 0l0.09375 0.9375q1.296875 -1.09375 3.078125 -1.09375q1.359375 0 2.125 0.8125q0.765625 0.8125 0.765625 2.28125l0 5.703125l-1.734375 0l0 -5.609375q0 -0.9375 -0.4375 -1.359375q-0.4375 -0.421875 -1.34375 -0.421875q-0.6875 0 -1.3125 0.296875q-0.625 0.28125 -1.078125 0.734375l0 6.359375l-1.734375 0l0 -8.640625zm1.0550232 -2.53125l5.140625 0l0 -1.328125l1.4375 0l0 2.546875l-6.671875 0l0.09375 -1.21875zm5.140625 -4.3132324l1.4375 0l0 2.21875l-1.4375 0l0 -2.21875zm6.15625 15.641357q-1.328125 0 -2.140625 -0.640625q-0.8125 -0.65625 -0.8125 -2.0q0 -1.28125 0.859375 -1.96875q0.875 -0.703125 2.5 -0.703125l2.640625 0l0 -0.546875q0 -0.640625 -0.21875 -1.0q-0.203125 -0.375 -0.6875 -0.53125q-0.46875 -0.15625 -1.3125 -0.15625q-1.53125 0 -2.8125 0.421875l0 -1.34375q0.65625 -0.21875 1.46875 -0.34375q0.828125 -0.140625 1.625 -0.140625q1.890625 0 2.78125 0.796875q0.90625 0.78125 0.90625 2.46875l0 5.53125l-1.75 0l0 -3.8125l-2.53125 0q-0.921875 0 -1.359375 0.3125q-0.4375 0.296875 -0.4375 1.015625q0 0.6875 0.390625 0.96875q0.40625 0.28125 1.34375 0.28125q0.640625 0 1.109375 -0.125l0 1.328125q-0.6875 0.1875 -1.5625 0.1875zm6.504013 -7.53125l1.484375 0l0 0.78125l2.359375 0l-0.0625 1.296875l-3.78125 0l0 -2.078125zm0 4.34375l1.484375 0l0 0.8125l2.359375 0l-0.0625 1.28125l-3.78125 0l0 -2.09375zm12.775894 -5.734375l-1.671875 0.28125l0 -1.453125l3.390625 -0.53125l0 10.46875l-1.71875 0l0 -8.765625z" fill-rule="nonzero"/><path fill="#000000" fill-opacity="0.0" d="m160.33316 603.2992l-126.23621 0.6929321" fill-rule="evenodd"/><path stroke="#000000" stroke-width="1.0" stroke-linejoin="round" stroke-linecap="butt" d="m160.33316 603.2992l-126.23621 0.6929321" fill-rule="evenodd"/><path fill="#000000" fill-opacity="0.0" d="m38.70866 603.979l0 -165.88977" fill-rule="evenodd"/><path stroke="#000000" stroke-width="1.0" stroke-linejoin="round" stroke-linecap="butt" d="m38.70866 603.979l0 -165.88977" fill-rule="evenodd"/><path fill="#000000" fill-opacity="0.0" d="m38.698162 438.0748l54.677166 -1.6062927" fill-rule="evenodd"/><path stroke="#000000" stroke-width="1.0" stroke-linejoin="round" stroke-linecap="butt" d="m38.698162 438.0748l51.25156 -1.5056458" fill-rule="evenodd"/><path fill="#000000" stroke="#000000" stroke-width="1.0" stroke-linecap="butt" d="m89.94972 436.56915l-1.0910797 1.1571045l3.0554123 -1.2148132l-3.12146 -1.0333862z" fill-rule="evenodd"/><path fill="#000000" fill-opacity="0.0" d="m216.3231 381.36484l0 12.692902" fill-rule="evenodd"/><path stroke="#000000" stroke-width="1.0" stroke-linejoin="round" stroke-linecap="butt" d="m216.32312 381.36484l0 9.265808" fill-rule="evenodd"/><path fill="#000000" stroke="#000000" stroke-width="1.0" stroke-linecap="butt" d="m216.32312 390.63065l-1.124588 -1.1245728l1.124588 3.0897827l1.124588 -3.0897827z" fill-rule="evenodd"/><path fill="#000000" fill-opacity="0.0" d="m216.31758 478.89108l0 17.952759" fill-rule="evenodd"/><path stroke="#000000" stroke-width="1.0" stroke-linejoin="round" stroke-linecap="butt" d="m216.31758 478.89108l0 14.525665" fill-rule="evenodd"/><path fill="#000000" stroke="#000000" stroke-width="1.0" stroke-linecap="butt" d="m216.31758 493.41675l-1.1245728 -1.1245728l1.1245728 3.0897522l1.124588 -3.0897522z" fill-rule="evenodd"/><path fill="#000000" fill-opacity="0.0" d="m216.31758 555.83594l0 17.952759" fill-rule="evenodd"/><path stroke="#000000" stroke-width="1.0" stroke-linejoin="round" stroke-linecap="butt" d="m216.31758 555.83594l0 14.525696" fill-rule="evenodd"/><path fill="#000000" stroke="#000000" stroke-width="1.0" stroke-linecap="butt" d="m216.31758 570.36163l-1.1245728 -1.1245728l1.1245728 3.0897217l1.124588 -3.0897217z" fill-rule="evenodd"/><path fill="#000000" fill-opacity="0.0" d="m509.40683 478.87927l0 14.771637" fill-rule="evenodd"/><path stroke="#000000" stroke-width="1.0" stroke-linejoin="round" stroke-linecap="butt" d="m509.40683 478.87927l0 11.344574" fill-rule="evenodd"/><path fill="#000000" stroke="#000000" stroke-width="1.0" stroke-linecap="butt" d="m509.40683 490.22385l-1.1246033 -1.1246033l1.1246033 3.0897827l1.1245728 -3.0897827z" fill-rule="evenodd"/><path fill="#000000" fill-opacity="0.0" d="m509.40683 552.6496l0 24.314941" fill-rule="evenodd"/><path stroke="#000000" stroke-width="1.0" stroke-linejoin="round" stroke-linecap="butt" d="m509.40683 552.6496l0 20.887878" fill-rule="evenodd"/><path fill="#000000" stroke="#000000" stroke-width="1.0" stroke-linecap="butt" d="m509.40683 573.5375l-1.1246033 -1.1245728l1.1246033 3.0897827l1.1245728 -3.0897827z" fill-rule="evenodd"/><path fill="#000000" fill-opacity="0.0" d="m509.40683 635.9685l0 27.181091" fill-rule="evenodd"/><path stroke="#000000" stroke-width="1.0" stroke-linejoin="round" stroke-linecap="butt" d="m509.40683 635.9685l0 23.754028" fill-rule="evenodd"/><path fill="#000000" stroke="#000000" stroke-width="1.0" stroke-linecap="butt" d="m509.40683 659.72253l-1.1246033 -1.1245728l1.1246033 3.0897217l1.1245728 -3.0897217z" fill-rule="evenodd"/><path fill="#000000" fill-opacity="0.0" d="m339.25986 436.4685l114.17322 0" fill-rule="evenodd"/><path stroke="#000000" stroke-width="1.0" stroke-linejoin="round" stroke-linecap="butt" d="m339.25986 436.4685l110.746124 0" fill-rule="evenodd"/><path fill="#000000" stroke="#000000" stroke-width="1.0" stroke-linecap="butt" d="m450.00598 436.4685l-1.1245728 1.1245728l3.0897522 -1.1245728l-3.0897522 -1.1245728z" fill-rule="evenodd"/></g></svg>