<svg version="1.1" viewBox="0.0 0.0 960.0 720.0" fill="none" stroke="none" stroke-linecap="square" stroke-miterlimit="10" xmlns:xlink="http://www.w3.org/1999/xlink" xmlns="http://www.w3.org/2000/svg"><clipPath id="p.0"><path d="m0 0l960.0 0l0 720.0l-960.0 0l0 -720.0z" clip-rule="nonzero"/></clipPath><g clip-path="url(#p.0)"><path fill="#000000" fill-opacity="0.0" d="m0 0l960.0 0l0 720.0l-960.0 0z" fill-rule="evenodd"/><path fill="#cc0000" d="m186.1025 47.55643l69.67786 0l0 0c9.127975 0 16.527695 7.665447 16.527695 17.121258c0 9.455811 -7.399719 17.121262 -16.527695 17.121262l-69.67786 0l0 0c-9.127991 0 -16.527695 -7.665451 -16.527695 -17.121262c0 -9.455811 7.399704 -17.121258 16.527695 -17.121258z" fill-rule="evenodd"/><path fill="#ffffff" d="m208.06638 70.69394q-2.0 0 -3.21875 -0.515625l0 -1.53125q1.5 0.578125 3.0625 0.578125q1.296875 0 1.875 -0.296875q0.59375 -0.3125 0.59375 -1.140625q0 -0.53125 -0.25 -0.84375q-0.25 -0.3125 -0.8125 -0.53125q-0.5625 -0.234375 -1.671875 -0.515625q-1.671875 -0.4375 -2.34375 -1.09375q-0.671875 -0.671875 -0.671875 -1.828125q0 -1.375 1.0 -2.140625q1.015625 -0.765625 2.953125 -0.765625q0.84375 0 1.640625 0.125q0.796875 0.125 1.28125 0.296875l0 1.53125q-1.203125 -0.453125 -2.6875 -0.453125q-1.21875 0 -1.828125 0.3125q-0.59375 0.3125 -0.59375 1.09375q0 0.453125 0.21875 0.734375q0.21875 0.28125 0.734375 0.5q0.53125 0.21875 1.5625 0.46875q1.8125 0.46875 2.515625 1.203125q0.703125 0.734375 0.703125 1.90625q0 1.375 -1.03125 2.140625q-1.03125 0.765625 -3.03125 0.765625zm8.101273 0q-1.203125 0 -1.8125 -0.625q-0.609375 -0.640625 -0.609375 -1.78125l0 -3.96875l-1.109375 0l0 -1.359375l1.109375 0l0 -1.75l1.734375 -0.53125l0 2.28125l2.015625 0l-0.109375 1.359375l-1.90625 0l0 3.859375q0 0.65625 0.296875 0.921875q0.296875 0.265625 1.0 0.265625q0.421875 0 0.90625 -0.15625l0 1.234375q-0.625 0.25 -1.515625 0.25zm4.7167664 0q-1.15625 0 -1.921875 -0.59375q-0.765625 -0.609375 -0.765625 -1.71875q0 -1.125 0.75 -1.765625q0.765625 -0.65625 2.296875 -0.65625l2.421875 0l0 -0.328125q0 -0.5625 -0.171875 -0.875q-0.15625 -0.3125 -0.609375 -0.453125q-0.453125 -0.15625 -1.28125 -0.15625q-1.34375 0 -2.515625 0.40625l0 -1.296875q0.546875 -0.203125 1.28125 -0.328125q0.734375 -0.140625 1.5625 -0.140625q1.6875 0 2.546875 0.6875q0.859375 0.6875 0.859375 2.1875l0 4.875l-1.484375 0l-0.125 -0.765625q-0.46875 0.46875 -1.15625 0.703125q-0.6875 0.21875 -1.6875 0.21875zm0.46875 -1.25q0.75 0 1.34375 -0.25q0.59375 -0.25 0.96875 -0.71875l0 -1.328125l-2.390625 0q-0.78125 0 -1.125 0.296875q-0.34375 0.28125 -0.34375 0.90625q0 0.578125 0.390625 0.84375q0.390625 0.25 1.15625 0.25zm5.923889 -6.484375l1.59375 0l0.09375 0.875q0.546875 -0.359375 1.296875 -0.640625q0.75 -0.28125 1.484375 -0.40625l0 1.328125q-0.6875 0.140625 -1.484375 0.40625q-0.796875 0.25 -1.25 0.546875l0 5.46875l-1.734375 0l0 -7.578125zm8.762634 7.734375q-1.203125 0 -1.8125 -0.625q-0.609375 -0.640625 -0.609375 -1.78125l0 -3.96875l-1.109375 0l0 -1.359375l1.109375 0l0 -1.75l1.734375 -0.53125l0 2.28125l2.015625 0l-0.109375 1.359375l-1.90625 0l0 3.859375q0 0.65625 0.296875 0.921875q0.296875 0.265625 1.0 0.265625q0.421875 0 0.90625 -0.15625l0 1.234375q-0.625 0.25 -1.515625 0.25z" fill-rule="nonzero"/><path fill="#4a86e8" d="m149.54593 287.71066l142.78085 0l0 58.98224l-142.78085 0z" fill-rule="evenodd"/><path fill="#000000" fill-opacity="0.0" d="m167.39354 287.71066l0 58.98224m107.08562 -58.98224l0 58.98224" fill-rule="evenodd"/><path fill="#000000" fill-opacity="0.0" d="m149.54593 287.71066l142.78085 0l0 58.98224l-142.78085 0z" fill-rule="evenodd"/><path stroke="#ffffff" stroke-width="3.0" stroke-linejoin="round" stroke-linecap="butt" d="m167.39354 287.71066l0 58.98224m107.08562 -58.98224l0 58.98224" fill-rule="evenodd"/><path stroke="#ffffff" stroke-width="3.0" stroke-linejoin="round" stroke-linecap="butt" d="m149.54593 287.71066l142.78085 0l0 58.98224l-142.78085 0z" fill-rule="evenodd"/><path fill="#ffffff" d="m200.03493 323.21805q-0.953125 0 -1.421875 -0.453125q-0.453125 -0.46875 -0.453125 -1.515625l0 -8.96875l1.734375 0l0 8.8125q0 0.4375 0.15625 0.609375q0.15625 0.15625 0.484375 0.15625q0.390625 0 0.734375 -0.09375l0 1.265625q-0.53125 0.1875 -1.234375 0.1875zm5.51001 0q-3.953125 0 -3.953125 -3.953125q0 -3.953125 3.953125 -3.953125q3.96875 0 3.96875 3.953125q0 3.953125 -3.96875 3.953125zm0 -1.46875q1.203125 0 1.703125 -0.578125q0.5 -0.578125 0.5 -1.90625q0 -1.3125 -0.5 -1.875q-0.5 -0.578125 -1.703125 -0.578125q-1.1875 0 -1.6875 0.578125q-0.5 0.5625 -0.5 1.875q0 1.328125 0.5 1.90625q0.5 0.578125 1.6875 0.578125zm8.896027 1.46875q-3.953125 0 -3.953125 -3.953125q0 -3.953125 3.953125 -3.953125q3.96875 0 3.96875 3.953125q0 3.953125 -3.96875 3.953125zm0 -1.46875q1.203125 0 1.703125 -0.578125q0.5 -0.578125 0.5 -1.90625q0 -1.3125 -0.5 -1.875q-0.5 -0.578125 -1.703125 -0.578125q-1.1875 0 -1.6875 0.578125q-0.5 0.5625 -0.5 1.875q0 1.328125 0.5 1.90625q0.5 0.578125 1.6875 0.578125zm5.6710205 -6.265625l1.5 0l0.09375 0.75q0.53125 -0.46875 1.140625 -0.6875q0.609375 -0.234375 1.421875 -0.234375q1.6875 0 2.5625 0.921875q0.890625 0.90625 0.890625 2.90625q0 2.015625 -0.9375 3.046875q-0.921875 1.03125 -2.578125 1.03125q-1.375 0 -2.359375 -0.640625l0 3.9375l-1.734375 0l0 -11.03125zm3.640625 6.421875q1.125 0 1.65625 -0.6875q0.546875 -0.6875 0.546875 -2.09375q0 -1.34375 -0.5 -1.90625q-0.484375 -0.578125 -1.65625 -0.578125q-1.171875 0 -1.953125 0.8125l0 3.78125q0.765625 0.671875 1.90625 0.671875zm13.419525 2.3125q-1.109375 -0.984375 -1.640625 -2.59375q-0.515625 -1.609375 -0.515625 -3.40625q0 -1.8125 0.515625 -3.40625q0.53125 -1.609375 1.640625 -2.59375l1.96875 0q-2.359375 2.046875 -2.359375 6.0q0 3.953125 2.359375 6.0l-1.96875 0zm2.7312622 0q1.234375 -1.078125 1.796875 -2.578125q0.5625 -1.5 0.5625 -3.421875q0 -3.96875 -2.359375 -6.0l1.984375 0q1.09375 0.984375 1.609375 2.59375q0.53125 1.609375 0.53125 3.40625q0 1.796875 -0.53125 3.40625q-0.515625 1.609375 -1.609375 2.59375l-1.984375 0z" fill-rule="nonzero"/><path fill="#4a86e8" d="m149.54855 108.34121l142.78085 0l0 58.98223l-142.78085 0z" fill-rule="evenodd"/><path fill="#000000" fill-opacity="0.0" d="m167.39616 108.34121l0 58.98223m107.08562 -58.98223l0 58.98223" fill-rule="evenodd"/><path fill="#000000" fill-opacity="0.0" d="m149.54855 108.34121l142.78085 0l0 58.98223l-142.78085 0z" fill-rule="evenodd"/><path stroke="#ffffff" stroke-width="3.0" stroke-linejoin="round" stroke-linecap="butt" d="m167.39616 108.34121l0 58.98223m107.08562 -58.98223l0 58.98223" fill-rule="evenodd"/><path stroke="#ffffff" stroke-width="3.0" stroke-linejoin="round" stroke-linecap="butt" d="m149.54855 108.34121l142.78085 0l0 58.98223l-142.78085 0z" fill-rule="evenodd"/><path fill="#ffffff" d="m196.31818 143.84857q-0.765625 0 -1.484375 -0.109375q-0.71875 -0.09375 -1.1875 -0.265625l0 -1.484375q0.53125 0.21875 1.171875 0.328125q0.65625 0.109375 1.28125 0.109375q0.921875 0 1.28125 -0.15625q0.375 -0.15625 0.375 -0.625q0 -0.421875 -0.34375 -0.609375q-0.328125 -0.203125 -1.25 -0.5l-0.484375 -0.15625q-1.140625 -0.390625 -1.671875 -0.859375q-0.53125 -0.46875 -0.53125 -1.390625q0 -1.078125 0.765625 -1.625q0.765625 -0.5625 2.40625 -0.5625q0.625 0 1.21875 0.109375q0.609375 0.09375 1.03125 0.234375l0 1.453125q-0.421875 -0.171875 -0.96875 -0.265625q-0.53125 -0.09375 -1.015625 -0.09375q-0.875 0 -1.28125 0.15625q-0.390625 0.140625 -0.390625 0.5625q0 0.359375 0.296875 0.546875q0.3125 0.1875 1.203125 0.46875l0.34375 0.109375q0.9375 0.296875 1.4375 0.59375q0.515625 0.296875 0.75 0.71875q0.234375 0.421875 0.234375 1.09375q0 2.21875 -3.1875 2.21875zm8.736511 0q-2.015625 0 -3.09375 -0.984375q-1.0625 -1.0 -1.0625 -2.984375q0 -1.875 0.9375 -2.90625q0.953125 -1.03125 2.8125 -1.03125q1.671875 0 2.5625 0.890625q0.90625 0.875 0.90625 2.34375l0 1.40625l-5.546875 0q0.125 1.09375 0.78125 1.515625q0.65625 0.421875 2.0625 0.421875q0.578125 0 1.171875 -0.109375q0.59375 -0.109375 1.0625 -0.28125l0 1.28125q-1.0 0.4375 -2.59375 0.4375zm1.53125 -4.390625l0 -0.53125q0 -0.8125 -0.453125 -1.234375q-0.453125 -0.4375 -1.4375 -0.4375q-1.1875 0 -1.65625 0.515625q-0.46875 0.515625 -0.46875 1.6875l4.015625 0zm6.1232605 4.390625q-1.203125 0 -1.8125 -0.625q-0.609375 -0.640625 -0.609375 -1.78125l0 -3.96875l-1.109375 0l0 -1.359375l1.109375 0l0 -1.75l1.734375 -0.53125l0 2.28125l2.015625 0l-0.109375 1.359375l-1.90625 0l0 3.859375q0 0.65625 0.296875 0.921875q0.296875 0.265625 1.0 0.265625q0.421875 0 0.90625 -0.15625l0 1.234375q-0.625 0.25 -1.515625 0.25zm5.25177 0q-1.359375 0 -2.09375 -0.75q-0.734375 -0.765625 -0.734375 -2.203125l0 -4.78125l1.75 0l0 4.78125q0 0.84375 0.40625 1.25q0.421875 0.390625 1.296875 0.390625q0.609375 0 1.15625 -0.21875q0.546875 -0.234375 0.96875 -0.65625l0 -5.546875l1.71875 0l0 7.578125l-1.578125 0l-0.078125 -0.78125q-1.203125 0.9375 -2.8125 0.9375zm6.5136414 -7.734375l1.5 0l0.09375 0.75q0.53125 -0.46875 1.140625 -0.6875q0.609375 -0.234375 1.421875 -0.234375q1.6875 0 2.5625 0.921875q0.890625 0.90625 0.890625 2.90625q0 2.015625 -0.9375 3.046875q-0.921875 1.03125 -2.578125 1.03125q-1.375 0 -2.359375 -0.640625l0 3.9375l-1.734375 0l0 -11.03125zm3.640625 6.421875q1.125 0 1.65625 -0.6875q0.546875 -0.6875 0.546875 -2.09375q0 -1.34375 -0.5 -1.90625q-0.484375 -0.578125 -1.65625 -0.578125q-1.171875 0 -1.953125 0.8125l0 3.78125q0.765625 0.671875 1.90625 0.671875zm13.419525 2.3125q-1.109375 -0.984375 -1.640625 -2.59375q-0.515625 -1.609375 -0.515625 -3.40625q0 -1.8125 0.515625 -3.40625q0.53125 -1.609375 1.640625 -2.59375l1.96875 0q-2.359375 2.046875 -2.359375 6.0q0 3.953125 2.359375 6.0l-1.96875 0zm2.7312622 0q1.234375 -1.078125 1.796875 -2.578125q0.5625 -1.5 0.5625 -3.421875q0 -3.96875 -2.359375 -6.0l1.984375 0q1.09375 0.984375 1.609375 2.59375q0.53125 1.609375 0.53125 3.40625q0 1.796875 -0.53125 3.40625q-0.515625 1.609375 -1.609375 2.59375l-1.984375 0z" fill-rule="nonzero"/><path fill="#4a86e8" d="m134.74934 185.1063l172.37794 0l0 84.81891l-172.37794 0z" fill-rule="evenodd"/><path fill="#ffffff" d="m156.74562 220.75075q0 -1.59375 1.265625 -1.984375l-1.734375 -0.421875l0 -1.796875q0.71875 -0.640625 1.78125 -1.046875q1.0625 -0.421875 2.359375 -0.421875q1.96875 0 2.953125 0.8125q1.0 0.8125 1.0 2.625l0 5.359375l-1.734375 0l0 -5.40625q0 -1.109375 -0.515625 -1.546875q-0.515625 -0.4375 -1.765625 -0.4375q-0.78125 0 -1.484375 0.234375q-0.6875 0.21875 -1.09375 0.578125l0 0.296875l1.828125 0.453125l0 1.15625q-0.625 0.15625 -0.890625 0.515625q-0.25 0.34375 -0.25 1.046875l0 3.109375l-1.71875 0l0 -3.125zm6.745514 -6.4375q-0.765625 0 -1.28125 -0.5q-0.53125 -0.5 -0.53125 -1.234375q0 -0.75 0.53125 -1.25q0.515625 -0.5 1.28125 -0.5q0.75 0 1.28125 0.5q0.515625 0.5 0.515625 1.25q0 0.734375 -0.515625 1.234375q-0.53125 0.5 -1.28125 0.5zm0 -1.0q0.3125 0 0.53125 -0.21875q0.203125 -0.234375 0.203125 -0.515625q0 -0.3125 -0.203125 -0.53125q-0.21875 -0.234375 -0.53125 -0.234375q-0.3125 0 -0.53125 0.234375q-0.234375 0.21875 -0.234375 0.53125q0 0.28125 0.234375 0.515625q0.234375 0.21875 0.53125 0.21875zm6.171875 5.125q0 -0.703125 -0.140625 -1.109375q-0.140625 -0.40625 -0.546875 -0.625q-0.40625 -0.21875 -1.171875 -0.21875q-0.515625 0 -1.125 0.109375q-0.59375 0.109375 -1.078125 0.3125l0 -1.34375q0.5 -0.21875 1.1875 -0.34375q0.6875 -0.140625 1.34375 -0.140625q1.734375 0 2.5 0.75q0.78125 0.75 0.78125 2.390625l0 5.65625l-1.75 0l0 -5.4375zm3.7900085 -3.203125l1.734375 0l0 2.71875l2.5 0q0.90625 0 1.28125 -0.375q0.375 -0.390625 0.375 -1.21875l0 -1.125l1.734375 0l0 1.078125q0 1.8125 -1.296875 2.28125q0.6875 0.234375 0.953125 0.765625q0.265625 0.53125 0.265625 1.328125l0 3.1875l-1.734375 0l0 -2.96875q0 -0.9375 -0.359375 -1.28125q-0.34375 -0.34375 -1.28125 -0.34375l-2.4375 0l0 4.59375l-1.734375 0l0 -8.640625zm12.601517 8.796875q-1.390625 0 -2.171875 -0.8125q-0.765625 -0.828125 -0.765625 -2.3125l0 -5.671875l1.734375 0l0 5.578125q0 0.96875 0.421875 1.40625q0.421875 0.421875 1.359375 0.421875q0.6875 0 1.328125 -0.28125q0.640625 -0.296875 1.0625 -0.75l0 -6.375l1.734375 0l0 8.640625l-1.578125 0l-0.09375 -0.9375q-1.265625 1.09375 -3.03125 1.09375zm9.945648 0q-1.609375 0 -2.578125 -1.078125q-0.953125 -1.078125 -0.953125 -3.265625q0 -2.203125 1.109375 -3.40625q1.125 -1.203125 3.3125 -1.203125q1.40625 0 2.34375 0.484375q0.9375 0.484375 1.375 1.28125q0.4375 0.796875 0.4375 1.75l0 5.28125l-1.75 0l0 -5.203125q0 -1.03125 -0.5625 -1.609375q-0.5625 -0.578125 -1.875 -0.578125q-1.390625 0 -2.046875 0.796875q-0.65625 0.796875 -0.65625 2.40625q0 1.578125 0.53125 2.265625q0.53125 0.6875 1.625 0.6875q0.734375 0 1.09375 -0.125l0 1.328125q-0.53125 0.1875 -1.40625 0.1875zm8.55365 -0.15625q-1.6875 0 -1.6875 -1.65625l0 -3.703125q0 -0.84375 0.328125 -1.40625q0.328125 -0.5625 0.90625 -1.15625q0.359375 -0.359375 0.5 -0.578125q0.15625 -0.21875 0.15625 -0.46875q0 -0.453125 -0.25 -0.625q-0.25 -0.171875 -0.8125 -0.171875q-0.859375 0 -1.734375 0.484375l0 -1.28125q0.46875 -0.28125 1.09375 -0.4375q0.625 -0.15625 1.234375 -0.15625q1.125 0 1.6875 0.484375q0.578125 0.484375 0.578125 1.359375q0 0.546875 -0.234375 0.953125q-0.234375 0.390625 -0.703125 0.890625q-0.5 0.609375 -0.765625 1.046875q-0.25 0.4375 -0.25 1.109375l0 3.21875q0 0.4375 0.125 0.578125q0.140625 0.140625 0.578125 0.140625l0.734375 0l0 1.375l-1.484375 0zm3.23526 -8.640625l1.734375 0l0 2.71875l2.5 0q0.90625 0 1.28125 -0.375q0.375 -0.390625 0.375 -1.21875l0 -1.125l1.734375 0l0 1.078125q0 1.8125 -1.296875 2.28125q0.6875 0.234375 0.953125 0.765625q0.265625 0.53125 0.265625 1.328125l0 3.1875l-1.734375 0l0 -2.96875q0 -0.9375 -0.359375 -1.28125q-0.34375 -0.34375 -1.28125 -0.34375l-2.4375 0l0 4.59375l-1.734375 0l0 -8.640625zm3.9608917 -2.78125l-1.265625 0l0 -1.203125l2.46875 0l0 1.453125l3.453125 0l-0.0625 1.21875l-4.59375 0l0 -1.46875zm11.623138 1.125l4.578125 0q1.71875 0 2.59375 0.9375q0.875 0.9375 0.875 2.5q0 1.53125 -0.953125 2.46875q-0.953125 0.921875 -2.578125 0.921875l-2.78125 0l0 3.46875l-1.734375 0l0 -10.296875zm4.203125 5.453125q1.0 0 1.546875 -0.53125q0.546875 -0.546875 0.546875 -1.484375q0 -1.0 -0.515625 -1.53125q-0.515625 -0.546875 -1.5 -0.546875l-2.546875 0l0 4.09375l2.46875 0zm5.836899 -5.765625l1.90625 0l0 1.4375l-1.90625 0l0 -1.4375zm0.140625 4.359375l-1.140625 0l0.15625 -1.328125l2.734375 0l0 7.578125l-1.75 0l0 -6.25zm3.787384 -1.328125l1.59375 0l0.078125 0.796875q0.546875 -0.4375 1.265625 -0.703125q0.71875 -0.265625 1.53125 -0.265625q1.46875 0 2.140625 0.6875q0.671875 0.6875 0.671875 2.15625l0 4.90625l-1.71875 0l0 -4.828125q0 -0.890625 -0.375 -1.234375q-0.359375 -0.359375 -1.34375 -0.359375q-0.59375 0 -1.15625 0.25q-0.5625 0.234375 -0.953125 0.625l0 5.546875l-1.734375 0l0 -7.578125zm14.839905 6.71875q0.390625 -0.890625 1.0625 -1.640625q0.671875 -0.765625 1.6875 -1.640625q0.984375 -0.84375 1.390625 -1.265625q0.421875 -0.4375 0.59375 -0.84375q0.171875 -0.421875 0.171875 -1.03125q0 -0.84375 -0.5 -1.265625q-0.484375 -0.421875 -1.578125 -0.421875q-1.15625 0 -2.4375 0.46875l0 -1.53125q0.5625 -0.1875 1.328125 -0.3125q0.765625 -0.125 1.453125 -0.125q1.6875 0 2.578125 0.84375q0.90625 0.84375 0.90625 2.328125q0 1.015625 -0.484375 1.75q-0.484375 0.734375 -1.515625 1.65625l-0.265625 0.25q-0.90625 0.78125 -1.375 1.25q-0.46875 0.46875 -0.796875 1.046875l4.546875 0l0 1.34375l-6.765625 0l0 -0.859375zm8.144012 -4.125l6.109375 0l0 1.359375l-6.109375 0l0 -1.359375zm9.159882 -3.78125l-1.671875 0.28125l0 -1.453125l3.390625 -0.53125l0 10.46875l-1.71875 0l0 -8.765625zm6.354004 8.921875q-0.71875 0 -1.578125 -0.140625q-0.84375 -0.125 -1.34375 -0.3125l0 -1.53125q1.203125 0.5 2.6875 0.5q1.28125 0 1.875 -0.375q0.59375 -0.375 0.59375 -1.28125q0 -1.578125 -2.125 -1.578125l-1.5625 0l0.140625 -1.296875l1.296875 0q2.03125 0 2.03125 -1.59375q0 -0.78125 -0.546875 -1.140625q-0.53125 -0.375 -1.703125 -0.375q-0.640625 0 -1.3125 0.125q-0.65625 0.125 -1.1875 0.34375l0 -1.484375q0.515625 -0.203125 1.28125 -0.34375q0.765625 -0.140625 1.484375 -0.140625q1.828125 0 2.78125 0.78125q0.953125 0.78125 0.953125 2.078125q0 0.8125 -0.390625 1.46875q-0.390625 0.65625 -1.15625 0.921875q0.890625 0.25 1.328125 0.859375q0.4375 0.59375 0.4375 1.484375q0 1.5 -1.0625 2.265625q-1.0625 0.765625 -2.921875 0.765625z" fill-rule="nonzero"/><path fill="#ffffff" d="m176.06816 242.87575q-1.671875 0 -1.671875 -1.65625l0 -6.984375l1.71875 0l0 6.546875q0 0.359375 0.171875 0.546875q0.171875 0.171875 0.53125 0.171875l0.734375 0l0 1.375l-1.484375 0zm7.1463776 0.15625q-1.875 0 -2.90625 -0.875q-1.03125 -0.890625 -1.03125 -2.640625l0 -5.28125l1.734375 0l0 5.34375q0 1.0625 0.546875 1.5625q0.5625 0.5 1.65625 0.5q1.109375 0 1.671875 -0.5q0.5625 -0.5 0.5625 -1.5625l0 -7.90625l1.71875 0l0 7.84375q0 1.75 -1.03125 2.640625q-1.015625 0.875 -2.921875 0.875zm-2.1889954 -10.0625q-0.9375 0 -1.46875 -0.46875q-0.53125 -0.484375 -0.53125 -1.375q0 -0.890625 0.5625 -1.40625q0.5625 -0.53125 1.578125 -0.53125l3.53125 0l-0.078125 1.03125l-3.28125 0q-0.5625 0 -0.828125 0.21875q-0.265625 0.21875 -0.265625 0.6875q0 0.859375 0.890625 0.859375q0.84375 0 0.84375 -0.671875l0 -0.34375l1.0625 0l0 0.34375q0 0.328125 0.1875 0.484375q0.171875 0.140625 0.546875 0.140625l0.625 0l0 1.0l-0.734375 0q-0.40625 0 -0.71875 -0.109375q-0.3125 -0.125 -0.453125 -0.390625q-0.15625 0.265625 -0.578125 0.40625q-0.421875 0.125 -0.890625 0.125zm11.125015 10.0625q-1.390625 0 -2.171875 -0.8125q-0.765625 -0.828125 -0.765625 -2.3125l0 -5.671875l1.734375 0l0 5.578125q0 0.96875 0.421875 1.40625q0.421875 0.421875 1.359375 0.421875q0.6875 0 1.328125 -0.28125q0.640625 -0.296875 1.0625 -0.75l0 -6.375l1.734375 0l0 8.640625l-1.578125 0l-0.09375 -0.9375q-1.265625 1.09375 -3.03125 1.09375zm17.209412 0q-2.453125 0 -3.671875 -1.28125q-1.203125 -1.296875 -1.203125 -4.0q0 -2.78125 1.203125 -4.0625q1.203125 -1.28125 3.671875 -1.28125q2.484375 0 3.6875 1.28125q1.203125 1.28125 1.203125 4.0625q0 2.703125 -1.21875 4.0q-1.203125 1.28125 -3.671875 1.28125zm0 -1.46875q1.640625 0 2.390625 -0.890625q0.75 -0.90625 0.75 -2.921875q0 -2.09375 -0.75 -2.96875q-0.734375 -0.875 -2.390625 -0.875q-1.625 0 -2.375 0.875q-0.734375 0.875 -0.734375 2.96875q0 2.0 0.75 2.90625q0.75 0.90625 2.359375 0.90625zm10.995773 1.46875q-2.140625 0 -3.3125 -1.015625q-1.171875 -1.03125 -1.171875 -2.96875l0 -6.46875l1.75 0l0 6.40625q0 1.28125 0.703125 1.9375q0.703125 0.640625 2.03125 0.640625q1.3125 0 2.015625 -0.640625q0.703125 -0.65625 0.703125 -1.9375l0 -6.40625l1.734375 0l0 6.46875q0 1.9375 -1.171875 2.96875q-1.15625 1.015625 -3.28125 1.015625zm9.065277 -9.09375l-3.296875 0l0 -1.359375l8.3125 0l0 1.359375l-3.28125 0l0 8.9375l-1.734375 0l0 -8.9375zm6.4161377 -1.359375l4.578125 0q1.71875 0 2.59375 0.9375q0.875 0.9375 0.875 2.5q0 1.53125 -0.953125 2.46875q-0.953125 0.921875 -2.578125 0.921875l-2.78125 0l0 3.46875l-1.734375 0l0 -10.296875zm4.203125 5.453125q1.0 0 1.546875 -0.53125q0.546875 -0.546875 0.546875 -1.484375q0 -1.0 -0.515625 -1.53125q-0.515625 -0.546875 -1.5 -0.546875l-2.546875 0l0 4.09375l2.46875 0zm9.627518 5.0q-2.140625 0 -3.3125 -1.015625q-1.171875 -1.03125 -1.171875 -2.96875l0 -6.46875l1.75 0l0 6.40625q0 1.28125 0.703125 1.9375q0.703125 0.640625 2.03125 0.640625q1.3125 0 2.015625 -0.640625q0.703125 -0.65625 0.703125 -1.9375l0 -6.40625l1.734375 0l0 6.46875q0 1.9375 -1.171875 2.96875q-1.15625 1.015625 -3.28125 1.015625zm9.065262 -9.09375l-3.2968597 0l0 -1.359375l8.312485 0l0 1.359375l-3.28125 0l0 8.9375l-1.734375 0l0 -8.9375z" fill-rule="nonzero"/><path fill="#0f9d58" d="m125.00131 423.4685l14.748032 -58.992126l177.12599 0l-14.748047 58.992126z" fill-rule="evenodd"/><path fill="#ffffff" d="m169.13211 387.20743q0 -1.59375 1.265625 -1.984375l-1.734375 -0.421875l0 -1.796875q0.71875 -0.640625 1.78125 -1.046875q1.0625 -0.421875 2.359375 -0.421875q1.96875 0 2.953125 0.8125q1.0 0.8125 1.0 2.625l0 5.359375l-1.734375 0l0 -5.40625q0 -1.109375 -0.515625 -1.546875q-0.515625 -0.4375 -1.765625 -0.4375q-0.78125 0 -1.484375 0.234375q-0.6875 0.21875 -1.09375 0.578125l0 0.296875l1.828125 0.453125l0 1.15625q-0.625 0.15625 -0.890625 0.515625q-0.25 0.34375 -0.25 1.046875l0 3.109375l-1.71875 0l0 -3.125zm6.745514 -6.4375q-0.765625 0 -1.28125 -0.5q-0.53125 -0.5 -0.53125 -1.234375q0 -0.75 0.53125 -1.25q0.515625 -0.5 1.28125 -0.5q0.75 0 1.28125 0.5q0.515625 0.5 0.515625 1.25q0 0.734375 -0.515625 1.234375q-0.53125 0.5 -1.28125 0.5zm0 -1.0q0.3125 0 0.53125 -0.21875q0.203125 -0.234375 0.203125 -0.515625q0 -0.3125 -0.203125 -0.53125q-0.21875 -0.234375 -0.53125 -0.234375q-0.3125 0 -0.53125 0.234375q-0.234375 0.21875 -0.234375 0.53125q0 0.28125 0.234375 0.515625q0.234375 0.21875 0.53125 0.21875zm6.171875 5.125q0 -0.703125 -0.140625 -1.109375q-0.140625 -0.40625 -0.546875 -0.625q-0.40625 -0.21875 -1.171875 -0.21875q-0.515625 0 -1.125 0.109375q-0.59375 0.109375 -1.078125 0.3125l0 -1.34375q0.5 -0.21875 1.1875 -0.34375q0.6875 -0.140625 1.34375 -0.140625q1.734375 0 2.5 0.75q0.78125 0.75 0.78125 2.390625l0 5.65625l-1.75 0l0 -5.4375zm3.7900085 -3.203125l1.734375 0l0 2.71875l2.5 0q0.90625 0 1.28125 -0.375q0.375 -0.390625 0.375 -1.21875l0 -1.125l1.734375 0l0 1.078125q0 1.8125 -1.296875 2.28125q0.6875 0.234375 0.953125 0.765625q0.265625 0.53125 0.265625 1.328125l0 3.1875l-1.734375 0l0 -2.96875q0 -0.9375 -0.359375 -1.28125q-0.34375 -0.34375 -1.28125 -0.34375l-2.4375 0l0 4.59375l-1.734375 0l0 -8.640625zm12.601517 8.796875q-1.390625 0 -2.171875 -0.8125q-0.765625 -0.828125 -0.765625 -2.3125l0 -5.671875l1.734375 0l0 5.578125q0 0.96875 0.421875 1.40625q0.421875 0.421875 1.359375 0.421875q0.6875 0 1.328125 -0.28125q0.640625 -0.296875 1.0625 -0.75l0 -6.375l1.734375 0l0 8.640625l-1.578125 0l-0.09375 -0.9375q-1.265625 1.09375 -3.03125 1.09375zm9.945648 0q-1.609375 0 -2.578125 -1.078125q-0.953125 -1.078125 -0.953125 -3.265625q0 -2.203125 1.109375 -3.40625q1.125 -1.203125 3.3125 -1.203125q1.40625 0 2.34375 0.484375q0.9375 0.484375 1.375 1.28125q0.4375 0.796875 0.4375 1.75l0 5.28125l-1.75 0l0 -5.203125q0 -1.03125 -0.5625 -1.609375q-0.5625 -0.578125 -1.875 -0.578125q-1.390625 0 -2.046875 0.796875q-0.65625 0.796875 -0.65625 2.40625q0 1.578125 0.53125 2.265625q0.53125 0.6875 1.625 0.6875q0.734375 0 1.09375 -0.125l0 1.328125q-0.53125 0.1875 -1.40625 0.1875zm8.55365 -0.15625q-1.6875 0 -1.6875 -1.65625l0 -3.703125q0 -0.84375 0.328125 -1.40625q0.328125 -0.5625 0.90625 -1.15625q0.359375 -0.359375 0.5 -0.578125q0.15625 -0.21875 0.15625 -0.46875q0 -0.453125 -0.25 -0.625q-0.25 -0.171875 -0.8125 -0.171875q-0.859375 0 -1.734375 0.484375l0 -1.28125q0.46875 -0.28125 1.09375 -0.4375q0.625 -0.15625 1.234375 -0.15625q1.125 0 1.6875 0.484375q0.578125 0.484375 0.578125 1.359375q0 0.546875 -0.234375 0.953125q-0.234375 0.390625 -0.703125 0.890625q-0.5 0.609375 -0.765625 1.046875q-0.25 0.4375 -0.25 1.109375l0 3.21875q0 0.4375 0.125 0.578125q0.140625 0.140625 0.578125 0.140625l0.734375 0l0 1.375l-1.484375 0zm3.23526 -8.640625l1.734375 0l0 2.71875l2.5 0q0.90625 0 1.28125 -0.375q0.375 -0.390625 0.375 -1.21875l0 -1.125l1.734375 0l0 1.078125q0 1.8125 -1.296875 2.28125q0.6875 0.234375 0.953125 0.765625q0.265625 0.53125 0.265625 1.328125l0 3.1875l-1.734375 0l0 -2.96875q0 -0.9375 -0.359375 -1.28125q-0.34375 -0.34375 -1.28125 -0.34375l-2.4375 0l0 4.59375l-1.734375 0l0 -8.640625zm3.9608917 -2.78125l-1.265625 0l0 -1.203125l2.46875 0l0 1.453125l3.453125 0l-0.0625 1.21875l-4.59375 0l0 -1.46875zm11.623138 1.125l4.578125 0q1.71875 0 2.59375 0.9375q0.875 0.9375 0.875 2.5q0 1.53125 -0.953125 2.46875q-0.953125 0.921875 -2.578125 0.921875l-2.78125 0l0 3.46875l-1.734375 0l0 -10.296875zm4.203125 5.453125q1.0 0 1.546875 -0.53125q0.546875 -0.546875 0.546875 -1.484375q0 -1.0 -0.515625 -1.53125q-0.515625 -0.546875 -1.5 -0.546875l-2.546875 0l0 4.09375l2.46875 0zm5.836899 -5.765625l1.90625 0l0 1.4375l-1.90625 0l0 -1.4375zm0.140625 4.359375l-1.140625 0l0.15625 -1.328125l2.734375 0l0 7.578125l-1.75 0l0 -6.25zm3.787384 -1.328125l1.59375 0l0.078125 0.796875q0.546875 -0.4375 1.265625 -0.703125q0.71875 -0.265625 1.53125 -0.265625q1.46875 0 2.1406097 0.6875q0.671875 0.6875 0.671875 2.15625l0 4.90625l-1.7187347 0l0 -4.828125q0 -0.890625 -0.375 -1.234375q-0.359375 -0.359375 -1.34375 -0.359375q-0.59375 0 -1.15625 0.25q-0.5625 0.234375 -0.953125 0.625l0 5.546875l-1.734375 0l0 -7.578125zm14.83989 6.71875q0.390625 -0.890625 1.0625 -1.640625q0.671875 -0.765625 1.6875 -1.640625q0.984375 -0.84375 1.390625 -1.265625q0.421875 -0.4375 0.59375 -0.84375q0.171875 -0.421875 0.171875 -1.03125q0 -0.84375 -0.5 -1.265625q-0.484375 -0.421875 -1.578125 -0.421875q-1.15625 0 -2.4375 0.46875l0 -1.53125q0.5625 -0.1875 1.328125 -0.3125q0.765625 -0.125 1.453125 -0.125q1.6875 0 2.578125 0.84375q0.90625 0.84375 0.90625 2.328125q0 1.015625 -0.484375 1.75q-0.484375 0.734375 -1.515625 1.65625l-0.265625 0.25q-0.90625 0.78125 -1.375 1.25q-0.46875 0.46875 -0.796875 1.046875l4.546875 0l0 1.34375l-6.765625 0l0 -0.859375z" fill-rule="nonzero"/><path fill="#ffffff" d="m206.21469 409.33243q-1.671875 0 -1.671875 -1.65625l0 -6.984375l1.71875 0l0 6.546875q0 0.359375 0.171875 0.546875q0.171875 0.171875 0.53125 0.171875l0.734375 0l0 1.375l-1.484375 0zm7.1463776 0.15625q-1.875 0 -2.90625 -0.875q-1.03125 -0.890625 -1.03125 -2.640625l0 -5.28125l1.734375 0l0 5.34375q0 1.0625 0.546875 1.5625q0.5625 0.5 1.65625 0.5q1.109375 0 1.671875 -0.5q0.5625 -0.5 0.5625 -1.5625l0 -7.90625l1.71875 0l0 7.84375q0 1.75 -1.03125 2.640625q-1.015625 0.875 -2.921875 0.875zm-2.1889954 -10.0625q-0.9375 0 -1.46875 -0.46875q-0.53125 -0.484375 -0.53125 -1.375q0 -0.890625 0.5625 -1.40625q0.5625 -0.53125 1.578125 -0.53125l3.53125 0l-0.078125 1.03125l-3.28125 0q-0.5625 0 -0.828125 0.21875q-0.265625 0.21875 -0.265625 0.6875q0 0.859375 0.890625 0.859375q0.84375 0 0.84375 -0.671875l0 -0.34375l1.0625 0l0 0.34375q0 0.328125 0.1875 0.484375q0.171875 0.140625 0.546875 0.140625l0.625 0l0 1.0l-0.734375 0q-0.40625 0 -0.71875 -0.109375q-0.3125 -0.125 -0.453125 -0.390625q-0.15625 0.265625 -0.578125 0.40625q-0.421875 0.125 -0.890625 0.125zm11.125015 10.0625q-1.390625 0 -2.171875 -0.8125q-0.765625 -0.828125 -0.765625 -2.3125l0 -5.671875l1.734375 0l0 5.578125q0 0.96875 0.421875 1.40625q0.421875 0.421875 1.359375 0.421875q0.6875 0 1.328125 -0.28125q0.640625 -0.296875 1.0625 -0.75l0 -6.375l1.734375 0l0 8.640625l-1.578125 0l-0.09375 -0.9375q-1.265625 1.09375 -3.03125 1.09375zm14.006287 -8.921875l-1.671875 0.28125l0 -1.453125l3.390625 -0.53125l0 10.46875l-1.71875 0l0 -8.765625z" fill-rule="nonzero"/><path fill="#4a86e8" d="m157.37665 452.15747l127.1181 0l0 58.992126l-127.1181 0z" fill-rule="evenodd"/><path fill="#ffffff" d="m192.04427 487.6698q-1.640625 0 -2.546875 -0.859375q-0.90625 -0.875 -0.90625 -2.84375q0 -1.328125 0.453125 -2.265625q0.46875 -0.953125 1.28125 -1.4375q0.828125 -0.5 1.875 -0.5q0.671875 0 1.21875 0.171875q0.546875 0.15625 1.046875 0.484375l0 -3.6875l1.734375 0l0 10.78125l-1.484375 0l-0.109375 -0.75q-0.53125 0.484375 -1.140625 0.703125q-0.609375 0.203125 -1.421875 0.203125zm0.46875 -1.3125q1.171875 0 1.953125 -0.796875l0 -3.796875q-0.75 -0.671875 -1.890625 -0.671875q-1.109375 0 -1.671875 0.75q-0.546875 0.734375 -0.546875 2.140625q0 1.328125 0.5 1.859375q0.5 0.515625 1.65625 0.515625zm9.546387 1.3125q-2.015625 0 -3.09375 -0.984375q-1.0625 -1.0 -1.0625 -2.984375q0 -1.875 0.9375 -2.90625q0.953125 -1.03125 2.8125 -1.03125q1.671875 0 2.5625 0.890625q0.90625 0.875 0.90625 2.34375l0 1.40625l-5.546875 0q0.125 1.09375 0.78125 1.515625q0.65625 0.421875 2.0625 0.421875q0.578125 0 1.171875 -0.109375q0.59375 -0.109375 1.0625 -0.28125l0 1.28125q-1.0 0.4375 -2.59375 0.4375zm1.53125 -4.390625l0 -0.53125q0 -0.8125 -0.453125 -1.234375q-0.453125 -0.4375 -1.4375 -0.4375q-1.1875 0 -1.65625 0.515625q-0.46875 0.515625 -0.46875 1.6875l4.015625 0zm5.1076355 4.390625q-0.953125 0 -1.421875 -0.453125q-0.453125 -0.46875 -0.453125 -1.515625l0 -8.96875l1.734375 0l0 8.8125q0 0.4375 0.15625 0.609375q0.15625 0.15625 0.484375 0.15625q0.390625 0 0.734375 -0.09375l0 1.265625q-0.53125 0.1875 -1.234375 0.1875zm4.244385 0q-1.15625 0 -1.921875 -0.59375q-0.765625 -0.609375 -0.765625 -1.71875q0 -1.125 0.75 -1.765625q0.765625 -0.65625 2.296875 -0.65625l2.421875 0l0 -0.328125q0 -0.5625 -0.171875 -0.875q-0.15625 -0.3125 -0.609375 -0.453125q-0.453125 -0.15625 -1.28125 -0.15625q-1.34375 0 -2.515625 0.40625l0 -1.296875q0.546875 -0.203125 1.28125 -0.328125q0.734375 -0.140625 1.5625 -0.140625q1.6875 0 2.546875 0.6875q0.859375 0.6875 0.859375 2.1875l0 4.875l-1.484375 0l-0.125 -0.765625q-0.46875 0.46875 -1.15625 0.703125q-0.6875 0.21875 -1.6875 0.21875zm0.46875 -1.25q0.75 0 1.34375 -0.25q0.59375 -0.25 0.96875 -0.71875l0 -1.328125l-2.390625 0q-0.78125 0 -1.125 0.296875q-0.34375 0.28125 -0.34375 0.90625q0 0.578125 0.390625 0.84375q0.390625 0.25 1.15625 0.25zm6.907013 3.90625q-0.859375 0 -1.46875 -0.21875l0 -1.296875q0.453125 0.15625 0.96875 0.15625q0.484375 0 0.78125 -0.15625q0.3125 -0.140625 0.53125 -0.46875q0.234375 -0.3125 0.53125 -0.921875l-3.375 -7.484375l1.8125 0l2.421875 5.625l2.46875 -5.625l1.796875 0l-3.09375 7.140625q-0.6875 1.640625 -1.4375 2.4375q-0.734375 0.8125 -1.9375 0.8125zm13.456787 -3.671875q0.390625 -0.890625 1.0625 -1.640625q0.671875 -0.765625 1.6875 -1.640625q0.984375 -0.84375 1.390625 -1.265625q0.421875 -0.4375 0.59375 -0.84375q0.171875 -0.421875 0.171875 -1.03125q0 -0.84375 -0.5 -1.265625q-0.484375 -0.421875 -1.578125 -0.421875q-1.15625 0 -2.4375 0.46875l0 -1.53125q0.5625 -0.1875 1.328125 -0.3125q0.765625 -0.125 1.453125 -0.125q1.6875 0 2.578125 0.84375q0.90625 0.84375 0.90625 2.328125q0 1.015625 -0.484375 1.75q-0.484375 0.734375 -1.515625 1.65625l-0.265625 0.25q-0.90625 0.78125 -1.375 1.25q-0.46875 0.46875 -0.796875 1.046875l4.546875 0l0 1.34375l-6.765625 0l0 -0.859375zm11.050262 1.015625q-0.75 0 -1.546875 -0.125q-0.796875 -0.109375 -1.3125 -0.328125l0 -1.53125q0.546875 0.25 1.25 0.375q0.71875 0.125 1.390625 0.125q1.25 0 1.828125 -0.421875q0.578125 -0.4375 0.578125 -1.40625q0 -0.921875 -0.453125 -1.328125q-0.4375 -0.421875 -1.59375 -0.421875l-3.046875 0l0 -1.0625l0.265625 -4.328125l5.859375 0l-0.140625 1.34375l-4.234375 0l-0.1875 2.703125l1.75 0q1.828125 0 2.671875 0.78125q0.859375 0.765625 0.859375 2.34375q0 1.5625 -1.015625 2.421875q-1.0 0.859375 -2.921875 0.859375zm9.865021 0.125q-2.375 0 -3.453125 -1.359375q-1.078125 -1.359375 -1.078125 -3.953125q0 -2.6875 1.046875 -4.0625q1.0625 -1.375 3.484375 -1.375q2.3906097 0 3.4531097 1.375q1.0625 1.375 1.0625 4.0625q0 2.59375 -1.09375 3.953125q-1.078125 1.359375 -3.4218597 1.359375zm0 -1.484375q1.4687347 0 2.1093597 -0.96875q0.640625 -0.984375 0.640625 -2.859375q0 -2.0 -0.625 -2.96875q-0.625 -0.96875 -2.1249847 -0.96875q-1.515625 0 -2.140625 0.96875q-0.625 0.96875 -0.625 2.96875q0 1.890625 0.640625 2.859375q0.640625 0.96875 2.125 0.96875z" fill-rule="nonzero"/><path fill="#0f9d58" d="m443.5617 417.69946l14.748016 -58.992126l177.126 0l-14.748047 58.992126z" fill-rule="evenodd"/><path fill="#ffffff" d="m475.85245 381.43842q0 -1.59375 1.265625 -1.984375l-1.734375 -0.421875l0 -1.796875q0.71875 -0.640625 1.78125 -1.046875q1.0625 -0.421875 2.359375 -0.421875q1.96875 0 2.953125 0.8125q1.0 0.8125 1.0 2.625l0 5.359375l-1.734375 0l0 -5.40625q0 -1.109375 -0.515625 -1.546875q-0.515625 -0.4375 -1.765625 -0.4375q-0.78125 0 -1.484375 0.234375q-0.6875 0.21875 -1.09375 0.578125l0 0.296875l1.828125 0.453125l0 1.15625q-0.625 0.15625 -0.890625 0.515625q-0.25 0.34375 -0.25 1.046875l0 3.109375l-1.71875 0l0 -3.125zm6.745514 -6.4375q-0.765625 0 -1.28125 -0.5q-0.53125 -0.5 -0.53125 -1.234375q0 -0.75 0.53125 -1.25q0.515625 -0.5 1.28125 -0.5q0.75 0 1.28125 0.5q0.515625 0.5 0.515625 1.25q0 0.734375 -0.515625 1.234375q-0.53125 0.5 -1.28125 0.5zm0 -1.0q0.3125 0 0.53125 -0.21875q0.203125 -0.234375 0.203125 -0.515625q0 -0.3125 -0.203125 -0.53125q-0.21875 -0.234375 -0.53125 -0.234375q-0.3125 0 -0.53125 0.234375q-0.234375 0.21875 -0.234375 0.53125q0 0.28125 0.234375 0.515625q0.234375 0.21875 0.53125 0.21875zm6.171875 5.125q0 -0.703125 -0.140625 -1.109375q-0.140625 -0.40625 -0.546875 -0.625q-0.40625 -0.21875 -1.171875 -0.21875q-0.515625 0 -1.125 0.109375q-0.59375 0.109375 -1.078125 0.3125l0 -1.34375q0.5 -0.21875 1.1875 -0.34375q0.6875 -0.140625 1.34375 -0.140625q1.734375 0 2.5 0.75q0.78125 0.75 0.78125 2.390625l0 5.65625l-1.75 0l0 -5.4375zm3.7900085 -3.203125l1.734375 0l0 2.71875l2.5 0q0.90625 0 1.28125 -0.375q0.375 -0.390625 0.375 -1.21875l0 -1.125l1.734375 0l0 1.078125q0 1.8125 -1.296875 2.28125q0.6875 0.234375 0.953125 0.765625q0.265625 0.53125 0.265625 1.328125l0 3.1875l-1.734375 0l0 -2.96875q0 -0.9375 -0.359375 -1.28125q-0.34375 -0.34375 -1.28125 -0.34375l-2.4375 0l0 4.59375l-1.734375 0l0 -8.640625zm12.601532 8.796875q-1.390625 0 -2.171875 -0.8125q-0.765625 -0.828125 -0.765625 -2.3125l0 -5.671875l1.734375 0l0 5.578125q0 0.96875 0.421875 1.40625q0.421875 0.421875 1.359375 0.421875q0.6875 0 1.328125 -0.28125q0.640625 -0.296875 1.0625 -0.75l0 -6.375l1.734375 0l0 8.640625l-1.578125 0l-0.09375 -0.9375q-1.265625 1.09375 -3.03125 1.09375zm9.945618 0q-1.609375 0 -2.578125 -1.078125q-0.9530945 -1.078125 -0.9530945 -3.265625q0 -2.203125 1.1093445 -3.40625q1.125 -1.203125 3.3125 -1.203125q1.40625 0 2.34375 0.484375q0.9375 0.484375 1.375 1.28125q0.4375 0.796875 0.4375 1.75l0 5.28125l-1.75 0l0 -5.203125q0 -1.03125 -0.5625 -1.609375q-0.5625 -0.578125 -1.875 -0.578125q-1.390625 0 -2.046875 0.796875q-0.65625 0.796875 -0.65625 2.40625q0 1.578125 0.53125 2.265625q0.53125 0.6875 1.625 0.6875q0.734375 0 1.09375 -0.125l0 1.328125q-0.53125 0.1875 -1.40625 0.1875zm8.55365 -0.15625q-1.6875 0 -1.6875 -1.65625l0 -3.703125q0 -0.84375 0.328125 -1.40625q0.328125 -0.5625 0.90625 -1.15625q0.359375 -0.359375 0.5 -0.578125q0.15625 -0.21875 0.15625 -0.46875q0 -0.453125 -0.25 -0.625q-0.25 -0.171875 -0.8125 -0.171875q-0.859375 0 -1.734375 0.484375l0 -1.28125q0.46875 -0.28125 1.09375 -0.4375q0.625 -0.15625 1.234375 -0.15625q1.125 0 1.6875 0.484375q0.578125 0.484375 0.578125 1.359375q0 0.546875 -0.234375 0.953125q-0.234375 0.390625 -0.703125 0.890625q-0.5 0.609375 -0.765625 1.046875q-0.25 0.4375 -0.25 1.109375l0 3.21875q0 0.4375 0.125 0.578125q0.140625 0.140625 0.578125 0.140625l0.734375 0l0 1.375l-1.484375 0zm3.2352905 -8.640625l1.734375 0l0 2.71875l2.5 0q0.90625 0 1.28125 -0.375q0.375 -0.390625 0.375 -1.21875l0 -1.125l1.734375 0l0 1.078125q0 1.8125 -1.296875 2.28125q0.6875 0.234375 0.953125 0.765625q0.265625 0.53125 0.265625 1.328125l0 3.1875l-1.734375 0l0 -2.96875q0 -0.9375 -0.359375 -1.28125q-0.34375 -0.34375 -1.28125 -0.34375l-2.4375 0l0 4.59375l-1.734375 0l0 -8.640625zm3.9608765 -2.78125l-1.265625 0l0 -1.203125l2.46875 0l0 1.453125l3.453125 0l-0.0625 1.21875l-4.59375 0l0 -1.46875zm11.623169 1.125l4.578125 0q1.71875 0 2.59375 0.9375q0.875 0.9375 0.875 2.5q0 1.53125 -0.953125 2.46875q-0.953125 0.921875 -2.578125 0.921875l-2.78125 0l0 3.46875l-1.734375 0l0 -10.296875zm4.203125 5.453125q1.0 0 1.546875 -0.53125q0.546875 -0.546875 0.546875 -1.484375q0 -1.0 -0.515625 -1.53125q-0.515625 -0.546875 -1.5 -0.546875l-2.546875 0l0 4.09375l2.46875 0zm5.836853 -5.765625l1.90625 0l0 1.4375l-1.90625 0l0 -1.4375zm0.140625 4.359375l-1.140625 0l0.15625 -1.328125l2.734375 0l0 7.578125l-1.75 0l0 -6.25zm3.7874146 -1.328125l1.59375 0l0.078125 0.796875q0.546875 -0.4375 1.265625 -0.703125q0.71875 -0.265625 1.53125 -0.265625q1.46875 0 2.140625 0.6875q0.671875 0.6875 0.671875 2.15625l0 4.90625l-1.71875 0l0 -4.828125q0 -0.890625 -0.375 -1.234375q-0.359375 -0.359375 -1.34375 -0.359375q-0.59375 0 -1.15625 0.25q-0.5625 0.234375 -0.953125 0.625l0 5.546875l-1.734375 0l0 -7.578125zm14.839905 6.71875q0.390625 -0.890625 1.0625 -1.640625q0.671875 -0.765625 1.6875 -1.640625q0.984375 -0.84375 1.390625 -1.265625q0.421875 -0.4375 0.59375 -0.84375q0.171875 -0.421875 0.171875 -1.03125q0 -0.84375 -0.5 -1.265625q-0.484375 -0.421875 -1.578125 -0.421875q-1.15625 0 -2.4375 0.46875l0 -1.53125q0.5625 -0.1875 1.328125 -0.3125q0.765625 -0.125 1.453125 -0.125q1.6875 0 2.578125 0.84375q0.90625 0.84375 0.90625 2.328125q0 1.015625 -0.484375 1.75q-0.484375 0.734375 -1.515625 1.65625l-0.265625 0.25q-0.90625 0.78125 -1.375 1.25q-0.46875 0.46875 -0.796875 1.046875l4.546875 0l0 1.34375l-6.765625 0l0 -0.859375zm8.143982 -4.125l6.109375 0l0 1.359375l-6.109375 0l0 -1.359375zm9.159912 -3.78125l-1.671875 0.28125l0 -1.453125l3.390625 -0.53125l0 10.46875l-1.71875 0l0 -8.765625zm6.354004 8.921875q-0.71875 0 -1.578125 -0.140625q-0.84375 -0.125 -1.34375 -0.3125l0 -1.53125q1.203125 0.5 2.6875 0.5q1.28125 0 1.875 -0.375q0.59375 -0.375 0.59375 -1.28125q0 -1.578125 -2.125 -1.578125l-1.5625 0l0.140625 -1.296875l1.296875 0q2.03125 0 2.03125 -1.59375q0 -0.78125 -0.546875 -1.140625q-0.53125 -0.375 -1.703125 -0.375q-0.640625 0 -1.3125 0.125q-0.65625 0.125 -1.1875 0.34375l0 -1.484375q0.515625 -0.203125 1.28125 -0.34375q0.765625 -0.140625 1.484375 -0.140625q1.828125 0 2.78125 0.78125q0.953125 0.78125 0.953125 2.078125q0 0.8125 -0.390625 1.46875q-0.390625 0.65625 -1.15625 0.921875q0.890625 0.25 1.328125 0.859375q0.4375 0.59375 0.4375 1.484375q0 1.5 -1.0625 2.265625q-1.0625 0.765625 -2.921875 0.765625z" fill-rule="nonzero"/><path fill="#ffffff" d="m507.015 403.56342q-1.671875 0 -1.671875 -1.65625l0 -6.984375l1.71875 0l0 6.546875q0 0.359375 0.171875 0.546875q0.171875 0.171875 0.53125 0.171875l0.734375 0l0 1.375l-1.484375 0zm7.1463623 0.15625q-1.875 0 -2.9062195 -0.875q-1.03125 -0.890625 -1.03125 -2.640625l0 -5.28125l1.734375 0l0 5.34375q0 1.0625 0.5468445 1.5625q0.5625 0.5 1.65625 0.5q1.109375 0 1.671875 -0.5q0.5625 -0.5 0.5625 -1.5625l0 -7.90625l1.71875 0l0 7.84375q0 1.75 -1.03125 2.640625q-1.015625 0.875 -2.921875 0.875zm-2.1889648 -10.0625q-0.9375 0 -1.46875 -0.46875q-0.53125 -0.484375 -0.53125 -1.375q0 -0.890625 0.5625 -1.40625q0.5625 -0.53125 1.578125 -0.53125l3.53125 0l-0.078125 1.03125l-3.28125 0q-0.5625 0 -0.828125 0.21875q-0.265625 0.21875 -0.265625 0.6875q0 0.859375 0.890625 0.859375q0.84375 0 0.84375 -0.671875l0 -0.34375l1.0625 0l0 0.34375q0 0.328125 0.1875 0.484375q0.171875 0.140625 0.546875 0.140625l0.625 0l0 1.0l-0.734375 0q-0.40625 0 -0.71875 -0.109375q-0.3125 -0.125 -0.453125 -0.390625q-0.15625 0.265625 -0.578125 0.40625q-0.421875 0.125 -0.890625 0.125zm11.125 10.0625q-1.390625 0 -2.171875 -0.8125q-0.765625 -0.828125 -0.765625 -2.3125l0 -5.671875l1.734375 0l0 5.578125q0 0.96875 0.421875 1.40625q0.421875 0.421875 1.359375 0.421875q0.6875 0 1.328125 -0.28125q0.640625 -0.296875 1.0625 -0.75l0 -6.375l1.734375 0l0 8.640625l-1.578125 0l-0.09375 -0.9375q-1.265625 1.09375 -3.03125 1.09375zm16.865662 0.125q-2.375 0 -3.453125 -1.359375q-1.078125 -1.359375 -1.078125 -3.953125q0 -2.6875 1.046875 -4.0625q1.0625 -1.375 3.484375 -1.375q2.390625 0 3.453125 1.375q1.0625 1.375 1.0625 4.0625q0 2.59375 -1.09375 3.953125q-1.078125 1.359375 -3.421875 1.359375zm0 -1.484375q1.46875 0 2.109375 -0.96875q0.640625 -0.984375 0.640625 -2.859375q0 -2.0 -0.625 -2.96875q-0.625 -0.96875 -2.125 -0.96875q-1.515625 0 -2.140625 0.96875q-0.625 0.96875 -0.625 2.96875q0 1.890625 0.640625 2.859375q0.640625 0.96875 2.125 0.96875z" fill-rule="nonzero"/><path fill="#4a86e8" d="m475.93832 445.1719l127.11813 0l0 58.992126l-127.11813 0z" fill-rule="evenodd"/><path fill="#ffffff" d="m507.64594 480.68423q-1.640625 0 -2.546875 -0.859375q-0.90625 -0.875 -0.90625 -2.84375q0 -1.328125 0.453125 -2.265625q0.46875 -0.953125 1.28125 -1.4375q0.828125 -0.5 1.875 -0.5q0.671875 0 1.21875 0.171875q0.546875 0.15625 1.046875 0.484375l0 -3.6875l1.734375 0l0 10.78125l-1.484375 0l-0.109375 -0.75q-0.53125 0.484375 -1.140625 0.703125q-0.609375 0.203125 -1.421875 0.203125zm0.46875 -1.3125q1.171875 0 1.953125 -0.796875l0 -3.796875q-0.75 -0.671875 -1.890625 -0.671875q-1.109375 0 -1.671875 0.75q-0.546875 0.734375 -0.546875 2.140625q0 1.328125 0.5 1.859375q0.5 0.515625 1.65625 0.515625zm9.546387 1.3125q-2.015625 0 -3.09375 -0.984375q-1.0625 -1.0 -1.0625 -2.984375q0 -1.875 0.9375 -2.90625q0.953125 -1.03125 2.8125 -1.03125q1.671875 0 2.5625 0.890625q0.90625 0.875 0.90625 2.34375l0 1.40625l-5.546875 0q0.125 1.09375 0.78125 1.515625q0.65625 0.421875 2.0625 0.421875q0.578125 0 1.171875 -0.109375q0.59375 -0.109375 1.0625 -0.28125l0 1.28125q-1.0 0.4375 -2.59375 0.4375zm1.53125 -4.390625l0 -0.53125q0 -0.8125 -0.453125 -1.234375q-0.453125 -0.4375 -1.4375 -0.4375q-1.1875 0 -1.65625 0.515625q-0.46875 0.515625 -0.46875 1.6875l4.015625 0zm5.107666 4.390625q-0.953125 0 -1.421875 -0.453125q-0.453125 -0.46875 -0.453125 -1.515625l0 -8.96875l1.734375 0l0 8.8125q0 0.4375 0.15625 0.609375q0.15625 0.15625 0.484375 0.15625q0.390625 0 0.734375 -0.09375l0 1.265625q-0.53125 0.1875 -1.234375 0.1875zm4.244385 0q-1.15625 0 -1.921875 -0.59375q-0.765625 -0.609375 -0.765625 -1.71875q0 -1.125 0.75 -1.765625q0.765625 -0.65625 2.296875 -0.65625l2.421875 0l0 -0.328125q0 -0.5625 -0.171875 -0.875q-0.15625 -0.3125 -0.609375 -0.453125q-0.453125 -0.15625 -1.28125 -0.15625q-1.34375 0 -2.515625 0.40625l0 -1.296875q0.546875 -0.203125 1.28125 -0.328125q0.734375 -0.140625 1.5625 -0.140625q1.6875 0 2.546875 0.6875q0.859375 0.6875 0.859375 2.1875l0 4.875l-1.484375 0l-0.125 -0.765625q-0.46875 0.46875 -1.15625 0.703125q-0.6875 0.21875 -1.6875 0.21875zm0.46875 -1.25q0.75 0 1.34375 -0.25q0.59375 -0.25 0.96875 -0.71875l0 -1.328125l-2.390625 0q-0.78125 0 -1.125 0.296875q-0.34375 0.28125 -0.34375 0.90625q0 0.578125 0.390625 0.84375q0.390625 0.25 1.15625 0.25zm6.9069824 3.90625q-0.859375 0 -1.46875 -0.21875l0 -1.296875q0.453125 0.15625 0.96875 0.15625q0.484375 0 0.78125 -0.15625q0.3125 -0.140625 0.53125 -0.46875q0.234375 -0.3125 0.53125 -0.921875l-3.375 -7.484375l1.8125 0l2.421875 5.625l2.46875 -5.625l1.796875 0l-3.09375 7.140625q-0.6875 1.640625 -1.4375 2.4375q-0.734375 0.8125 -1.9375 0.8125zm13.456787 -3.671875q0.390625 -0.890625 1.0625 -1.640625q0.671875 -0.765625 1.6875 -1.640625q0.984375 -0.84375 1.390625 -1.265625q0.421875 -0.4375 0.59375 -0.84375q0.171875 -0.421875 0.171875 -1.03125q0 -0.84375 -0.5 -1.265625q-0.484375 -0.421875 -1.578125 -0.421875q-1.15625 0 -2.4375 0.46875l0 -1.53125q0.5625 -0.1875 1.328125 -0.3125q0.765625 -0.125 1.453125 -0.125q1.6875 0 2.578125 0.84375q0.90625 0.84375 0.90625 2.328125q0 1.015625 -0.484375 1.75q-0.484375 0.734375 -1.515625 1.65625l-0.265625 0.25q-0.90625 0.78125 -1.375 1.25q-0.46875 0.46875 -0.796875 1.046875l4.546875 0l0 1.34375l-6.765625 0l0 -0.859375zm11.050232 1.015625q-0.75 0 -1.546875 -0.125q-0.796875 -0.109375 -1.3125 -0.328125l0 -1.53125q0.546875 0.25 1.25 0.375q0.71875 0.125 1.390625 0.125q1.25 0 1.828125 -0.421875q0.578125 -0.4375 0.578125 -1.40625q0 -0.921875 -0.453125 -1.328125q-0.4375 -0.421875 -1.59375 -0.421875l-3.046875 0l0 -1.0625l0.265625 -4.328125l5.859375 0l-0.140625 1.34375l-4.234375 0l-0.1875 2.703125l1.75 0q1.828125 0 2.671875 0.78125q0.859375 0.765625 0.859375 2.34375q0 1.5625 -1.015625 2.421875q-1.0 0.859375 -2.921875 0.859375zm9.865051 0.125q-2.375 0 -3.453125 -1.359375q-1.078125 -1.359375 -1.078125 -3.953125q0 -2.6875 1.046875 -4.0625q1.0625 -1.375 3.484375 -1.375q2.390625 0 3.453125 1.375q1.0625 1.375 1.0625 4.0625q0 2.59375 -1.09375 3.953125q-1.078125 1.359375 -3.421875 1.359375zm0 -1.484375q1.46875 0 2.109375 -0.96875q0.640625 -0.984375 0.640625 -2.859375q0 -2.0 -0.625 -2.96875q-0.625 -0.96875 -2.125 -0.96875q-1.515625 0 -2.140625 0.96875q-0.625 0.96875 -0.625 2.96875q0 1.890625 0.640625 2.859375q0.640625 0.96875 2.125 0.96875z" fill-rule="nonzero"/><path fill="#000000" fill-opacity="0.0" d="m220.94142 81.79895l0 26.551178" fill-rule="evenodd"/><path stroke="#000000" stroke-width="1.0" stroke-linejoin="round" stroke-linecap="butt" d="m220.94142 81.79895l0 20.551178" fill-rule="evenodd"/><path fill="#000000" stroke="#000000" stroke-width="1.0" stroke-linecap="butt" d="m219.28969 102.35013l1.6517334 4.5380936l1.6517334 -4.5380936z" fill-rule="evenodd"/><path fill="#000000" fill-opacity="0.0" d="m220.93898 167.32344l0 17.795288" fill-rule="evenodd"/><path stroke="#000000" stroke-width="1.0" stroke-linejoin="round" stroke-linecap="butt" d="m220.93898 167.32346l0 11.795273" fill-rule="evenodd"/><path fill="#000000" stroke="#000000" stroke-width="1.0" stroke-linecap="butt" d="m219.28725 179.11873l1.6517334 4.538101l1.6517334 -4.538101z" fill-rule="evenodd"/><path fill="#000000" fill-opacity="0.0" d="m220.93832 269.9252l0 17.795258" fill-rule="evenodd"/><path stroke="#000000" stroke-width="1.0" stroke-linejoin="round" stroke-linecap="butt" d="m220.93832 269.9252l0 11.795258" fill-rule="evenodd"/><path fill="#000000" stroke="#000000" stroke-width="1.0" stroke-linecap="butt" d="m219.28659 281.72046l1.6517334 4.5381165l1.6517334 -4.5381165z" fill-rule="evenodd"/><path fill="#000000" fill-opacity="0.0" d="m220.93832 423.4685l0 28.692902" fill-rule="evenodd"/><path stroke="#000000" stroke-width="1.0" stroke-linejoin="round" stroke-linecap="butt" d="m220.93832 423.4685l0 22.692902" fill-rule="evenodd"/><path fill="#000000" stroke="#000000" stroke-width="1.0" stroke-linecap="butt" d="m219.28659 446.1614l1.6517334 4.5381165l1.6517334 -4.5381165z" fill-rule="evenodd"/><path fill="#000000" fill-opacity="0.0" d="m220.93636 346.6929l0 17.795288" fill-rule="evenodd"/><path stroke="#000000" stroke-width="1.0" stroke-linejoin="round" stroke-linecap="butt" d="m220.93636 346.6929l0 11.795288" fill-rule="evenodd"/><path fill="#000000" stroke="#000000" stroke-width="1.0" stroke-linecap="butt" d="m219.28462 358.4882l1.6517334 4.538086l1.6517334 -4.538086z" fill-rule="evenodd"/><path fill="#000000" fill-opacity="0.0" d="m539.4987 417.69946l0 27.46457" fill-rule="evenodd"/><path stroke="#000000" stroke-width="1.0" stroke-linejoin="round" stroke-linecap="butt" d="m539.49866 417.69946l0 21.46457" fill-rule="evenodd"/><path fill="#000000" stroke="#000000" stroke-width="1.0" stroke-linecap="butt" d="m537.847 439.16403l1.6516724 4.5381165l1.6517334 -4.5381165z" fill-rule="evenodd"/><path fill="#f4b400" d="m465.62738 569.1168l73.8714 -37.477722l73.8714 37.477722l-73.8714 37.47766z" fill-rule="evenodd"/><path fill="#ffffff" d="m516.5162 565.63306q-1.875 0 -2.90625 -0.875q-1.03125 -0.890625 -1.03125 -2.640625l0 -5.28125l1.734375 0l0 5.34375q0 1.0625 0.546875 1.5625q0.5625 0.5 1.65625 0.5q1.109375 0 1.671875 -0.5q0.5625 -0.5 0.5625 -1.5625l0 -7.90625l1.71875 0l0 7.84375q0 1.75 -1.03125 2.640625q-1.015625 0.875 -2.921875 0.875zm-4.20459 -11.328125l5.375 0l0 1.21875l-5.46875 0l0.09375 -1.21875zm13.40625 11.328125q-1.609375 0 -2.578125 -1.078125q-0.953125 -1.078125 -0.953125 -3.265625q0 -2.203125 1.109375 -3.40625q1.125 -1.203125 3.3125 -1.203125q1.40625 0 2.34375 0.484375q0.9375 0.484375 1.375 1.28125q0.4375 0.796875 0.4375 1.75l0 5.28125l-1.75 0l0 -5.203125q0 -1.03125 -0.5625 -1.609375q-0.5625 -0.578125 -1.875 -0.578125q-1.390625 0 -2.046875 0.796875q-0.65625 0.796875 -0.65625 2.40625q0 1.578125 0.53125 2.265625q0.53125 0.6875 1.625 0.6875q0.734375 0 1.09375 -0.125l0 1.328125q-0.53125 0.1875 -1.40625 0.1875zm7.225525 -3.28125q0 -1.59375 1.265625 -1.984375l-1.734375 -0.421875l0 -1.796875q0.71875 -0.640625 1.78125 -1.046875q1.0625 -0.421875 2.359375 -0.421875q1.96875 0 2.953125 0.8125q1.0 0.8125 1.0 2.625l0 5.359375l-1.734375 0l0 -5.40625q0 -1.109375 -0.515625 -1.546875q-0.515625 -0.4375 -1.765625 -0.4375q-0.78125 0 -1.484375 0.234375q-0.6875 0.21875 -1.09375 0.578125l0 0.296875l1.828125 0.453125l0 1.15625q-0.625 0.15625 -0.890625 0.515625q-0.25 0.34375 -0.25 1.046875l0 3.109375l-1.71875 0l0 -3.125zm12.917419 -2.3125q0 -0.703125 -0.140625 -1.109375q-0.140625 -0.40625 -0.546875 -0.625q-0.40625 -0.21875 -1.171875 -0.21875q-0.515625 0 -1.125 0.109375q-0.59375 0.109375 -1.078125 0.3125l0 -1.34375q0.5 -0.21875 1.1875 -0.34375q0.6875 -0.140625 1.34375 -0.140625q1.734375 0 2.5 0.75q0.78125 0.75 0.78125 2.390625l0 5.65625l-1.75 0l0 -5.4375zm6.618103 5.59375q-0.875 0 -1.671875 -0.109375q-0.78125 -0.109375 -1.28125 -0.3125l0 -1.46875q0.59375 0.25 1.296875 0.375q0.703125 0.125 1.328125 0.125q1.171875 0 1.671875 -0.203125q0.5 -0.203125 0.5 -0.828125q0 -0.390625 -0.203125 -0.625q-0.1875 -0.234375 -0.53125 -0.375q-0.328125 -0.140625 -1.03125 -0.359375l-0.625 -0.21875q-1.3125 -0.4375 -1.96875 -0.96875q-0.640625 -0.546875 -0.640625 -1.53125q0 -1.15625 0.875 -1.796875q0.890625 -0.65625 2.59375 -0.65625q0.703125 0 1.421875 0.109375q0.71875 0.109375 1.21875 0.265625l0 1.453125q-0.515625 -0.203125 -1.171875 -0.3125q-0.640625 -0.109375 -1.203125 -0.109375q-1.015625 0 -1.53125 0.21875q-0.515625 0.21875 -0.515625 0.78125q0 0.34375 0.203125 0.578125q0.21875 0.21875 0.578125 0.375q0.375 0.140625 1.140625 0.390625l0.46875 0.15625q1.375 0.453125 1.984375 1.015625q0.609375 0.546875 0.609375 1.609375q0 1.21875 -0.9375 1.828125q-0.921875 0.59375 -2.578125 0.59375z" fill-rule="nonzero"/><path fill="#ffffff" d="m512.5787 575.8362l1.578125 0l0.09375 0.9375q1.296875 -1.09375 3.078125 -1.09375q1.359375 0 2.125 0.8125q0.765625 0.8125 0.765625 2.28125l0 5.703125l-1.734375 0l0 -5.609375q0 -0.9375 -0.4375 -1.359375q-0.4375 -0.421875 -1.34375 -0.421875q-0.6875 0 -1.3125 0.296875q-0.625 0.28125 -1.078125 0.734375l0 6.359375l-1.734375 0l0 -8.640625zm6.7581787 -0.921875q-0.765625 0 -1.28125 -0.5q-0.53125 -0.5 -0.53125 -1.234375q0 -0.75 0.53125 -1.25q0.515625 -0.5 1.28125 -0.5q0.75 0 1.28125 0.5q0.515625 0.5 0.515625 1.25q0 0.734375 -0.515625 1.234375q-0.53125 0.5 -1.28125 0.5zm0 -1.0q0.3125 0 0.53125 -0.21875q0.203125 -0.234375 0.203125 -0.515625q0 -0.3125 -0.203125 -0.53125q-0.21875 -0.234375 -0.53125 -0.234375q-0.3125 0 -0.53125 0.234375q-0.234375 0.21875 -0.234375 0.53125q0 0.28125 0.234375 0.515625q0.234375 0.21875 0.53125 0.21875zm6.171875 5.125q0 -0.703125 -0.140625 -1.109375q-0.140625 -0.40625 -0.546875 -0.625q-0.40625 -0.21875 -1.171875 -0.21875q-0.515625 0 -1.125 0.109375q-0.59375 0.109375 -1.078125 0.3125l0 -1.34375q0.5 -0.21875 1.1875 -0.34375q0.6875 -0.140625 1.34375 -0.140625q1.734375 0 2.5 0.75q0.78125 0.75 0.78125 2.390625l0 5.65625l-1.75 0l0 -5.4375zm7.180603 5.59375q-1.03125 0 -1.609375 -0.203125l-2.421875 -5.921875l1.6875 0l1.96875 4.796875q1.359375 0.0625 1.984375 -0.78125q0.640625 -0.84375 0.640625 -2.640625q0 -1.046875 -0.203125 -1.640625q-0.1875 -0.59375 -0.640625 -0.84375q-0.4375 -0.25 -1.25 -0.25l-0.609375 0l0 -1.3125l0.828125 0q1.84375 0 2.703125 0.984375q0.859375 0.984375 0.859375 3.046875q0 2.4375 -1.078125 3.609375q-1.0625 1.15625 -2.859375 1.15625zm8.883423 -5.59375q0 -0.703125 -0.140625 -1.109375q-0.140625 -0.40625 -0.546875 -0.625q-0.40625 -0.21875 -1.171875 -0.21875q-0.515625 0 -1.125 0.109375q-0.59375 0.109375 -1.078125 0.3125l0 -1.34375q0.5 -0.21875 1.1875 -0.34375q0.6875 -0.140625 1.34375 -0.140625q1.734375 0 2.5 0.75q0.78125 0.75 0.78125 2.390625l0 5.65625l-1.75 0l0 -5.4375zm6.727478 5.59375q-1.390625 0 -2.171875 -0.8125q-0.765625 -0.828125 -0.765625 -2.3125l0 -5.671875l1.734375 0l0 5.578125q0 0.96875 0.421875 1.40625q0.421875 0.421875 1.359375 0.421875q0.6875 0 1.328125 -0.28125q0.640625 -0.296875 1.0625 -0.75l0 -6.375l1.734375 0l0 8.640625l-1.578125 0l-0.09375 -0.9375q-1.265625 1.09375 -3.03125 1.09375z" fill-rule="nonzero"/><path fill="#cc0000" d="m513.6186 658.04333l51.75952 0l0 0c6.7806396 0 12.277405 7.6654053 12.277405 17.121216c0 9.455811 -5.496765 17.121277 -12.277405 17.121277l-51.75952 0l0 0c-6.780609 0 -12.277405 -7.6654663 -12.277405 -17.121277c0 -9.455811 5.4967957 -17.121216 12.277405 -17.121216z" fill-rule="evenodd"/><path fill="#ffffff" d="m530.231 681.1808q-0.34375 0 -0.75 -0.0625q-0.390625 -0.046875 -0.625 -0.140625l-1.28125 -3.40625l-1.109375 0l0.078125 -1.3125l2.125 0l1.328125 3.546875q1.140625 0.046875 1.828125 -0.71875q0.6875 -0.765625 0.6875 -2.46875q0 -1.125 -0.296875 -1.765625q-0.296875 -0.65625 -0.96875 -0.9375q-0.671875 -0.28125 -1.859375 -0.28125q-1.46875 0 -2.734375 0.421875l0 -1.34375q1.515625 -0.484375 3.203125 -0.484375q2.234375 0 3.28125 1.109375q1.0625 1.109375 1.0625 3.28125q0 1.453125 -0.546875 2.484375q-0.53125 1.03125 -1.4375 1.5625q-0.90625 0.515625 -1.984375 0.515625zm9.604004 0q-1.875 0 -2.90625 -0.875q-1.03125 -0.890625 -1.03125 -2.640625l0 -5.28125l1.734375 0l0 5.34375q0 1.0625 0.546875 1.5625q0.5625 0.5 1.65625 0.5q1.109375 0 1.671875 -0.5q0.5625 -0.5 0.5625 -1.5625l0 -5.34375l1.71875 0l0 5.28125q0 1.75 -1.03125 2.640625q-1.015625 0.875 -2.921875 0.875z" fill-rule="nonzero"/><path fill="#000000" fill-opacity="0.0" d="m539.4988 606.5945l0 51.4646" fill-rule="evenodd"/><path stroke="#000000" stroke-width="1.0" stroke-linejoin="round" stroke-linecap="butt" d="m539.4988 606.5945l0 45.4646" fill-rule="evenodd"/><path fill="#000000" stroke="#000000" stroke-width="1.0" stroke-linecap="butt" d="m537.84705 652.0591l1.6517334 4.538086l1.6517334 -4.538086z" fill-rule="evenodd"/><path fill="#0f9d58" d="m125.00394 598.82806l14.748032 -58.992126l177.12599 0l-14.748047 58.992126z" fill-rule="evenodd"/><path fill="#ffffff" d="m192.81479 553.067q0 -1.59375 1.265625 -1.984375l-1.734375 -0.421875l0 -1.796875q0.71875 -0.640625 1.78125 -1.046875q1.0625 -0.421875 2.359375 -0.421875q1.96875 0 2.953125 0.8125q1.0 0.8125 1.0 2.625l0 5.359375l-1.734375 0l0 -5.40625q0 -1.109375 -0.515625 -1.546875q-0.515625 -0.4375 -1.765625 -0.4375q-0.78125 0 -1.484375 0.234375q-0.6875 0.21875 -1.09375 0.578125l0 0.296875l1.828125 0.453125l0 1.15625q-0.625 0.15625 -0.890625 0.515625q-0.25 0.34375 -0.25 1.046875l0 3.109375l-1.71875 0l0 -3.125zm6.745514 -6.4375q-0.765625 0 -1.28125 -0.5q-0.53125 -0.5 -0.53125 -1.234375q0 -0.75 0.53125 -1.25q0.515625 -0.5 1.28125 -0.5q0.75 0 1.28125 0.5q0.515625 0.5 0.515625 1.25q0 0.734375 -0.515625 1.234375q-0.53125 0.5 -1.28125 0.5zm0 -1.0q0.3125 0 0.53125 -0.21875q0.203125 -0.234375 0.203125 -0.515625q0 -0.3125 -0.203125 -0.53125q-0.21875 -0.234375 -0.53125 -0.234375q-0.3125 0 -0.53125 0.234375q-0.234375 0.21875 -0.234375 0.53125q0 0.28125 0.234375 0.515625q0.234375 0.21875 0.53125 0.21875zm6.171875 5.125q0 -0.703125 -0.140625 -1.109375q-0.140625 -0.40625 -0.546875 -0.625q-0.40625 -0.21875 -1.171875 -0.21875q-0.515625 0 -1.125 0.109375q-0.59375 0.109375 -1.078125 0.3125l0 -1.34375q0.5 -0.21875 1.1875 -0.34375q0.6875 -0.140625 1.34375 -0.140625q1.734375 0 2.5 0.75q0.78125 0.75 0.78125 2.390625l0 5.65625l-1.75 0l0 -5.4375zm3.7900085 -3.203125l1.734375 0l0 2.71875l2.5 0q0.90625 0 1.28125 -0.375q0.375 -0.390625 0.375 -1.21875l0 -1.125l1.734375 0l0 1.078125q0 1.8125 -1.296875 2.28125q0.6875 0.234375 0.953125 0.765625q0.265625 0.53125 0.265625 1.328125l0 3.1875l-1.734375 0l0 -2.96875q0 -0.9375 -0.359375 -1.28125q-0.34375 -0.34375 -1.28125 -0.34375l-2.4375 0l0 4.59375l-1.734375 0l0 -8.640625zm12.601517 8.796875q-1.390625 0 -2.171875 -0.8125q-0.765625 -0.828125 -0.765625 -2.3125l0 -5.671875l1.734375 0l0 5.578125q0 0.96875 0.421875 1.40625q0.421875 0.421875 1.359375 0.421875q0.6875 0 1.328125 -0.28125q0.640625 -0.296875 1.0625 -0.75l0 -6.375l1.734375 0l0 8.640625l-1.578125 0l-0.09375 -0.9375q-1.265625 1.09375 -3.03125 1.09375zm9.945648 0q-1.609375 0 -2.578125 -1.078125q-0.953125 -1.078125 -0.953125 -3.265625q0 -2.203125 1.109375 -3.40625q1.125 -1.203125 3.3125 -1.203125q1.40625 0 2.34375 0.484375q0.9375 0.484375 1.375 1.28125q0.4375 0.796875 0.4375 1.75l0 5.28125l-1.75 0l0 -5.203125q0 -1.03125 -0.5625 -1.609375q-0.5625 -0.578125 -1.875 -0.578125q-1.390625 0 -2.046875 0.796875q-0.65625 0.796875 -0.65625 2.40625q0 1.578125 0.53125 2.265625q0.53125 0.6875 1.625 0.6875q0.734375 0 1.09375 -0.125l0 1.328125q-0.53125 0.1875 -1.40625 0.1875zm8.55365 -0.15625q-1.6875 0 -1.6875 -1.65625l0 -3.703125q0 -0.84375 0.328125 -1.40625q0.328125 -0.5625 0.90625 -1.15625q0.359375 -0.359375 0.5 -0.578125q0.15625 -0.21875 0.15625 -0.46875q0 -0.453125 -0.25 -0.625q-0.25 -0.171875 -0.8125 -0.171875q-0.859375 0 -1.734375 0.484375l0 -1.28125q0.46875 -0.28125 1.09375 -0.4375q0.625 -0.15625 1.234375 -0.15625q1.125 0 1.6875 0.484375q0.578125 0.484375 0.578125 1.359375q0 0.546875 -0.234375 0.953125q-0.234375 0.390625 -0.703125 0.890625q-0.5 0.609375 -0.765625 1.046875q-0.25 0.4375 -0.25 1.109375l0 3.21875q0 0.4375 0.125 0.578125q0.140625 0.140625 0.578125 0.140625l0.734375 0l0 1.375l-1.484375 0zm3.23526 -8.640625l1.734375 0l0 2.71875l2.5 0q0.90625 0 1.28125 -0.375q0.375 -0.390625 0.375 -1.21875l0 -1.125l1.734375 0l0 1.078125q0 1.8125 -1.296875 2.28125q0.6875 0.234375 0.953125 0.765625q0.265625 0.53125 0.265625 1.328125l0 3.1875l-1.734375 0l0 -2.96875q0 -0.9375 -0.359375 -1.28125q-0.34375 -0.34375 -1.28125 -0.34375l-2.4375 0l0 4.59375l-1.734375 0l0 -8.640625zm3.9608917 -2.78125l-1.265625 0l0 -1.203125l2.46875 0l0 1.453125l3.453125 0l-0.0625 1.21875l-4.59375 0l0 -1.46875z" fill-rule="nonzero"/><path fill="#ffffff" d="m192.67416 564.89514l4.578125 0q1.71875 0 2.59375 0.9375q0.875 0.9375 0.875 2.5q0 1.53125 -0.953125 2.46875q-0.953125 0.921875 -2.578125 0.921875l-2.78125 0l0 3.46875l-1.734375 0l0 -10.296875zm4.203125 5.453125q1.0 0 1.546875 -0.53125q0.546875 -0.546875 0.546875 -1.484375q0 -1.0 -0.515625 -1.53125q-0.515625 -0.546875 -1.5 -0.546875l-2.546875 0l0 4.09375l2.46875 0zm5.836899 -5.765625l1.90625 0l0 1.4375l-1.90625 0l0 -1.4375zm0.140625 4.359375l-1.140625 0l0.15625 -1.328125l2.734375 0l0 7.578125l-1.75 0l0 -6.25zm3.787384 -1.328125l1.59375 0l0.078125 0.796875q0.546875 -0.4375 1.265625 -0.703125q0.71875 -0.265625 1.53125 -0.265625q1.46875 0 2.140625 0.6875q0.671875 0.6875 0.671875 2.15625l0 4.90625l-1.71875 0l0 -4.828125q0 -0.890625 -0.375 -1.234375q-0.359375 -0.359375 -1.34375 -0.359375q-0.59375 0 -1.15625 0.25q-0.5625 0.234375 -0.953125 0.625l0 5.546875l-1.734375 0l0 -7.578125zm14.839905 6.71875q0.390625 -0.890625 1.0625 -1.640625q0.671875 -0.765625 1.6875 -1.640625q0.984375 -0.84375 1.390625 -1.265625q0.421875 -0.4375 0.59375 -0.84375q0.171875 -0.421875 0.171875 -1.03125q0 -0.84375 -0.5 -1.265625q-0.484375 -0.421875 -1.578125 -0.421875q-1.15625 0 -2.4375 0.46875l0 -1.53125q0.5625 -0.1875 1.328125 -0.3125q0.765625 -0.125 1.453125 -0.125q1.6875 0 2.578125 0.84375q0.90625 0.84375 0.90625 2.328125q0 1.015625 -0.484375 1.75q-0.484375 0.734375 -1.515625 1.65625l-0.265625 0.25q-0.90625 0.78125 -1.375 1.25q-0.46875 0.46875 -0.796875 1.046875l4.546875 0l0 1.34375l-6.765625 0l0 -0.859375zm8.144012 -4.125l6.109375 0l0 1.359375l-6.109375 0l0 -1.359375zm9.159897 -3.78125l-1.671875 0.28125l0 -1.453125l3.390625 -0.53125l0 10.46875l-1.71875 0l0 -8.765625zm6.354004 8.921875q-0.71875 0 -1.578125 -0.140625q-0.84375 -0.125 -1.34375 -0.3125l0 -1.53125q1.203125 0.5 2.6875 0.5q1.28125 0 1.875 -0.375q0.59375 -0.375 0.59375 -1.28125q0 -1.578125 -2.125 -1.578125l-1.5625 0l0.140625 -1.296875l1.296875 0q2.03125 0 2.03125 -1.59375q0 -0.78125 -0.546875 -1.140625q-0.53125 -0.375 -1.703125 -0.375q-0.640625 0 -1.3125 0.125q-0.65625 0.125 -1.1875 0.34375l0 -1.484375q0.515625 -0.203125 1.28125 -0.34375q0.765625 -0.140625 1.484375 -0.140625q1.828125 0 2.78125 0.78125q0.953125 0.78125 0.953125 2.078125q0 0.8125 -0.390625 1.46875q-0.390625 0.65625 -1.15625 0.921875q0.890625 0.25 1.328125 0.859375q0.4375 0.59375 0.4375 1.484375q0 1.5 -1.0625 2.265625q-1.0625 0.765625 -2.921875 0.765625z" fill-rule="nonzero"/><path fill="#ffffff" d="m206.21732 594.192q-1.671875 0 -1.671875 -1.65625l0 -6.984375l1.71875 0l0 6.546875q0 0.359375 0.171875 0.546875q0.171875 0.171875 0.53125 0.171875l0.734375 0l0 1.375l-1.484375 0zm7.1463776 0.15625q-1.875 0 -2.90625 -0.875q-1.03125 -0.890625 -1.03125 -2.640625l0 -5.28125l1.734375 0l0 5.34375q0 1.0625 0.546875 1.5625q0.5625 0.5 1.65625 0.5q1.109375 0 1.671875 -0.5q0.5625 -0.5 0.5625 -1.5625l0 -7.90625l1.71875 0l0 7.84375q0 1.75 -1.03125 2.640625q-1.015625 0.875 -2.921875 0.875zm-2.1889954 -10.0625q-0.9375 0 -1.46875 -0.46875q-0.53125 -0.484375 -0.53125 -1.375q0 -0.890625 0.5625 -1.40625q0.5625 -0.53125 1.578125 -0.53125l3.53125 0l-0.078125 1.03125l-3.28125 0q-0.5625 0 -0.828125 0.21875q-0.265625 0.21875 -0.265625 0.6875q0 0.859375 0.890625 0.859375q0.84375 0 0.84375 -0.671875l0 -0.34375l1.0625 0l0 0.34375q0 0.328125 0.1875 0.484375q0.171875 0.140625 0.546875 0.140625l0.625 0l0 1.0l-0.734375 0q-0.40625 0 -0.71875 -0.109375q-0.3125 -0.125 -0.453125 -0.390625q-0.15625 0.265625 -0.578125 0.40625q-0.421875 0.125 -0.890625 0.125zm11.125015 10.0625q-1.390625 0 -2.171875 -0.8125q-0.765625 -0.828125 -0.765625 -2.3125l0 -5.671875l1.734375 0l0 5.578125q0 0.96875 0.421875 1.40625q0.421875 0.421875 1.359375 0.421875q0.6875 0 1.328125 -0.28125q0.640625 -0.296875 1.0625 -0.75l0 -6.375l1.734375 0l0 8.640625l-1.578125 0l-0.09375 -0.9375q-1.265625 1.09375 -3.03125 1.09375zm14.006287 -8.921875l-1.671875 0.28125l0 -1.453125l3.390625 -0.53125l0 10.46875l-1.71875 0l0 -8.765625z" fill-rule="nonzero"/><path fill="#4a86e8" d="m157.37927 627.5171l127.1181 0l0 58.992126l-127.1181 0z" fill-rule="evenodd"/><path fill="#ffffff" d="m192.04689 663.02936q-1.640625 0 -2.546875 -0.859375q-0.90625 -0.875 -0.90625 -2.84375q0 -1.328125 0.453125 -2.265625q0.46875 -0.953125 1.28125 -1.4375q0.828125 -0.5 1.875 -0.5q0.671875 0 1.21875 0.171875q0.546875 0.15625 1.046875 0.484375l0 -3.6875l1.734375 0l0 10.78125l-1.484375 0l-0.109375 -0.75q-0.53125 0.484375 -1.140625 0.703125q-0.609375 0.203125 -1.421875 0.203125zm0.46875 -1.3125q1.171875 0 1.953125 -0.796875l0 -3.796875q-0.75 -0.671875 -1.890625 -0.671875q-1.109375 0 -1.671875 0.75q-0.546875 0.734375 -0.546875 2.140625q0 1.328125 0.5 1.859375q0.5 0.515625 1.65625 0.515625zm9.546387 1.3125q-2.015625 0 -3.09375 -0.984375q-1.0625 -1.0 -1.0625 -2.984375q0 -1.875 0.9375 -2.90625q0.953125 -1.03125 2.8125 -1.03125q1.671875 0 2.5625 0.890625q0.90625 0.875 0.90625 2.34375l0 1.40625l-5.546875 0q0.125 1.09375 0.78125 1.515625q0.65625 0.421875 2.0625 0.421875q0.578125 0 1.171875 -0.109375q0.59375 -0.109375 1.0625 -0.28125l0 1.28125q-1.0 0.4375 -2.59375 0.4375zm1.53125 -4.390625l0 -0.53125q0 -0.8125 -0.453125 -1.234375q-0.453125 -0.4375 -1.4375 -0.4375q-1.1875 0 -1.65625 0.515625q-0.46875 0.515625 -0.46875 1.6875l4.015625 0zm5.1076355 4.390625q-0.953125 0 -1.421875 -0.453125q-0.453125 -0.46875 -0.453125 -1.515625l0 -8.96875l1.734375 0l0 8.8125q0 0.4375 0.15625 0.609375q0.15625 0.15625 0.484375 0.15625q0.390625 0 0.734375 -0.09375l0 1.265625q-0.53125 0.1875 -1.234375 0.1875zm4.244385 0q-1.15625 0 -1.921875 -0.59375q-0.765625 -0.609375 -0.765625 -1.71875q0 -1.125 0.75 -1.765625q0.765625 -0.65625 2.296875 -0.65625l2.421875 0l0 -0.328125q0 -0.5625 -0.171875 -0.875q-0.15625 -0.3125 -0.609375 -0.453125q-0.453125 -0.15625 -1.28125 -0.15625q-1.34375 0 -2.515625 0.40625l0 -1.296875q0.546875 -0.203125 1.28125 -0.328125q0.734375 -0.140625 1.5625 -0.140625q1.6875 0 2.546875 0.6875q0.859375 0.6875 0.859375 2.1875l0 4.875l-1.484375 0l-0.125 -0.765625q-0.46875 0.46875 -1.15625 0.703125q-0.6875 0.21875 -1.6875 0.21875zm0.46875 -1.25q0.75 0 1.34375 -0.25q0.59375 -0.25 0.96875 -0.71875l0 -1.328125l-2.390625 0q-0.78125 0 -1.125 0.296875q-0.34375 0.28125 -0.34375 0.90625q0 0.578125 0.390625 0.84375q0.390625 0.25 1.15625 0.25zm6.907013 3.90625q-0.859375 0 -1.46875 -0.21875l0 -1.296875q0.453125 0.15625 0.96875 0.15625q0.484375 0 0.78125 -0.15625q0.3125 -0.140625 0.53125 -0.46875q0.234375 -0.3125 0.53125 -0.921875l-3.375 -7.484375l1.8125 0l2.421875 5.625l2.46875 -5.625l1.796875 0l-3.09375 7.140625q-0.6875 1.640625 -1.4375 2.4375q-0.734375 0.8125 -1.9375 0.8125zm13.456787 -3.671875q0.390625 -0.890625 1.0625 -1.640625q0.671875 -0.765625 1.6875 -1.640625q0.984375 -0.84375 1.390625 -1.265625q0.421875 -0.4375 0.59375 -0.84375q0.171875 -0.421875 0.171875 -1.03125q0 -0.84375 -0.5 -1.265625q-0.484375 -0.421875 -1.578125 -0.421875q-1.15625 0 -2.4375 0.46875l0 -1.53125q0.5625 -0.1875 1.328125 -0.3125q0.765625 -0.125 1.453125 -0.125q1.6875 0 2.578125 0.84375q0.90625 0.84375 0.90625 2.328125q0 1.015625 -0.484375 1.75q-0.484375 0.734375 -1.515625 1.65625l-0.265625 0.25q-0.90625 0.78125 -1.375 1.25q-0.46875 0.46875 -0.796875 1.046875l4.546875 0l0 1.34375l-6.765625 0l0 -0.859375zm11.050262 1.015625q-0.75 0 -1.546875 -0.125q-0.796875 -0.109375 -1.3125 -0.328125l0 -1.53125q0.546875 0.25 1.25 0.375q0.71875 0.125 1.390625 0.125q1.25 0 1.828125 -0.421875q0.578125 -0.4375 0.578125 -1.40625q0 -0.921875 -0.453125 -1.328125q-0.4375 -0.421875 -1.59375 -0.421875l-3.046875 0l0 -1.0625l0.265625 -4.328125l5.859375 0l-0.140625 1.34375l-4.234375 0l-0.1875 2.703125l1.75 0q1.828125 0 2.671875 0.78125q0.859375 0.765625 0.859375 2.34375q0 1.5625 -1.015625 2.421875q-1.0 0.859375 -2.921875 0.859375zm9.865021 0.125q-2.375 0 -3.453125 -1.359375q-1.078125 -1.359375 -1.078125 -3.953125q0 -2.6875 1.046875 -4.0625q1.0625 -1.375 3.484375 -1.375q2.3906097 0 3.4531097 1.375q1.0625 1.375 1.0625 4.0625q0 2.59375 -1.09375 3.953125q-1.078125 1.359375 -3.4218597 1.359375zm0 -1.484375q1.4687347 0 2.1093597 -0.96875q0.640625 -0.984375 0.640625 -2.859375q0 -2.0 -0.625 -2.96875q-0.625 -0.96875 -2.1249847 -0.96875q-1.515625 0 -2.140625 0.96875q-0.625 0.96875 -0.625 2.96875q0 1.890625 0.640625 2.859375q0.640625 0.96875 2.125 0.96875z" fill-rule="nonzero"/><path fill="#000000" fill-opacity="0.0" d="m220.9357 511.1496l0 28.692932" fill-rule="evenodd"/><path stroke="#000000" stroke-width="1.0" stroke-linejoin="round" stroke-linecap="butt" stroke-dasharray="1.0,3.0" d="m220.9357 511.1496l0 25.26587" fill-rule="evenodd"/><path fill="#000000" stroke="#000000" stroke-width="1.0" stroke-linecap="butt" d="m220.9357 536.4154l-1.124588 -1.1245728l1.124588 3.0897827l1.1245728 -3.0897827z" fill-rule="evenodd"/><path fill="#000000" fill-opacity="0.0" d="m220.94095 598.82806l0 28.692932" fill-rule="evenodd"/><path stroke="#000000" stroke-width="1.0" stroke-linejoin="round" stroke-linecap="butt" d="m220.94095 598.82806l0 25.26587" fill-rule="evenodd"/><path fill="#000000" stroke="#000000" stroke-width="1.0" stroke-linecap="butt" d="m220.94095 624.09393l-1.124588 -1.1246338l1.124588 3.0897827l1.1245728 -3.0897827z" fill-rule="evenodd"/><path fill="#000000" fill-opacity="0.0" d="m539.4974 504.16403l0 27.46457" fill-rule="evenodd"/><path stroke="#000000" stroke-width="1.0" stroke-linejoin="round" stroke-linecap="butt" d="m539.4974 504.16403l0 24.037506" fill-rule="evenodd"/><path fill="#000000" stroke="#000000" stroke-width="1.0" stroke-linecap="butt" d="m539.4974 528.20154l-1.1245728 -1.1245728l1.1245728 3.0897217l1.1245728 -3.0897217z" fill-rule="evenodd"/><path fill="#000000" fill-opacity="0.0" d="m292.32678 317.20178l402.3307 -0.6929016" fill-rule="evenodd"/><path stroke="#000000" stroke-width="1.0" stroke-linejoin="round" stroke-linecap="butt" d="m295.75385 317.1959l398.90363 -0.6870117" fill-rule="evenodd"/><path fill="#000000" stroke="#000000" stroke-width="1.0" stroke-linecap="butt" d="m295.75385 317.1959l1.1226501 -1.1265259l-3.0878296 1.1299133l3.0917053 1.1192627z" fill-rule="evenodd"/><path fill="#000000" fill-opacity="0.0" d="m694.6483 316.5092l2.425171 251.2756" fill-rule="evenodd"/><path stroke="#000000" stroke-width="1.0" stroke-linejoin="round" stroke-linecap="butt" d="m694.6483 316.5092l2.425171 251.2756" fill-rule="evenodd"/><path fill="#000000" fill-opacity="0.0" d="m697.0552 567.79395l-83.685 1.322876" fill-rule="evenodd"/><path stroke="#000000" stroke-width="1.0" stroke-linejoin="round" stroke-linecap="butt" d="m697.0552 567.79395l-83.685 1.322876" fill-rule="evenodd"/><path fill="#000000" fill-opacity="0.0" d="m284.49738 657.0131l102.11023 -1.0393677" fill-rule="evenodd"/><path stroke="#000000" stroke-width="1.0" stroke-linejoin="round" stroke-linecap="butt" d="m284.49738 657.0131l102.11023 -1.0393677" fill-rule="evenodd"/><path fill="#000000" fill-opacity="0.0" d="m386.59317 655.97375l0 -264.56693" fill-rule="evenodd"/><path stroke="#000000" stroke-width="1.0" stroke-linejoin="round" stroke-linecap="butt" d="m386.59317 655.97375l0 -264.56693" fill-rule="evenodd"/><path fill="#000000" fill-opacity="0.0" d="m386.58926 391.41602l64.346436 -3.212616" fill-rule="evenodd"/><path stroke="#000000" stroke-width="1.0" stroke-linejoin="round" stroke-linecap="butt" d="m386.58923 391.41602l60.923645 -3.0417175" fill-rule="evenodd"/><path fill="#000000" stroke="#000000" stroke-width="1.0" stroke-linecap="butt" d="m447.51288 388.3743l-1.0671082 1.1792603l3.0298462 -1.2772522l-3.1419983 -0.9691162z" fill-rule="evenodd"/></g></svg>